<svg width="70" height="69" viewBox="0 0 70 69" fill="none" xmlns="http://www.w3.org/2000/svg">
<path fill-rule="evenodd" clip-rule="evenodd" d="M40.9762 31.8482C40.7603 31.5104 40.6902 31.6228 40.5263 31.2214C39.9714 29.8622 40.2078 29.6747 40.7266 28.7261C41.7587 28.7265 45.1038 28.6456 45.5978 28.7822C46.8593 29.131 48.5369 28.9617 49.855 28.9597C49.5302 30.2128 47.6979 30.5336 46.5812 30.8215L42.2048 31.6081C40.8894 31.6814 41.6352 31.66 40.9762 31.8482ZM49.847 23.8667C49.7161 24.2319 49.4951 24.4391 49.2235 24.6901C48.5817 25.2831 48.6629 25.1756 47.8837 25.4236L46.862 25.7456C46.6213 25.7971 46.5944 25.7736 46.3386 25.8451L43.9642 26.2989C43.4031 26.4263 43.92 26.4522 42.9444 26.4935L41.149 26.8104C40.1046 27.0973 40.5948 26.8717 39.3997 27.1699C38.7684 27.3274 38.537 26.4467 38.3309 25.7308C38.2044 25.2914 38.2379 24.9119 38.3496 24.5528C38.452 24.2238 38.5531 23.814 38.7466 23.6117C39.1479 23.192 40.4679 23.3698 41.2168 23.372C42.7982 23.3766 42.0221 23.3298 42.9904 23.5688L46.0308 23.6174C48.8166 23.608 47.7041 23.8423 49.847 23.8667ZM31.7121 27.2248C31.304 26.8657 30.9674 26.5354 30.6103 26.1637C30.612 25.6408 30.5528 25.2157 30.7148 24.8145C31.191 23.6347 31.576 23.3923 32.1657 22.4809C32.5504 21.8863 33.9733 20.522 34.546 20.2064L36.9316 18.5472C37.3734 18.2823 37.6656 17.9978 38.1782 17.8329C38.7496 17.649 39.3469 17.2492 39.9057 17.1065C40.3926 16.9822 40.6843 16.9425 41.0874 16.8089C41.3547 16.7203 41.4589 16.663 41.6352 16.6229C42.3507 16.4599 42.9522 16.432 43.6744 16.1982C44.2759 16.0035 47.0665 15.9724 47.7136 16.1354C48.1419 16.2432 47.6832 16.263 48.3792 16.3294L50.3623 16.6853L55.2096 18.8355C55.6956 19.1308 55.017 18.6765 55.3589 18.9321L57.7665 21.2956L59.7258 25.6799C59.8227 26.7643 60.5198 27.9594 60.1933 29.6636L58.0126 35.0347C57.9987 35.0578 57.9838 35.0908 57.9698 35.114C57.9558 35.1371 57.9398 35.1694 57.9254 35.1921L57.3845 35.9986C56.9082 36.6801 56.0123 37.3627 55.4197 37.9495C55.2746 38.0933 55.2108 38.1748 55.0305 38.2962L53.3067 39.4008C53.0443 39.5429 53.2745 39.4069 53.0755 39.5417L50.0675 40.7993C47.9955 41.2318 48.3624 41.0161 46.3995 41.0862L45.6383 42.5446C45.5637 42.6911 45.5492 42.7237 45.4736 42.8713L44.7674 43.9901C43.7106 45.4676 42.3162 46.9868 40.8144 47.9925C40.7189 48.0564 40.5925 48.1818 40.4655 48.2678C40.3158 48.3692 40.2802 48.3734 40.0698 48.4674C39.8027 48.5867 39.5067 48.7287 39.3191 48.819L38.7604 49.101C38.7365 49.1133 38.7061 49.1318 38.6817 49.1437C38.657 49.1559 38.6267 49.1742 38.6012 49.1856C38.015 49.4487 37.0457 49.3132 36.3136 49.305C36.3316 48.8159 36.5409 48.8188 36.7909 48.5287C36.8078 48.5091 36.8317 48.4823 36.8478 48.4617L37.6093 47.2629C37.641 47.1956 37.7206 47.014 37.724 47.0071L38.47 45.8056C38.4937 45.7566 38.6587 45.3845 38.6594 45.3824C38.9969 44.4646 39.4267 43.4669 39.6644 42.4987C39.8467 41.7563 40.3119 38.3797 39.8099 37.8703C39.3335 37.3869 36.842 37.6215 36.0947 37.8767L35.2578 38.1371C35.226 38.146 35.1923 38.1526 35.1604 38.1616C35.1282 38.1708 35.0942 38.1772 35.0621 38.1868C34.842 38.2525 34.9619 38.2079 34.7831 38.2806L33.4799 38.9454C33.3166 39.0282 33.2706 39.0536 33.0721 39.1544L31.8391 39.8884C31.353 40.164 31.5074 40.0167 31.2619 40.5351C30.7312 41.6559 29.699 42.9733 28.8859 43.905C28.1721 44.7229 28.5257 44.5128 27.3429 45.6661C23.7611 49.1582 25.3695 47.7304 22.4792 49.7433C22.3924 49.8037 22.2398 49.9327 22.1247 50.0008C20.2155 51.1303 19.7639 50.9697 18.9952 50.2108C18.287 49.5118 17.6807 48.7389 17.7355 47.6476C17.7763 46.8348 19.3065 45.431 20.0652 44.9474C20.5623 44.6304 20.9455 44.0628 21.4099 43.7185L29.4346 38.1342C29.7476 37.8777 29.9541 37.2677 30.1476 36.8868L30.9836 35.03C31.2122 34.3763 31.2296 32.3649 30.9317 31.7885C30.7048 31.3495 30.7224 31.4895 30.4899 31.1583C29.9893 31.1246 29.4958 31.1299 28.9938 31.1285C28.8064 31.128 28.429 31.1195 28.2599 31.1434L26.7285 31.8226C26.6271 31.8715 26.4848 31.9414 26.4818 31.9429L26.3165 32.0234C26.2916 32.0361 26.2589 32.0512 26.2343 32.0644L24.924 32.9647C24.37 33.5126 23.5337 34.1834 23.0787 34.7943C22.856 35.0934 23.0023 35.0013 22.7535 35.3251L21.758 36.5323C21.2337 37.2597 20.8425 38.1637 20.3288 38.8947C19.1791 40.5308 17.0643 37.5251 17.0527 37.214C17.1768 36.7562 17.63 36.4957 17.8884 36.2439L18.7007 35.2188C18.7158 35.1986 18.7402 35.1722 18.7555 35.1522C18.9363 34.9143 18.8025 35.1285 18.9617 34.8692L20.2922 32.0443C20.3026 32.0158 20.314 31.9834 20.325 31.9556L20.6037 31.3859C20.6153 31.3588 20.6288 31.3271 20.6396 31.2992C20.6507 31.2707 20.6618 31.2384 20.6722 31.2092L21.731 27.3894C21.81 26.8116 21.9671 27.1798 21.9649 26.2851C21.9629 25.3193 22.1875 22.6751 21.857 22.017C21.585 21.8749 21.0432 21.8335 20.6474 21.9507C20.0317 22.1329 19.5759 22.6906 19.1328 23.138L17.7196 25.3952C17.7069 25.4198 17.6909 25.4512 17.6782 25.4758L17.5541 25.7168C17.5416 25.7412 17.5248 25.772 17.5125 25.7966L16.9768 27.0909C16.8687 27.3048 16.8729 27.3021 16.771 27.6181C16.761 27.649 16.7528 27.682 16.7427 27.7129C16.7328 27.7434 16.7228 27.7755 16.7127 27.8057L15.9633 30.4755C15.9547 30.5061 15.9425 30.5362 15.9331 30.5659C15.924 30.5947 15.9086 30.6236 15.8992 30.652C15.7449 31.1194 15.8463 31.457 15.7256 31.9406C15.5539 32.6278 15.2712 33.37 15.2783 34.1819C15.2799 34.357 15.2873 34.5955 15.2552 34.7628C15.0604 35.7786 15.0155 35.1809 15.0224 36.7282C15.0285 38.0797 14.8553 42.8586 15.0931 43.5934C15.3409 44.3592 15.4567 45.6795 15.6816 46.2948L16.8 48.8714C16.6475 49.1485 16.5396 49.2284 16.345 49.4211C15.4737 50.284 14.1644 49.5664 13.4576 48.8584C13.1804 48.5808 12.8677 48.331 12.6848 48.0473L12.3489 47.5238C11.9809 47.0378 11.6921 46.3294 11.4863 45.7111L11.1733 44.5635C11.0441 44.0555 11.2126 43.6765 11.0294 43.122C10.924 42.8029 10.8988 43.0335 10.8728 42.4432C10.8297 41.4635 10.7492 40.2233 10.8768 39.2859C10.9801 38.5272 11.1224 38.9305 11.1028 37.5718L11.2322 36.731C11.4505 36.1358 11.2817 35.9348 11.5348 35.0853L12.6093 30.9238C12.6192 30.8937 12.6288 30.8611 12.6388 30.8311C12.6486 30.8015 12.6596 30.7698 12.6695 30.7404L15.0676 25.4553C15.8694 24.0989 16.3937 23.1325 17.5294 21.9255C18.1419 21.2744 18.7408 20.783 19.4889 20.3357L20.8064 19.6881C21.2191 19.4854 20.7154 19.4379 22.0933 19.4867C22.9378 19.5166 23.5628 19.9887 23.9475 20.6857L24.3069 21.4221C24.3181 21.4494 24.3305 21.4813 24.3411 21.5093L24.5951 22.2312C24.8397 23.0132 24.6693 25.3179 24.67 26.2851C24.6707 26.856 24.547 26.1408 24.4363 26.9011C24.3891 27.2257 24.4539 27.5008 24.382 27.827C24.2103 28.6062 24.1939 28.434 24.1895 29.4197C24.4671 29.3024 25.1948 29.1248 26.3079 28.6207L27.7051 28.1713C28.1651 28.0484 28.1354 27.9838 28.6262 27.9882C29.3273 28.003 28.9737 28.0674 29.2119 28.1405L30.2801 28.3083C30.3018 28.3151 30.564 28.4409 30.6111 28.4644C30.6357 28.4767 30.6667 28.4939 30.6913 28.5062L32.6249 30.2422C32.886 30.6457 32.9507 30.6295 33.0998 31.1121C33.1092 31.1425 33.118 31.1749 33.1274 31.2051L33.2707 31.6612C33.3013 31.7905 33.2976 31.8461 33.3273 31.9724C33.4364 32.4361 33.5494 32.5565 33.5629 33.0802C33.594 34.2843 33.1336 34.5348 33.3267 36.2032C33.7947 36.1977 34.0002 36.1307 34.3486 36.0433C35.0217 35.8744 34.7871 35.902 35.329 35.6744C35.9917 35.3961 37.8328 35.0302 38.6203 35.0344C40.6725 35.0454 41.1062 34.7525 42.1487 36.7822C43.1185 38.6704 41.8164 42.7599 41.0987 44.4747C41.7645 44.0816 42.4987 43.5494 43.0724 43.0563C43.7894 42.4401 43.9971 41.7891 44.4918 41.0341L45.6894 38.8162C45.8017 38.6001 45.8238 38.5381 45.9317 38.2016C46.0328 37.8866 46.0368 37.8962 46.1359 37.5738C46.25 37.2027 46.1562 37.2349 46.4042 36.9731C46.9826 36.3621 47.297 37.3799 50.6398 35.673C52.779 34.5807 54.3871 32.6308 55.1482 30.3945L55.3329 29.3565C55.575 28.2254 55.5373 27.9109 55.5466 26.6483C55.5517 25.9538 55.4136 25.3883 55.2747 24.7245C55.1044 23.9103 54.2501 22.3116 53.6644 21.6877C52.3405 20.2773 50.6877 18.9118 48.7306 18.5083C46.8087 18.1121 46.5838 18.0009 44.4261 18.0012C43.5665 18.0013 42.8708 18.116 42.0555 18.3573C42.0168 18.3688 41.9154 18.4086 41.8763 18.4195L40.0401 19.0616C39.7737 19.1609 39.3466 19.3485 39.1058 19.4739C38.3956 19.844 37.725 20.4279 37.0447 20.8441C36.2449 21.3334 35.1047 22.3405 34.6006 23.17C34.3205 23.6308 34.2598 23.6329 33.9554 23.9944L31.7121 27.2248ZM30.3653 4.06313C30.0228 4.26032 30.0881 4.15117 29.613 4.16797C28.9539 4.19128 29.2235 4.20207 28.783 4.33395C28.194 4.51025 27.7988 4.63382 27.1449 4.653L26.2175 4.84033C26.1882 4.85033 26.1555 4.86085 26.126 4.87062L22.7792 5.94976C22.6469 5.99855 22.2279 6.2102 22.1137 6.26762C21.2243 6.71479 20.3231 6.89381 19.4921 7.4611C19.4356 7.4997 19.23 7.66343 19.2159 7.67298L19.0674 7.76584C19.0357 7.78397 18.9395 7.83083 18.9062 7.84754C17.6731 8.46546 16.6115 9.3212 15.4603 10.0518L10.5861 14.8529C10.3654 15.1144 10.4178 15.1081 10.2401 15.3663C10.0568 15.6328 9.97449 15.6695 9.79976 15.8987L8.45433 17.8602C8.38742 17.9613 8.32485 18.0369 8.25304 18.1449L7.07209 20.1425C7.0594 20.1675 7.04386 20.199 7.03112 20.224C6.97485 20.3341 6.93734 20.4047 6.86324 20.5456L5.41508 23.978C5.405 24.0087 5.39655 24.0416 5.38652 24.0722L5.16895 24.7078C5.13437 24.8118 5.0983 24.9196 5.07703 24.982C4.94988 25.3555 5.05067 24.9553 4.95833 25.3488L3.93299 31.0274C3.94045 31.7452 3.69759 31.8234 3.67179 32.5896C3.6339 33.7128 3.50265 35.3497 3.84513 36.328C4.07161 36.975 3.77943 37.8216 3.98758 38.4924C4.1206 38.9213 4.01226 38.3818 4.12933 38.8397C4.21252 39.1653 4.13577 39.4243 4.18583 39.7529L5.90355 45.5928C6.09308 46.1961 6.40281 46.5388 6.59131 47.1026L7.05898 48.2274C7.36129 48.8131 7.11105 48.3638 7.44868 48.8096C7.83105 49.3145 8.12104 50.0759 8.48555 50.5855C8.63728 50.7976 8.53384 50.6755 8.67115 50.8906L10.9252 53.8985C11.5481 54.5492 14.113 57.207 14.8236 57.7146L17.6754 59.6462C17.6975 59.6604 17.728 59.6798 17.7498 59.6944L18.1824 59.9948C18.3354 60.0827 18.658 60.2178 18.8397 60.3258C18.8626 60.3395 18.8933 60.3582 18.9156 60.3724C18.9376 60.3865 18.967 60.4071 18.9883 60.4217C19.7139 60.9189 21.0345 61.5888 22.3733 62.0716L23.4105 62.5151C23.4404 62.5246 23.4734 62.5346 23.5032 62.5443L28.047 63.7796C28.0767 63.7889 28.1048 63.8066 28.1341 63.8166C28.1635 63.8267 28.1912 63.8453 28.221 63.8552L29.4521 64.0991C30.142 64.343 30.6113 64.0462 31.2548 64.283C31.7279 64.4569 32.3088 64.4552 32.9464 64.4468L36.8988 64.4529C38.0893 64.466 37.6545 64.2087 38.6181 64.1879C38.9272 64.1812 39.1458 64.2427 39.4645 64.1663C40.1747 63.9959 39.2358 63.9977 40.2292 63.9465C40.7337 63.9206 40.6422 64.0165 41.1337 63.8598C41.1635 63.8503 41.1919 63.8331 41.2212 63.8235C41.2504 63.8139 41.2797 63.798 41.3092 63.789L44.8508 62.7911C45.0276 62.7289 45.3642 62.6084 45.4992 62.5643L48.2089 61.4605C48.234 61.4482 48.266 61.4327 48.2909 61.4204L50.1047 60.413C50.2292 60.3293 50.4802 60.2114 50.6739 60.1187C51.3725 59.7841 52.0526 59.2666 52.6839 58.8198C52.7134 58.7989 52.7954 58.7358 52.8262 58.7161L54.1361 57.8166C55.0131 57.3149 55.7889 56.2851 56.5865 55.4932C57.2218 54.8624 58.0514 54.2496 58.5079 53.4885L62.2492 47.8193C62.324 47.6736 62.3364 47.6495 62.4141 47.4966C62.4266 47.4719 62.4432 47.441 62.4556 47.4161C62.4681 47.3912 62.485 47.3608 62.4972 47.3356L64.5193 41.4304C64.5866 41.2125 64.5405 41.5078 64.64 41.0696L65.103 38.732C65.1739 38.4953 65.1575 38.5914 65.1745 38.3141C65.1932 38.0066 65.1466 37.6323 65.1583 37.3263C65.1858 36.6144 65.2426 36.8867 65.3262 36.643C65.5077 36.1138 65.5021 32.4291 65.3777 31.9034C65.1806 31.0705 65.1602 31.9073 65.1736 30.1661C65.1795 29.3975 64.9112 28.5645 64.7258 27.8149L64.5207 26.6816C64.4451 26.4426 64.4848 26.5643 64.4264 26.2877L63.9588 24.8035C63.9162 24.6758 63.8715 24.5324 63.8386 24.4354L63.4984 23.4356C63.3971 23.1411 63.312 22.8895 63.2512 22.7084C62.7865 21.3248 62.0311 20.1461 61.3822 18.8379L60.323 17.2088C60.3086 17.1869 60.291 17.1556 60.2769 17.1333C60.0849 16.828 60.0594 16.8056 59.8792 16.5517L58.4463 14.6805C57.4398 13.4364 56.1419 12.0113 54.8156 11.0819L48.5473 6.92429C48.3115 6.80825 48.0742 6.69758 47.8566 6.6274L38.831 4.10109C37.3723 3.67558 30.6825 3.88049 30.3653 4.06313Z" fill="black"/>
<path fill-rule="evenodd" clip-rule="evenodd" d="M30.3653 4.06313C30.6825 3.88049 37.3723 3.67558 38.831 4.10109L47.8566 6.6274C48.0742 6.69758 48.3115 6.80825 48.5473 6.92429L54.8156 11.0819C56.1419 12.0113 57.4398 13.4364 58.4463 14.6805L59.8792 16.5517C60.0594 16.8056 60.0849 16.828 60.2769 17.1333C60.291 17.1556 60.3086 17.1869 60.323 17.2088L61.3822 18.8379C62.0311 20.1461 62.7865 21.3248 63.2512 22.7084C63.312 22.8895 63.3971 23.1411 63.4984 23.4356L63.8386 24.4354C63.8715 24.5324 63.9162 24.6758 63.9588 24.8035L64.4264 26.2877C64.4848 26.5643 64.4451 26.4426 64.5207 26.6816L64.7258 27.8149C64.9112 28.5645 65.1795 29.3975 65.1736 30.1661C65.1602 31.9073 65.1806 31.0705 65.3777 31.9034C65.5021 32.4291 65.5077 36.1138 65.3262 36.643C65.2426 36.8867 65.1858 36.6144 65.1583 37.3263C65.1466 37.6323 65.1932 38.0066 65.1745 38.3141C65.1575 38.5914 65.1739 38.4953 65.103 38.732L64.64 41.0696C64.5405 41.5078 64.5866 41.2125 64.5193 41.4304L62.4972 47.3356C62.485 47.3608 62.4681 47.3912 62.4556 47.4161C62.4432 47.441 62.4266 47.4719 62.4141 47.4966C62.3364 47.6495 62.324 47.6736 62.2492 47.8193L58.5079 53.4885C58.0514 54.2496 57.2218 54.8624 56.5865 55.4932C55.7889 56.2851 55.0131 57.3149 54.1361 57.8166L52.8262 58.7161C52.7954 58.7358 52.7134 58.7989 52.6839 58.8198C52.0526 59.2666 51.3725 59.7841 50.6739 60.1187C50.4802 60.2114 50.2292 60.3293 50.1047 60.413L48.2909 61.4204C48.266 61.4327 48.234 61.4482 48.2089 61.4605L45.4992 62.5643C45.3642 62.6084 45.0276 62.7289 44.8508 62.7911L41.3092 63.789C41.2797 63.798 41.2504 63.8139 41.2212 63.8235C41.1919 63.8331 41.1635 63.8503 41.1337 63.8598C40.6422 64.0165 40.7337 63.9206 40.2292 63.9465C39.2358 63.9977 40.1747 63.9959 39.4645 64.1663C39.1458 64.2427 38.9272 64.1812 38.6181 64.1879C37.6545 64.2087 38.0893 64.466 36.8988 64.4529L32.9464 64.4468C32.3088 64.4552 31.7279 64.4569 31.2548 64.283C30.6113 64.0462 30.142 64.343 29.4521 64.0991L28.221 63.8552C28.1912 63.8453 28.1635 63.8267 28.1341 63.8166C28.1048 63.8066 28.0767 63.7889 28.047 63.7796L23.5032 62.5443C23.4734 62.5346 23.4404 62.5246 23.4105 62.5151L22.3733 62.0716C21.0345 61.5888 19.7139 60.9189 18.9883 60.4217C18.967 60.4071 18.9376 60.3865 18.9156 60.3724C18.8933 60.3582 18.8626 60.3395 18.8397 60.3258C18.658 60.2178 18.3354 60.0827 18.1824 59.9948L17.7498 59.6944C17.728 59.6798 17.6975 59.6604 17.6754 59.6462L14.8236 57.7146C14.113 57.207 11.5481 54.5492 10.9252 53.8985L8.67115 50.8906C8.53384 50.6755 8.63728 50.7976 8.48555 50.5855C8.12104 50.0759 7.83105 49.3145 7.44868 48.8096C7.11105 48.3638 7.36129 48.8131 7.05898 48.2274L6.59131 47.1026C6.40281 46.5388 6.09308 46.1961 5.90355 45.5928L4.18583 39.7529C4.13577 39.4243 4.21252 39.1653 4.12933 38.8397C4.01226 38.3818 4.1206 38.9213 3.98758 38.4924C3.77943 37.8216 4.07161 36.975 3.84513 36.328C3.50265 35.3497 3.6339 33.7128 3.67179 32.5896C3.69759 31.8234 3.94045 31.7452 3.93299 31.0274L4.95833 25.3488C5.05067 24.9553 4.94988 25.3555 5.07703 24.982C5.0983 24.9196 5.13437 24.8118 5.16895 24.7078L5.38652 24.0722C5.39655 24.0416 5.405 24.0087 5.41508 23.978L6.86324 20.5456C6.93734 20.4047 6.97485 20.3341 7.03112 20.224C7.04386 20.199 7.0594 20.1675 7.07209 20.1425L8.25304 18.1449C8.32485 18.0369 8.38742 17.9613 8.45433 17.8602L9.79976 15.8987C9.97449 15.6695 10.0568 15.6328 10.2401 15.3663C10.4178 15.1081 10.3654 15.1144 10.5861 14.8529L15.4603 10.0518C16.6115 9.3212 17.6731 8.46546 18.9062 7.84754C18.9395 7.83083 19.0357 7.78397 19.0674 7.76584L19.2159 7.67298C19.23 7.66343 19.4356 7.4997 19.4921 7.4611C20.3231 6.89381 21.2243 6.71479 22.1137 6.26762C22.2279 6.2102 22.6469 5.99855 22.7792 5.94976L26.126 4.87062C26.1555 4.86085 26.1882 4.85033 26.2175 4.84033L27.1449 4.653C27.7988 4.63382 28.194 4.51025 28.783 4.33395C29.2235 4.20207 28.9539 4.19128 29.613 4.16797C30.0881 4.15117 30.0228 4.26032 30.3653 4.06313ZM0.00156351 32.4778C-0.00412894 36.779 -0.0543814 39.9054 1.33215 43.9265C2.12522 46.2265 2.25115 46.5579 3.22568 48.6157L3.96388 50.0707C5.41098 52.656 5.75374 53.0543 7.46222 55.3673C8.64233 56.9649 10.267 58.4358 11.7213 59.7954C13.1822 61.1612 15.1222 62.5465 16.8474 63.4912C18.2771 64.2741 19.6819 65.1334 21.2746 65.6813C21.824 65.8704 22.311 66.0856 22.8967 66.2647C24.0375 66.6136 25.1174 67.0663 26.2708 67.3136L29.9854 68.0107C30.3542 68.0318 30.7049 67.9713 31.0845 68.0354C31.425 68.0929 31.5441 68.2249 31.9601 68.2563C33.5164 68.3735 35.2088 68.2273 36.7764 68.2514C37.7623 68.2666 37.7991 68.0685 38.5008 68.0139C40.308 67.8735 41.8594 67.6443 43.5782 67.0865L48.157 65.5338C49.1269 65.1883 49.9199 64.6918 50.8869 64.2075L55.7868 61.0161L57.9094 59.1056C58.8234 58.1392 60.538 56.6739 61.2983 55.6438L65.3896 49.5906L67.2553 45.4733C67.3337 45.2892 67.4604 44.8745 67.5338 44.6527L68.2088 42.4021C68.2206 42.364 68.2634 42.2654 68.2749 42.2271L68.8732 39.0438C68.9718 38.3703 69.1056 39.2174 69.1079 36.9707C69.1086 36.3248 69.3537 36.4098 69.3553 35.7564C69.3572 34.9583 69.5285 32.7459 69.2789 31.9462C69.0717 31.2828 69.191 30.742 69.0323 30.2463C68.8275 29.6065 68.9573 29.1139 68.8382 28.4901C68.7475 28.0156 68.7545 28.4139 68.62 27.7392L65.827 19.5574C65.8143 19.5329 65.798 19.5018 65.7854 19.4773L62.4063 14.0574L56.5442 7.92627C56.3547 7.74322 56.2567 7.63434 56.0184 7.4752L47.6408 2.60389C47.6131 2.59274 47.5809 2.58011 47.5524 2.56979L45.197 1.72686C45.1667 1.71722 45.134 1.7073 45.1039 1.69757C45.0741 1.68798 45.0421 1.67646 45.0125 1.66673L44 1.32798C43.9694 1.31779 43.9365 1.30801 43.9057 1.29796L40.8854 0.629223C40.6415 0.558168 40.741 0.594247 40.477 0.542838C39.9494 0.440157 40.2141 0.38411 39.6073 0.310026C39.1052 0.248656 38.6748 0.314938 38.2594 0.174572C37.3785 -0.123143 36.0191 0.0582135 35.0448 0.0576167C34.0352 0.0599577 31.7285 -0.117176 30.9276 0.138356C30.3255 0.330452 29.6597 0.237549 29.1105 0.412387L28.2183 0.630967C28.1887 0.640009 28.1591 0.655066 28.1299 0.664384C27.4915 0.868598 28.6979 0.53563 27.9531 0.73071L26.5553 0.935842C26.5266 0.945757 26.4952 0.959024 26.4664 0.968847L25.9993 1.11637C25.878 1.15626 25.9079 1.16163 25.7258 1.21029L24.7346 1.45131C24.705 1.46118 24.6725 1.47202 24.6429 1.48188L20.3144 3.17463C20.2891 3.18707 20.2573 3.20276 20.232 3.21511C20.2067 3.22746 20.1748 3.24307 20.1495 3.25532C20.1243 3.26758 20.0924 3.28305 20.0671 3.29521L18.584 4.02527C18.3393 4.14961 18.4643 4.08792 18.1725 4.22416L15.7026 5.68023C15.5658 5.76042 15.6203 5.72201 15.4761 5.82152C14.8489 6.25446 14.2119 6.52697 13.6778 7.08903L12.9895 7.62635C12.9662 7.64035 12.9336 7.65665 12.911 7.67111C12.8801 7.69075 12.7935 7.74873 12.7651 7.77044L11.5916 8.68121C10.8948 9.16712 9.0569 11.0644 8.6218 11.5835C8.34987 11.908 8.76322 11.3693 8.51453 11.7206C7.67862 12.9015 6.43352 14.2542 5.8548 15.1761L3.69349 18.7567C3.68089 18.7811 3.66503 18.8127 3.65234 18.837C3.63965 18.8613 3.62345 18.8927 3.61067 18.9169L2.13644 22.8719L0.662213 26.8269C0.551677 27.2176 0.634778 26.7632 0.5353 27.1828C0.479729 27.4174 0.508657 27.3959 0.486167 27.6195C0.40526 28.4245 0.359021 27.968 0.261877 28.4912C0.205185 28.7966 0.272608 29.1325 0.240833 29.4422C0.13277 30.4949 0.00594949 29.1597 0.00156351 32.4778Z" fill="white"/>
<path fill-rule="evenodd" clip-rule="evenodd" d="M33.5629 33.0802C33.5494 32.5565 33.4364 32.4361 33.3273 31.9724C33.2976 31.8461 33.3013 31.7905 33.2707 31.6612L33.1274 31.2051C33.118 31.1749 33.1092 31.1425 33.0998 31.1121C32.9507 30.6295 32.886 30.6457 32.6249 30.2422L30.6913 28.5062C30.6667 28.4939 30.6357 28.4767 30.6111 28.4644C30.564 28.4409 30.3018 28.3151 30.2801 28.3083L29.2119 28.1405C28.9737 28.0674 29.3273 28.003 28.6262 27.9882C28.1354 27.9838 28.1651 28.0484 27.7051 28.1713L26.3079 28.6207C25.1948 29.1248 24.4671 29.3024 24.1895 29.4197C24.1939 28.434 24.2103 28.6062 24.382 27.827C24.4539 27.5008 24.3891 27.2257 24.4363 26.9011C24.547 26.1408 24.6707 26.856 24.67 26.2851C24.6693 25.3179 24.8397 23.0132 24.5951 22.2312L24.3411 21.5093C24.3305 21.4813 24.3181 21.4494 24.3069 21.4221L23.9475 20.6857C23.5628 19.9887 22.9378 19.5166 22.0933 19.4867C20.7154 19.4379 21.2191 19.4854 20.8064 19.6881L19.4889 20.3357C18.7408 20.783 18.1419 21.2744 17.5294 21.9255C16.3937 23.1325 15.8694 24.0989 15.0676 25.4553L12.6695 30.7404C12.6596 30.7698 12.6486 30.8015 12.6388 30.8311C12.6288 30.8611 12.6192 30.8937 12.6093 30.9238L11.5348 35.0853C11.2817 35.9348 11.4505 36.1358 11.2322 36.731L11.1028 37.5718C11.1224 38.9305 10.9801 38.5272 10.8768 39.2859C10.7492 40.2233 10.8297 41.4635 10.8728 42.4432C10.8988 43.0335 10.924 42.8029 11.0294 43.122C11.2126 43.6765 11.0441 44.0555 11.1733 44.5635L11.4863 45.7111C11.6921 46.3294 11.9809 47.0378 12.3489 47.5238L12.6848 48.0473C12.8677 48.331 13.1804 48.5808 13.4576 48.8584C14.1644 49.5664 15.4737 50.284 16.345 49.4211C16.5396 49.2284 16.6475 49.1485 16.8 48.8714L15.6816 46.2948C15.4567 45.6795 15.3409 44.3592 15.0931 43.5934C14.8553 42.8586 15.0285 38.0797 15.0224 36.7282C15.0155 35.1809 15.0604 35.7786 15.2552 34.7628C15.2873 34.5955 15.2799 34.357 15.2783 34.1819C15.2712 33.37 15.5539 32.6278 15.7256 31.9406C15.8463 31.457 15.7449 31.1194 15.8992 30.652C15.9086 30.6236 15.924 30.5947 15.9331 30.5659C15.9425 30.5362 15.9547 30.5061 15.9633 30.4755L16.7127 27.8057C16.7228 27.7755 16.7328 27.7434 16.7427 27.7129C16.7528 27.682 16.761 27.649 16.771 27.6181C16.8729 27.3021 16.8687 27.3048 16.9768 27.0909L17.5125 25.7966C17.5248 25.772 17.5416 25.7412 17.5541 25.7168L17.6782 25.4758C17.6909 25.4512 17.7069 25.4198 17.7196 25.3952L19.1328 23.138C19.5759 22.6906 20.0317 22.1329 20.6474 21.9507C21.0432 21.8335 21.585 21.8749 21.857 22.017C22.1875 22.6751 21.9629 25.3193 21.9649 26.2851C21.9671 27.1798 21.81 26.8116 21.731 27.3894L20.6722 31.2092C20.6618 31.2384 20.6507 31.2707 20.6396 31.2992C20.6288 31.3271 20.6153 31.3588 20.6037 31.3859L20.325 31.9556C20.314 31.9834 20.3026 32.0158 20.2922 32.0443L18.9617 34.8692C18.8025 35.1285 18.9363 34.9143 18.7555 35.1522C18.7402 35.1722 18.7158 35.1986 18.7007 35.2188L17.8884 36.2439C17.63 36.4957 17.1768 36.7562 17.0527 37.214C17.0643 37.5251 19.1791 40.5308 20.3288 38.8947C20.8425 38.1637 21.2337 37.2597 21.758 36.5323L22.7535 35.3251C23.0023 35.0013 22.856 35.0934 23.0787 34.7943C23.5337 34.1834 24.37 33.5126 24.924 32.9647L26.2343 32.0644C26.2589 32.0512 26.2916 32.0361 26.3165 32.0234L26.4818 31.9429C26.4848 31.9414 26.6271 31.8715 26.7285 31.8226L28.2599 31.1434C28.429 31.1195 28.8064 31.128 28.9938 31.1285C29.4958 31.1299 29.9893 31.1246 30.4899 31.1583C30.7224 31.4895 30.7048 31.3495 30.9317 31.7885C31.2296 32.3649 31.2122 34.3763 30.9836 35.03L30.1476 36.8868C29.9541 37.2677 29.7476 37.8777 29.4346 38.1342L21.4099 43.7185C20.9455 44.0628 20.5623 44.6304 20.0652 44.9474C19.3065 45.431 17.7763 46.8348 17.7355 47.6476C17.6807 48.7389 18.287 49.5118 18.9952 50.2108C19.7639 50.9697 20.2155 51.1303 22.1247 50.0008C22.2398 49.9327 22.3924 49.8037 22.4792 49.7433C25.3695 47.7304 23.7611 49.1582 27.3429 45.6661C28.5257 44.5128 28.1721 44.7229 28.8859 43.905C29.699 42.9733 30.7312 41.6559 31.2619 40.5351C31.5074 40.0167 31.353 40.164 31.8391 39.8884L33.0721 39.1544C33.2706 39.0536 33.3166 39.0282 33.4799 38.9454L34.7831 38.2806C34.9619 38.2079 34.842 38.2525 35.0621 38.1868C35.0942 38.1772 35.1282 38.1708 35.1604 38.1616C35.1923 38.1526 35.226 38.146 35.2578 38.1371L36.0947 37.8767C36.842 37.6215 39.3335 37.3869 39.8099 37.8703C40.3119 38.3797 39.8467 41.7563 39.6644 42.4987C39.4267 43.4669 38.9969 44.4646 38.6594 45.3824C38.6587 45.3845 38.4937 45.7566 38.47 45.8056L37.724 47.0071C37.7206 47.014 37.641 47.1956 37.6093 47.2629L36.8478 48.4617C36.8317 48.4823 36.8078 48.5091 36.7909 48.5287C36.5409 48.8188 36.3316 48.8159 36.3136 49.305C37.0457 49.3132 38.015 49.4487 38.6012 49.1856C38.6267 49.1742 38.657 49.1559 38.6817 49.1437C38.7061 49.1318 38.7365 49.1133 38.7604 49.101L39.3191 48.819C39.5067 48.7287 39.8027 48.5867 40.0698 48.4674C40.2802 48.3734 40.3158 48.3692 40.4655 48.2678C40.5925 48.1818 40.7189 48.0564 40.8144 47.9925C42.3162 46.9868 43.7106 45.4676 44.7674 43.9901L45.4736 42.8713C45.5492 42.7237 45.5637 42.6911 45.6383 42.5446L46.3995 41.0862C48.3624 41.0161 47.9955 41.2318 50.0675 40.7993L53.0755 39.5417C53.2745 39.4069 53.0443 39.5429 53.3067 39.4008L55.0305 38.2962C55.2108 38.1748 55.2746 38.0933 55.4197 37.9495C56.0123 37.3627 56.9082 36.6801 57.3845 35.9986L57.9254 35.1921C57.9398 35.1694 57.9558 35.1371 57.9698 35.114C57.9838 35.0908 57.9987 35.0578 58.0126 35.0347L60.1933 29.6636C60.5198 27.9594 59.8227 26.7643 59.7258 25.6799L57.7665 21.2956L55.3589 18.9321C55.017 18.6765 55.6956 19.1308 55.2096 18.8355L50.3623 16.6853L48.3792 16.3294C47.6832 16.263 48.1419 16.2432 47.7136 16.1354C47.0665 15.9724 44.2759 16.0035 43.6744 16.1982C42.9522 16.432 42.3507 16.4599 41.6352 16.6229C41.4589 16.663 41.3547 16.7203 41.0874 16.8089C40.6843 16.9425 40.3926 16.9822 39.9057 17.1065C39.3469 17.2492 38.7496 17.649 38.1782 17.8329C37.6656 17.9978 37.3734 18.2823 36.9316 18.5472L34.546 20.2064C33.9733 20.522 32.5504 21.8863 32.1657 22.4809C31.576 23.3923 31.191 23.6347 30.7148 24.8145C30.5528 25.2157 30.612 25.6408 30.6103 26.1637C30.9674 26.5354 31.304 26.8657 31.7121 27.2248L33.9554 23.9944C34.2598 23.6329 34.3205 23.6308 34.6006 23.17C35.1047 22.3405 36.2449 21.3334 37.0447 20.8441C37.725 20.4279 38.3956 19.844 39.1058 19.4739C39.3466 19.3485 39.7737 19.1609 40.0401 19.0616L41.8763 18.4195C41.9154 18.4086 42.0168 18.3688 42.0555 18.3573C42.8708 18.116 43.5665 18.0013 44.4261 18.0012C46.5838 18.0009 46.8087 18.1121 48.7306 18.5083C50.6877 18.9118 52.3405 20.2773 53.6644 21.6877C54.2501 22.3116 55.1044 23.9103 55.2747 24.7245C55.4136 25.3883 55.5517 25.9538 55.5466 26.6483C55.5373 27.9109 55.575 28.2254 55.3329 29.3565L55.1482 30.3945C54.3871 32.6308 52.779 34.5807 50.6398 35.673C47.297 37.3799 46.9826 36.3621 46.4042 36.9731C46.1562 37.2349 46.25 37.2027 46.1359 37.5738C46.0368 37.8962 46.0328 37.8866 45.9317 38.2016C45.8238 38.5381 45.8017 38.6001 45.6894 38.8162L44.4918 41.0341C43.9971 41.7891 43.7894 42.4401 43.0724 43.0563C42.4987 43.5494 41.7645 44.0816 41.0987 44.4747C41.8164 42.7599 43.1185 38.6704 42.1487 36.7822C41.1062 34.7525 40.6725 35.0454 38.6203 35.0344C37.8328 35.0302 35.9917 35.3961 35.329 35.6744C34.7871 35.902 35.0217 35.8744 34.3486 36.0433C34.0002 36.1307 33.7947 36.1977 33.3267 36.2032C33.1336 34.5348 33.594 34.2843 33.5629 33.0802Z" fill="white"/>
<path fill-rule="evenodd" clip-rule="evenodd" d="M49.847 23.8667C47.7041 23.8423 48.8166 23.608 46.0308 23.6174L42.9904 23.5688C42.0221 23.3298 42.7982 23.3766 41.2168 23.372C40.4679 23.3698 39.1479 23.192 38.7466 23.6117C38.5531 23.814 38.452 24.2238 38.3496 24.5528C38.2379 24.9119 38.2044 25.2914 38.3309 25.7308C38.537 26.4467 38.7684 27.3274 39.3997 27.1699C40.5948 26.8717 40.1046 27.0973 41.149 26.8104L42.9444 26.4935C43.92 26.4522 43.4031 26.4263 43.9642 26.2989L46.3386 25.8451C46.5944 25.7736 46.6213 25.7971 46.862 25.7456L47.8837 25.4236C48.6629 25.1756 48.5817 25.2831 49.2235 24.6901C49.4951 24.4391 49.7161 24.2319 49.847 23.8667Z" fill="white"/>
<path fill-rule="evenodd" clip-rule="evenodd" d="M40.9762 31.8482C41.6352 31.66 40.8894 31.6814 42.2048 31.6081L46.5812 30.8215C47.6979 30.5336 49.5302 30.2128 49.855 28.9597C48.5369 28.9617 46.8593 29.131 45.5978 28.7822C45.1038 28.6456 41.7587 28.7265 40.7266 28.7261C40.2078 29.6747 39.9714 29.8622 40.5263 31.2214C40.6902 31.6228 40.7603 31.5104 40.9762 31.8482Z" fill="white"/>
</svg>
