<svg width="154" height="94" viewBox="0 0 154 94" fill="none" xmlns="http://www.w3.org/2000/svg">
<path d="M7.67969 66.4688C7.67969 66.5677 7.67448 66.6536 7.66406 66.7266C7.65365 66.7995 7.63542 66.8594 7.60938 66.9062C7.58854 66.9479 7.5599 66.9792 7.52344 67C7.49219 67.0208 7.45573 67.0312 7.41406 67.0312H4.57031V75.7969C4.57031 75.8385 4.5599 75.875 4.53906 75.9062C4.51823 75.9375 4.48177 75.9635 4.42969 75.9844C4.3776 76 4.30729 76.013 4.21875 76.0234C4.13542 76.0391 4.02865 76.0469 3.89844 76.0469C3.77344 76.0469 3.66667 76.0391 3.57812 76.0234C3.48958 76.013 3.41927 76 3.36719 75.9844C3.3151 75.9635 3.27865 75.9375 3.25781 75.9062C3.23698 75.875 3.22656 75.8385 3.22656 75.7969V67.0312H0.382812C0.341146 67.0312 0.302083 67.0208 0.265625 67C0.234375 66.9792 0.208333 66.9479 0.1875 66.9062C0.166667 66.8594 0.148438 66.7995 0.132812 66.7266C0.122396 66.6536 0.117188 66.5677 0.117188 66.4688C0.117188 66.3698 0.122396 66.2839 0.132812 66.2109C0.148438 66.1328 0.166667 66.0703 0.1875 66.0234C0.208333 65.9766 0.234375 65.9427 0.265625 65.9219C0.302083 65.901 0.341146 65.8906 0.382812 65.8906H7.41406C7.45573 65.8906 7.49219 65.901 7.52344 65.9219C7.5599 65.9427 7.58854 65.9766 7.60938 66.0234C7.63542 66.0703 7.65365 66.1328 7.66406 66.2109C7.67448 66.2839 7.67969 66.3698 7.67969 66.4688Z" fill="#FF7F00" fill-opacity="0.84"/>
<path d="M13.1328 75.8125C13.1328 75.875 13.112 75.9219 13.0703 75.9531C13.0286 75.9844 12.9714 76.0078 12.8984 76.0234C12.8255 76.0391 12.7188 76.0469 12.5781 76.0469C12.4427 76.0469 12.3333 76.0391 12.25 76.0234C12.1719 76.0078 12.1146 75.9844 12.0781 75.9531C12.0417 75.9219 12.0234 75.875 12.0234 75.8125V75.1094C11.7161 75.4375 11.3724 75.6927 10.9922 75.875C10.6172 76.0573 10.2188 76.1484 9.79688 76.1484C9.42708 76.1484 9.09115 76.099 8.78906 76C8.49219 75.9062 8.23698 75.7682 8.02344 75.5859C7.8151 75.4036 7.65104 75.1797 7.53125 74.9141C7.41667 74.6484 7.35938 74.3464 7.35938 74.0078C7.35938 73.612 7.4401 73.2682 7.60156 72.9766C7.76302 72.6849 7.99479 72.4427 8.29688 72.25C8.59896 72.0573 8.96875 71.9141 9.40625 71.8203C9.84375 71.7214 10.3359 71.6719 10.8828 71.6719H11.8516V71.125C11.8516 70.8542 11.8229 70.6146 11.7656 70.4062C11.7083 70.1979 11.6146 70.026 11.4844 69.8906C11.3594 69.75 11.1953 69.6458 10.9922 69.5781C10.7891 69.5052 10.5391 69.4688 10.2422 69.4688C9.92448 69.4688 9.63802 69.5078 9.38281 69.5859C9.13281 69.6589 8.91146 69.7422 8.71875 69.8359C8.53125 69.9245 8.3724 70.0078 8.24219 70.0859C8.11719 70.1589 8.02344 70.1953 7.96094 70.1953C7.91927 70.1953 7.88281 70.1849 7.85156 70.1641C7.82031 70.1432 7.79167 70.112 7.76562 70.0703C7.74479 70.0286 7.72917 69.9766 7.71875 69.9141C7.70833 69.8464 7.70312 69.7734 7.70312 69.6953C7.70312 69.5651 7.71094 69.4635 7.72656 69.3906C7.7474 69.3125 7.79167 69.2396 7.85938 69.1719C7.93229 69.1042 8.05469 69.026 8.22656 68.9375C8.39844 68.8438 8.59635 68.7604 8.82031 68.6875C9.04427 68.6094 9.28906 68.5469 9.55469 68.5C9.82031 68.4479 10.0885 68.4219 10.3594 68.4219C10.8646 68.4219 11.2943 68.4792 11.6484 68.5938C12.0026 68.7083 12.2891 68.8776 12.5078 69.1016C12.7266 69.3203 12.8854 69.5938 12.9844 69.9219C13.0833 70.25 13.1328 70.6328 13.1328 71.0703V75.8125ZM11.8516 72.6016H10.75C10.3958 72.6016 10.0885 72.6328 9.82812 72.6953C9.56771 72.7526 9.35156 72.8411 9.17969 72.9609C9.00781 73.0755 8.88021 73.2161 8.79688 73.3828C8.71875 73.5443 8.67969 73.7318 8.67969 73.9453C8.67969 74.3099 8.79427 74.6016 9.02344 74.8203C9.25781 75.0339 9.58333 75.1406 10 75.1406C10.3385 75.1406 10.651 75.0547 10.9375 74.8828C11.2292 74.7109 11.5339 74.4479 11.8516 74.0938V72.6016Z" fill="#FF7F00" fill-opacity="0.84"/>
<path d="M24.3828 75.7344C24.388 75.849 24.3516 75.9297 24.2734 75.9766C24.1953 76.0234 24.0365 76.0469 23.7969 76.0469C23.6667 76.0469 23.5599 76.0443 23.4766 76.0391C23.3932 76.0339 23.3281 76.0234 23.2812 76.0078C23.2344 75.9922 23.2005 75.9714 23.1797 75.9453C23.1641 75.9141 23.1536 75.875 23.1484 75.8281L22.6406 71.7266C22.625 71.5807 22.6094 71.4245 22.5938 71.2578C22.5781 71.0911 22.5625 70.9219 22.5469 70.75C22.5312 70.5781 22.5156 70.4062 22.5 70.2344C22.4896 70.0625 22.4766 69.901 22.4609 69.75L22.4531 69.5703C22.4062 69.7214 22.3568 69.8802 22.3047 70.0469C22.2526 70.2135 22.1953 70.3828 22.1328 70.5547C22.0755 70.7266 22.0182 70.8984 21.9609 71.0703C21.9089 71.2422 21.8594 71.4036 21.8125 71.5547L20.3359 75.7188C20.3151 75.7812 20.2891 75.8333 20.2578 75.875C20.2318 75.9167 20.1927 75.9505 20.1406 75.9766C20.0938 76.0026 20.0312 76.0208 19.9531 76.0312C19.8802 76.0417 19.7891 76.0469 19.6797 76.0469C19.5703 76.0469 19.4792 76.0417 19.4062 76.0312C19.3333 76.0208 19.2708 76.0052 19.2188 75.9844C19.1719 75.9583 19.1328 75.9245 19.1016 75.8828C19.0703 75.8411 19.0443 75.7891 19.0234 75.7266L17.6016 71.5547C17.5495 71.4089 17.4948 71.2526 17.4375 71.0859C17.3854 70.9193 17.3307 70.75 17.2734 70.5781C17.2214 70.401 17.1693 70.2266 17.1172 70.0547C17.0651 69.8828 17.0208 69.7214 16.9844 69.5703L16.9766 69.75C16.9609 69.901 16.9453 70.0625 16.9297 70.2344C16.9141 70.4062 16.8958 70.5781 16.875 70.75C16.8594 70.9219 16.8411 71.0911 16.8203 71.2578C16.8047 71.4245 16.7917 71.5807 16.7812 71.7266L16.2969 75.7578C16.2917 75.8203 16.2786 75.8724 16.2578 75.9141C16.2422 75.9505 16.2083 75.9792 16.1562 76C16.1042 76.0156 16.0365 76.026 15.9531 76.0312C15.8698 76.0417 15.7604 76.0469 15.625 76.0469C15.4948 76.0469 15.3906 76.0417 15.3125 76.0312C15.2396 76.0208 15.1823 76.0026 15.1406 75.9766C15.1042 75.9505 15.0807 75.9193 15.0703 75.8828C15.0599 75.8411 15.0599 75.7917 15.0703 75.7344L15.8438 69.0781C15.8698 68.9115 15.9271 68.7865 16.0156 68.7031C16.1094 68.6146 16.2474 68.5703 16.4297 68.5703H17.0469C17.1979 68.5703 17.3255 68.5833 17.4297 68.6094C17.5391 68.6302 17.6302 68.6693 17.7031 68.7266C17.7812 68.7839 17.8464 68.862 17.8984 68.9609C17.9505 69.0547 18 69.1745 18.0469 69.3203L19.0859 72.3125C19.1432 72.4948 19.2031 72.6797 19.2656 72.8672C19.3281 73.0495 19.3854 73.2318 19.4375 73.4141C19.4948 73.5911 19.5469 73.7656 19.5938 73.9375C19.6458 74.1094 19.6927 74.2734 19.7344 74.4297H19.75C19.7969 74.2682 19.8438 74.099 19.8906 73.9219C19.9427 73.7396 19.9974 73.5573 20.0547 73.375C20.112 73.1875 20.1693 73.0026 20.2266 72.8203C20.2891 72.638 20.349 72.4635 20.4062 72.2969L21.4453 69.3203C21.487 69.1901 21.5312 69.0781 21.5781 68.9844C21.6302 68.8854 21.6927 68.8073 21.7656 68.75C21.8385 68.6875 21.9245 68.6432 22.0234 68.6172C22.1276 68.5859 22.2526 68.5703 22.3984 68.5703H23.0078C23.1953 68.5703 23.3359 68.6094 23.4297 68.6875C23.5286 68.7656 23.5859 68.8906 23.6016 69.0625L24.3828 75.7344Z" fill="#FF7F00" fill-opacity="0.84"/>
<path d="M28.0391 74.8828C28.0391 75.0443 28.0312 75.1927 28.0156 75.3281C28 75.4635 27.974 75.5911 27.9375 75.7109C27.901 75.8307 27.8516 75.9479 27.7891 76.0625C27.7318 76.1823 27.6589 76.3073 27.5703 76.4375L26.5 78.0469C26.474 78.0833 26.4427 78.1146 26.4062 78.1406C26.375 78.1667 26.3333 78.1901 26.2812 78.2109C26.2344 78.2318 26.1771 78.2448 26.1094 78.25C26.0469 78.2604 25.9661 78.2656 25.8672 78.2656C25.7786 78.2656 25.7031 78.2604 25.6406 78.25C25.5833 78.2448 25.5417 78.2318 25.5156 78.2109C25.4896 78.1953 25.474 78.1719 25.4688 78.1406C25.4688 78.1094 25.4792 78.0729 25.5 78.0312L26.5391 75.8828V74.8828C26.5391 74.7422 26.5521 74.6302 26.5781 74.5469C26.6094 74.4635 26.6562 74.401 26.7188 74.3594C26.7812 74.3177 26.8594 74.2891 26.9531 74.2734C27.0469 74.2578 27.1615 74.25 27.2969 74.25C27.4271 74.25 27.5391 74.2578 27.6328 74.2734C27.7266 74.2891 27.8021 74.3177 27.8594 74.3594C27.9219 74.401 27.9661 74.4635 27.9922 74.5469C28.0234 74.6302 28.0391 74.7422 28.0391 74.8828Z" fill="#FF7F00" fill-opacity="0.84"/>
<path d="M38.1562 69.1484C38.1562 69.2526 38.1484 69.3411 38.1328 69.4141C38.1224 69.487 38.1042 69.5469 38.0781 69.5938C38.0573 69.6406 38.0312 69.6745 38 69.6953C37.974 69.7161 37.9401 69.7266 37.8984 69.7266H35.25V75.8047C35.25 75.8464 35.2396 75.8828 35.2188 75.9141C35.1979 75.9401 35.1641 75.9635 35.1172 75.9844C35.0703 76.0052 35.0052 76.0208 34.9219 76.0312C34.8385 76.0417 34.7318 76.0469 34.6016 76.0469C34.4766 76.0469 34.3724 76.0417 34.2891 76.0312C34.2057 76.0208 34.138 76.0052 34.0859 75.9844C34.0391 75.9635 34.0052 75.9401 33.9844 75.9141C33.9688 75.8828 33.9609 75.8464 33.9609 75.8047V69.0312C33.9609 68.875 33.9948 68.7604 34.0625 68.6875C34.1354 68.6094 34.2344 68.5703 34.3594 68.5703H37.8984C37.9401 68.5703 37.974 68.5833 38 68.6094C38.0312 68.6302 38.0573 68.6667 38.0781 68.7188C38.1042 68.7656 38.1224 68.8255 38.1328 68.8984C38.1484 68.9661 38.1562 69.0495 38.1562 69.1484Z" fill="#FF7F00" fill-opacity="0.84"/>
<path d="M38.7891 78.3594C38.7891 78.3958 38.7812 78.4245 38.7656 78.4453C38.75 78.4714 38.7188 78.4922 38.6719 78.5078C38.6302 78.5234 38.5755 78.5365 38.5078 78.5469C38.4401 78.5573 38.3568 78.5625 38.2578 78.5625C38.1484 78.5625 38.0573 78.5573 37.9844 78.5469C37.9167 78.5365 37.8594 78.5234 37.8125 78.5078C37.7708 78.4922 37.7396 78.4714 37.7188 78.4453C37.7031 78.4245 37.6953 78.3958 37.6953 78.3594V75.2266C37.6953 75.0964 37.7161 75.0104 37.7578 74.9688C37.7995 74.9271 37.8802 74.9062 38 74.9062H38.5C38.6927 74.6719 38.8724 74.4036 39.0391 74.1016C39.2057 73.7995 39.3594 73.4219 39.5 72.9688C39.6458 72.5104 39.7786 71.9609 39.8984 71.3203C40.0182 70.6797 40.1276 69.9141 40.2266 69.0234C40.237 68.9505 40.25 68.8854 40.2656 68.8281C40.2865 68.7656 40.3125 68.7188 40.3438 68.6875C40.3802 68.651 40.4219 68.6224 40.4688 68.6016C40.5156 68.5807 40.5703 68.5703 40.6328 68.5703H44.5391C44.6641 68.5703 44.7604 68.6094 44.8281 68.6875C44.901 68.7604 44.9375 68.875 44.9375 69.0312V74.9062H45.9141C46.0234 74.9062 46.1016 74.9271 46.1484 74.9688C46.1953 75.0104 46.2188 75.0964 46.2188 75.2266V78.3594C46.2188 78.3958 46.2109 78.4245 46.1953 78.4453C46.1797 78.4714 46.1484 78.4922 46.1016 78.5078C46.0599 78.5234 46.0026 78.5365 45.9297 78.5469C45.8568 78.5573 45.7708 78.5625 45.6719 78.5625C45.5677 78.5625 45.4818 78.5573 45.4141 78.5469C45.3464 78.5365 45.2891 78.5234 45.2422 78.5078C45.2005 78.4922 45.1693 78.4714 45.1484 78.4453C45.1328 78.4245 45.125 78.3958 45.125 78.3594V76H38.7891V78.3594ZM43.6406 69.6328H41.4141C41.3047 70.4818 41.1901 71.1979 41.0703 71.7812C40.9557 72.3646 40.8307 72.8568 40.6953 73.2578C40.5651 73.6589 40.4271 73.987 40.2812 74.2422C40.1354 74.4922 39.9844 74.7135 39.8281 74.9062H43.6406V69.6328Z" fill="#FF7F00" fill-opacity="0.84"/>
<path d="M53.4922 71.9844C53.4922 72.1875 53.4401 72.3333 53.3359 72.4219C53.237 72.5052 53.1224 72.5469 52.9922 72.5469H48.3828C48.3828 72.9375 48.4219 73.2891 48.5 73.6016C48.5781 73.9141 48.7083 74.1823 48.8906 74.4062C49.0729 74.6302 49.3099 74.8021 49.6016 74.9219C49.8932 75.0417 50.25 75.1016 50.6719 75.1016C51.0052 75.1016 51.3021 75.0755 51.5625 75.0234C51.8229 74.9661 52.0469 74.9036 52.2344 74.8359C52.4271 74.7682 52.5833 74.7083 52.7031 74.6562C52.8281 74.599 52.9219 74.5703 52.9844 74.5703C53.0208 74.5703 53.0521 74.5807 53.0781 74.6016C53.1094 74.6172 53.1328 74.6432 53.1484 74.6797C53.1641 74.7161 53.1745 74.7682 53.1797 74.8359C53.1901 74.8984 53.1953 74.9766 53.1953 75.0703C53.1953 75.138 53.1927 75.1979 53.1875 75.25C53.1823 75.2969 53.1745 75.3411 53.1641 75.3828C53.1589 75.4193 53.1458 75.4531 53.125 75.4844C53.1094 75.5156 53.0859 75.5469 53.0547 75.5781C53.0286 75.6042 52.9453 75.651 52.8047 75.7188C52.6641 75.7812 52.4818 75.8438 52.2578 75.9062C52.0339 75.9688 51.7734 76.0234 51.4766 76.0703C51.1849 76.1224 50.8724 76.1484 50.5391 76.1484C49.9609 76.1484 49.4531 76.0677 49.0156 75.9062C48.5833 75.7448 48.2188 75.5052 47.9219 75.1875C47.625 74.8698 47.401 74.4714 47.25 73.9922C47.099 73.513 47.0234 72.9557 47.0234 72.3203C47.0234 71.7161 47.1016 71.1745 47.2578 70.6953C47.4141 70.2109 47.638 69.8021 47.9297 69.4688C48.2266 69.1302 48.5833 68.8724 49 68.6953C49.4167 68.513 49.8828 68.4219 50.3984 68.4219C50.9505 68.4219 51.4193 68.5104 51.8047 68.6875C52.1953 68.8646 52.5156 69.1042 52.7656 69.4062C53.0156 69.7031 53.1979 70.0547 53.3125 70.4609C53.4323 70.862 53.4922 71.2917 53.4922 71.75V71.9844ZM52.1953 71.6016C52.2109 70.9245 52.0599 70.3932 51.7422 70.0078C51.4297 69.6224 50.9635 69.4297 50.3438 69.4297C50.026 69.4297 49.7474 69.4896 49.5078 69.6094C49.2682 69.7292 49.0677 69.888 48.9062 70.0859C48.7448 70.2839 48.6198 70.5156 48.5312 70.7812C48.4427 71.0417 48.3932 71.3151 48.3828 71.6016H52.1953Z" fill="#FF7F00" fill-opacity="0.84"/>
<path d="M65.8984 73.1016C65.8984 73.4193 65.8568 73.7135 65.7734 73.9844C65.6953 74.25 65.5833 74.4896 65.4375 74.7031C65.2917 74.9167 65.1146 75.1042 64.9062 75.2656C64.7031 75.4271 64.4714 75.5625 64.2109 75.6719C63.9557 75.7812 63.6797 75.8646 63.3828 75.9219C63.0911 75.974 62.7552 76 62.375 76H59.7344C59.6146 76 59.5 75.9609 59.3906 75.8828C59.2865 75.7995 59.2344 75.6562 59.2344 75.4531V66.4375C59.2344 66.2344 59.2865 66.0938 59.3906 66.0156C59.5 65.9323 59.6146 65.8906 59.7344 65.8906H62.0312C62.6354 65.8906 63.1302 65.9479 63.5156 66.0625C63.901 66.1771 64.2214 66.3438 64.4766 66.5625C64.737 66.7812 64.9323 67.0495 65.0625 67.3672C65.1927 67.6849 65.2578 68.0443 65.2578 68.4453C65.2578 68.6849 65.2292 68.9141 65.1719 69.1328C65.1146 69.3516 65.0286 69.5547 64.9141 69.7422C64.8047 69.9245 64.6641 70.0885 64.4922 70.2344C64.3255 70.3802 64.1328 70.5 63.9141 70.5938C64.1901 70.6458 64.4479 70.7422 64.6875 70.8828C64.9271 71.0182 65.1354 71.1927 65.3125 71.4062C65.4948 71.6198 65.638 71.8698 65.7422 72.1562C65.8464 72.4427 65.8984 72.7578 65.8984 73.1016ZM63.875 68.5781C63.875 68.3333 63.8411 68.112 63.7734 67.9141C63.7057 67.7161 63.599 67.5495 63.4531 67.4141C63.3073 67.2734 63.1172 67.1667 62.8828 67.0938C62.6484 67.0208 62.3385 66.9844 61.9531 66.9844H60.5625V70.2578H62.0938C62.4427 70.2578 62.724 70.2135 62.9375 70.125C63.151 70.0312 63.3281 69.9089 63.4688 69.7578C63.6094 69.6016 63.7109 69.4219 63.7734 69.2188C63.8411 69.0104 63.875 68.7969 63.875 68.5781ZM64.4844 73.1797C64.4844 72.8776 64.4349 72.612 64.3359 72.3828C64.2422 72.1536 64.1016 71.9609 63.9141 71.8047C63.7318 71.6484 63.5 71.5312 63.2188 71.4531C62.9427 71.3698 62.5938 71.3281 62.1719 71.3281H60.5625V74.8906H62.5156C62.8229 74.8906 63.0911 74.8542 63.3203 74.7812C63.5495 74.7083 63.75 74.6016 63.9219 74.4609C64.099 74.3151 64.237 74.1354 64.3359 73.9219C64.4349 73.7083 64.4844 73.4609 64.4844 73.1797Z" fill="#FF7F00" fill-opacity="0.84"/>
<path d="M76.0547 75.8047C76.0547 75.8464 76.0443 75.8828 76.0234 75.9141C76.0026 75.9401 75.9688 75.9635 75.9219 75.9844C75.875 76.0052 75.8099 76.0208 75.7266 76.0312C75.6432 76.0417 75.5365 76.0469 75.4062 76.0469C75.2812 76.0469 75.1771 76.0417 75.0938 76.0312C75.0104 76.0208 74.9427 76.0052 74.8906 75.9844C74.8438 75.9635 74.8099 75.9401 74.7891 75.9141C74.7734 75.8828 74.7656 75.8464 74.7656 75.8047V68.7734C74.7656 68.7318 74.7734 68.6979 74.7891 68.6719C74.8099 68.6406 74.8438 68.6146 74.8906 68.5938C74.9427 68.5677 75.0104 68.5521 75.0938 68.5469C75.1771 68.5365 75.2812 68.5312 75.4062 68.5312C75.5365 68.5312 75.6432 68.5365 75.7266 68.5469C75.8099 68.5521 75.875 68.5677 75.9219 68.5938C75.9688 68.6146 76.0026 68.6406 76.0234 68.6719C76.0443 68.6979 76.0547 68.7318 76.0547 68.7734V75.8047ZM69.0781 71.25C69.2708 71.2344 69.4635 71.224 69.6562 71.2188C69.8542 71.2083 70.0677 71.2031 70.2969 71.2031C70.8542 71.2031 71.3307 71.2604 71.7266 71.375C72.1224 71.4844 72.4479 71.6432 72.7031 71.8516C72.9635 72.0599 73.1536 72.3099 73.2734 72.6016C73.3932 72.888 73.4531 73.2109 73.4531 73.5703C73.4531 73.9297 73.388 74.2656 73.2578 74.5781C73.1328 74.8906 72.9323 75.1615 72.6562 75.3906C72.3854 75.6198 72.0365 75.8021 71.6094 75.9375C71.1823 76.0677 70.6693 76.1328 70.0703 76.1328C69.9297 76.1328 69.7891 76.1302 69.6484 76.125C69.5078 76.125 69.3698 76.1198 69.2344 76.1094C69.099 76.1042 68.9635 76.0964 68.8281 76.0859C68.6979 76.0755 68.5651 76.0625 68.4297 76.0469C68.2109 76.0208 68.0495 75.9505 67.9453 75.8359C67.8411 75.7214 67.7891 75.5469 67.7891 75.3125V68.7734C67.7891 68.7318 67.7969 68.6979 67.8125 68.6719C67.8333 68.6406 67.8672 68.6146 67.9141 68.5938C67.9661 68.5677 68.0312 68.5521 68.1094 68.5469C68.1927 68.5365 68.2943 68.5312 68.4141 68.5312C68.6641 68.5312 68.8359 68.5521 68.9297 68.5938C69.0286 68.6302 69.0781 68.6901 69.0781 68.7734V71.25ZM72.1094 73.6562C72.1094 73.4427 72.0755 73.25 72.0078 73.0781C71.9453 72.901 71.8385 72.7526 71.6875 72.6328C71.5417 72.5078 71.3464 72.4141 71.1016 72.3516C70.8568 72.2839 70.5573 72.25 70.2031 72.25C69.9896 72.25 69.7917 72.2552 69.6094 72.2656C69.4271 72.276 69.25 72.2891 69.0781 72.3047V75.0078C69.2604 75.0286 69.4401 75.0469 69.6172 75.0625C69.7943 75.0781 70.0104 75.0859 70.2656 75.0859C70.901 75.0859 71.3672 74.9609 71.6641 74.7109C71.9609 74.4557 72.1094 74.1042 72.1094 73.6562Z" fill="#FF7F00" fill-opacity="0.84"/>
<path d="M88.0078 75.8047C88.0078 75.8464 87.9974 75.8828 87.9766 75.9141C87.9557 75.9401 87.9219 75.9635 87.875 75.9844C87.8281 76.0052 87.763 76.0208 87.6797 76.0312C87.5964 76.0417 87.4922 76.0469 87.3672 76.0469C87.237 76.0469 87.1302 76.0417 87.0469 76.0312C86.9635 76.0208 86.8958 76.0052 86.8438 75.9844C86.7969 75.9635 86.763 75.9401 86.7422 75.9141C86.7214 75.8828 86.7109 75.8464 86.7109 75.8047V69.6641H83.3594V75.8047C83.3594 75.8464 83.349 75.8828 83.3281 75.9141C83.3073 75.9401 83.2708 75.9635 83.2188 75.9844C83.1719 76.0052 83.1068 76.0208 83.0234 76.0312C82.9401 76.0417 82.8359 76.0469 82.7109 76.0469C82.5859 76.0469 82.4818 76.0417 82.3984 76.0312C82.3151 76.0208 82.2474 76.0052 82.1953 75.9844C82.1484 75.9635 82.1146 75.9401 82.0938 75.9141C82.0781 75.8828 82.0703 75.8464 82.0703 75.8047V69.0312C82.0703 68.875 82.1042 68.7604 82.1719 68.6875C82.2448 68.6094 82.3438 68.5703 82.4688 68.5703H87.6172C87.7422 68.5703 87.8385 68.6094 87.9062 68.6875C87.974 68.7604 88.0078 68.875 88.0078 69.0312V75.8047Z" fill="#FF7F00" fill-opacity="0.84"/>
<path d="M96.9375 72.2109C96.9375 72.7839 96.862 73.3125 96.7109 73.7969C96.5599 74.276 96.3333 74.6901 96.0312 75.0391C95.7344 75.388 95.3594 75.6615 94.9062 75.8594C94.4583 76.0521 93.9375 76.1484 93.3438 76.1484C92.7656 76.1484 92.2604 76.0625 91.8281 75.8906C91.401 75.7188 91.0443 75.4688 90.7578 75.1406C90.4714 74.8125 90.2578 74.4141 90.1172 73.9453C89.9766 73.4766 89.9062 72.9453 89.9062 72.3516C89.9062 71.7786 89.9792 71.2526 90.125 70.7734C90.276 70.2891 90.5 69.8724 90.7969 69.5234C91.099 69.1745 91.474 68.9036 91.9219 68.7109C92.3698 68.5182 92.8932 68.4219 93.4922 68.4219C94.0703 68.4219 94.5729 68.5078 95 68.6797C95.4323 68.8516 95.7917 69.1016 96.0781 69.4297C96.3646 69.7578 96.5781 70.1562 96.7188 70.625C96.8646 71.0938 96.9375 71.6224 96.9375 72.2109ZM95.5781 72.2969C95.5781 71.9167 95.5417 71.5573 95.4688 71.2188C95.401 70.8802 95.2865 70.5833 95.125 70.3281C94.9635 70.0729 94.7448 69.8724 94.4688 69.7266C94.1927 69.5755 93.849 69.5 93.4375 69.5C93.0573 69.5 92.7292 69.5677 92.4531 69.7031C92.1823 69.8385 91.9583 70.0312 91.7812 70.2812C91.6042 70.526 91.4714 70.8177 91.3828 71.1562C91.2995 71.4948 91.2578 71.8646 91.2578 72.2656C91.2578 72.651 91.2917 73.013 91.3594 73.3516C91.4323 73.6901 91.5495 73.987 91.7109 74.2422C91.8776 74.4922 92.099 74.6927 92.375 74.8438C92.651 74.9896 92.9948 75.0625 93.4062 75.0625C93.7812 75.0625 94.1068 74.9948 94.3828 74.8594C94.6589 74.724 94.8854 74.5339 95.0625 74.2891C95.2396 74.0443 95.3698 73.7526 95.4531 73.4141C95.5365 73.0755 95.5781 72.7031 95.5781 72.2969Z" fill="#FF7F00" fill-opacity="0.84"/>
<path d="M108.023 75.8594C108.023 75.8906 108.013 75.9193 107.992 75.9453C107.971 75.9661 107.935 75.9844 107.883 76C107.836 76.0156 107.771 76.026 107.688 76.0312C107.609 76.0417 107.508 76.0469 107.383 76.0469C107.237 76.0469 107.117 76.0417 107.023 76.0312C106.935 76.0208 106.862 76.0078 106.805 75.9922C106.753 75.9714 106.714 75.9479 106.688 75.9219C106.661 75.8906 106.641 75.8568 106.625 75.8203L105.875 74.0078C105.776 73.7734 105.672 73.5729 105.562 73.4062C105.458 73.2344 105.341 73.0964 105.211 72.9922C105.081 72.888 104.93 72.8125 104.758 72.7656C104.591 72.7135 104.393 72.6875 104.164 72.6875H103.641V75.8672C103.641 75.8932 103.628 75.9193 103.602 75.9453C103.576 75.9661 103.536 75.9844 103.484 76C103.432 76.0156 103.365 76.026 103.281 76.0312C103.203 76.0417 103.109 76.0469 103 76.0469C102.891 76.0469 102.794 76.0417 102.711 76.0312C102.628 76.026 102.56 76.0156 102.508 76C102.456 75.9844 102.417 75.9661 102.391 75.9453C102.365 75.9193 102.352 75.8932 102.352 75.8672V72.6875H101.828C101.599 72.6875 101.398 72.7135 101.227 72.7656C101.055 72.8125 100.901 72.888 100.766 72.9922C100.63 73.0964 100.508 73.2344 100.398 73.4062C100.294 73.5729 100.193 73.7734 100.094 74.0078L99.3438 75.8203C99.3333 75.8568 99.3125 75.8906 99.2812 75.9219C99.2552 75.9479 99.2161 75.9714 99.1641 75.9922C99.1172 76.0078 99.0469 76.0208 98.9531 76.0312C98.8646 76.0417 98.75 76.0469 98.6094 76.0469C98.4896 76.0469 98.388 76.0417 98.3047 76.0312C98.2214 76.026 98.1536 76.0156 98.1016 76C98.0547 75.9844 98.0208 75.9661 98 75.9453C97.9792 75.9193 97.9688 75.8906 97.9688 75.8594C97.9688 75.8281 97.974 75.7891 97.9844 75.7422C98 75.6901 98.026 75.625 98.0625 75.5469L98.8359 73.7734C98.9349 73.5391 99.0417 73.3333 99.1562 73.1562C99.2708 72.9792 99.3906 72.8255 99.5156 72.6953C99.6458 72.5651 99.7839 72.4557 99.9297 72.3672C100.081 72.2734 100.245 72.1979 100.422 72.1406V72.125C100.297 72.0833 100.172 72.0312 100.047 71.9688C99.9271 71.901 99.8073 71.8099 99.6875 71.6953C99.5677 71.5755 99.4505 71.4271 99.3359 71.25C99.2214 71.0729 99.1094 70.8542 99 70.5938L98.3516 69.0391C98.3255 68.9714 98.3047 68.9115 98.2891 68.8594C98.2734 68.8073 98.2656 68.7578 98.2656 68.7109C98.2656 68.6849 98.2734 68.6615 98.2891 68.6406C98.3099 68.6146 98.3411 68.5938 98.3828 68.5781C98.4297 68.5625 98.4922 68.5521 98.5703 68.5469C98.6536 68.5365 98.7578 68.5312 98.8828 68.5312C99.0234 68.5312 99.1406 68.5365 99.2344 68.5469C99.3281 68.5521 99.4036 68.5651 99.4609 68.5859C99.5182 68.6068 99.5599 68.6328 99.5859 68.6641C99.6172 68.6953 99.638 68.7318 99.6484 68.7734L100.266 70.3984C100.354 70.6224 100.445 70.8151 100.539 70.9766C100.638 71.138 100.75 71.2708 100.875 71.375C101 71.474 101.138 71.5469 101.289 71.5938C101.445 71.6354 101.625 71.6562 101.828 71.6562H102.352V68.7031C102.352 68.6771 102.365 68.6536 102.391 68.6328C102.417 68.6068 102.456 68.5885 102.508 68.5781C102.56 68.5625 102.628 68.5521 102.711 68.5469C102.794 68.5365 102.891 68.5312 103 68.5312C103.109 68.5312 103.203 68.5365 103.281 68.5469C103.365 68.5521 103.432 68.5625 103.484 68.5781C103.536 68.5885 103.576 68.6068 103.602 68.6328C103.628 68.6536 103.641 68.6771 103.641 68.7031V71.6562H104.164C104.367 71.6562 104.547 71.6328 104.703 71.5859C104.859 71.5391 105 71.4661 105.125 71.3672C105.255 71.263 105.37 71.1328 105.469 70.9766C105.573 70.8151 105.669 70.6224 105.758 70.3984L106.414 68.7734C106.435 68.7318 106.456 68.6953 106.477 68.6641C106.503 68.6328 106.539 68.6068 106.586 68.5859C106.638 68.5651 106.706 68.5521 106.789 68.5469C106.878 68.5365 106.992 68.5312 107.133 68.5312C107.258 68.5312 107.359 68.5365 107.438 68.5469C107.521 68.5521 107.583 68.5625 107.625 68.5781C107.672 68.5938 107.703 68.6146 107.719 68.6406C107.74 68.6615 107.75 68.6849 107.75 68.7109C107.75 68.7578 107.742 68.8073 107.727 68.8594C107.711 68.9115 107.69 68.9714 107.664 69.0391L106.992 70.5938C106.883 70.8542 106.768 71.0729 106.648 71.25C106.534 71.4219 106.417 71.5651 106.297 71.6797C106.177 71.7943 106.057 71.8854 105.938 71.9531C105.823 72.0208 105.706 72.0729 105.586 72.1094V72.125C105.763 72.1875 105.924 72.263 106.07 72.3516C106.221 72.4401 106.359 72.5521 106.484 72.6875C106.615 72.8177 106.734 72.974 106.844 73.1562C106.953 73.3333 107.06 73.5391 107.164 73.7734L107.93 75.5469C107.945 75.5833 107.958 75.6172 107.969 75.6484C107.984 75.6797 107.995 75.7109 108 75.7422C108.005 75.7682 108.01 75.7917 108.016 75.8125C108.021 75.8281 108.023 75.8438 108.023 75.8594Z" fill="#FF7F00" fill-opacity="0.84"/>
<path d="M115.523 71.9844C115.523 72.1875 115.471 72.3333 115.367 72.4219C115.268 72.5052 115.154 72.5469 115.023 72.5469H110.414C110.414 72.9375 110.453 73.2891 110.531 73.6016C110.609 73.9141 110.74 74.1823 110.922 74.4062C111.104 74.6302 111.341 74.8021 111.633 74.9219C111.924 75.0417 112.281 75.1016 112.703 75.1016C113.036 75.1016 113.333 75.0755 113.594 75.0234C113.854 74.9661 114.078 74.9036 114.266 74.8359C114.458 74.7682 114.615 74.7083 114.734 74.6562C114.859 74.599 114.953 74.5703 115.016 74.5703C115.052 74.5703 115.083 74.5807 115.109 74.6016C115.141 74.6172 115.164 74.6432 115.18 74.6797C115.195 74.7161 115.206 74.7682 115.211 74.8359C115.221 74.8984 115.227 74.9766 115.227 75.0703C115.227 75.138 115.224 75.1979 115.219 75.25C115.214 75.2969 115.206 75.3411 115.195 75.3828C115.19 75.4193 115.177 75.4531 115.156 75.4844C115.141 75.5156 115.117 75.5469 115.086 75.5781C115.06 75.6042 114.977 75.651 114.836 75.7188C114.695 75.7812 114.513 75.8438 114.289 75.9062C114.065 75.9688 113.805 76.0234 113.508 76.0703C113.216 76.1224 112.904 76.1484 112.57 76.1484C111.992 76.1484 111.484 76.0677 111.047 75.9062C110.615 75.7448 110.25 75.5052 109.953 75.1875C109.656 74.8698 109.432 74.4714 109.281 73.9922C109.13 73.513 109.055 72.9557 109.055 72.3203C109.055 71.7161 109.133 71.1745 109.289 70.6953C109.445 70.2109 109.669 69.8021 109.961 69.4688C110.258 69.1302 110.615 68.8724 111.031 68.6953C111.448 68.513 111.914 68.4219 112.43 68.4219C112.982 68.4219 113.451 68.5104 113.836 68.6875C114.227 68.8646 114.547 69.1042 114.797 69.4062C115.047 69.7031 115.229 70.0547 115.344 70.4609C115.464 70.862 115.523 71.2917 115.523 71.75V71.9844ZM114.227 71.6016C114.242 70.9245 114.091 70.3932 113.773 70.0078C113.461 69.6224 112.995 69.4297 112.375 69.4297C112.057 69.4297 111.779 69.4896 111.539 69.6094C111.299 69.7292 111.099 69.888 110.938 70.0859C110.776 70.2839 110.651 70.5156 110.562 70.7812C110.474 71.0417 110.424 71.3151 110.414 71.6016H114.227Z" fill="#FF7F00" fill-opacity="0.84"/>
<path d="M123 75.8047C123 75.8464 122.99 75.8828 122.969 75.9141C122.948 75.9401 122.914 75.9635 122.867 75.9844C122.82 76.0052 122.755 76.0208 122.672 76.0312C122.589 76.0417 122.484 76.0469 122.359 76.0469C122.229 76.0469 122.122 76.0417 122.039 76.0312C121.956 76.0208 121.888 76.0052 121.836 75.9844C121.789 75.9635 121.755 75.9401 121.734 75.9141C121.714 75.8828 121.703 75.8464 121.703 75.8047V69.6641H119.766C119.682 70.4922 119.581 71.2292 119.461 71.875C119.346 72.5208 119.216 73.0833 119.07 73.5625C118.924 74.0417 118.76 74.4453 118.578 74.7734C118.396 75.1016 118.195 75.3672 117.977 75.5703C117.763 75.7682 117.529 75.9115 117.273 76C117.023 76.0885 116.755 76.1328 116.469 76.1328C116.422 76.1328 116.38 76.125 116.344 76.1094C116.312 76.0938 116.286 76.0651 116.266 76.0234C116.245 75.9818 116.229 75.9245 116.219 75.8516C116.208 75.7734 116.203 75.6745 116.203 75.5547C116.203 75.4297 116.206 75.3281 116.211 75.25C116.221 75.1719 116.234 75.1094 116.25 75.0625C116.271 75.0156 116.294 74.9844 116.32 74.9688C116.352 74.9531 116.388 74.9453 116.43 74.9453C116.602 74.9453 116.766 74.9062 116.922 74.8281C117.078 74.7448 117.224 74.612 117.359 74.4297C117.495 74.2422 117.622 74 117.742 73.7031C117.862 73.401 117.971 73.0312 118.07 72.5938C118.169 72.1562 118.263 71.6458 118.352 71.0625C118.44 70.474 118.523 69.7995 118.602 69.0391C118.612 68.8828 118.648 68.7682 118.711 68.6953C118.779 68.6172 118.872 68.5781 118.992 68.5781H122.602C122.727 68.5781 122.823 68.6172 122.891 68.6953C122.964 68.7682 123 68.8828 123 69.0391V75.8047Z" fill="#FF7F00" fill-opacity="0.84"/>
<path d="M130.695 75.8125C130.695 75.875 130.674 75.9219 130.633 75.9531C130.591 75.9844 130.534 76.0078 130.461 76.0234C130.388 76.0391 130.281 76.0469 130.141 76.0469C130.005 76.0469 129.896 76.0391 129.812 76.0234C129.734 76.0078 129.677 75.9844 129.641 75.9531C129.604 75.9219 129.586 75.875 129.586 75.8125V75.1094C129.279 75.4375 128.935 75.6927 128.555 75.875C128.18 76.0573 127.781 76.1484 127.359 76.1484C126.99 76.1484 126.654 76.099 126.352 76C126.055 75.9062 125.799 75.7682 125.586 75.5859C125.378 75.4036 125.214 75.1797 125.094 74.9141C124.979 74.6484 124.922 74.3464 124.922 74.0078C124.922 73.612 125.003 73.2682 125.164 72.9766C125.326 72.6849 125.557 72.4427 125.859 72.25C126.161 72.0573 126.531 71.9141 126.969 71.8203C127.406 71.7214 127.898 71.6719 128.445 71.6719H129.414V71.125C129.414 70.8542 129.385 70.6146 129.328 70.4062C129.271 70.1979 129.177 70.026 129.047 69.8906C128.922 69.75 128.758 69.6458 128.555 69.5781C128.352 69.5052 128.102 69.4688 127.805 69.4688C127.487 69.4688 127.201 69.5078 126.945 69.5859C126.695 69.6589 126.474 69.7422 126.281 69.8359C126.094 69.9245 125.935 70.0078 125.805 70.0859C125.68 70.1589 125.586 70.1953 125.523 70.1953C125.482 70.1953 125.445 70.1849 125.414 70.1641C125.383 70.1432 125.354 70.112 125.328 70.0703C125.307 70.0286 125.292 69.9766 125.281 69.9141C125.271 69.8464 125.266 69.7734 125.266 69.6953C125.266 69.5651 125.273 69.4635 125.289 69.3906C125.31 69.3125 125.354 69.2396 125.422 69.1719C125.495 69.1042 125.617 69.026 125.789 68.9375C125.961 68.8438 126.159 68.7604 126.383 68.6875C126.607 68.6094 126.852 68.5469 127.117 68.5C127.383 68.4479 127.651 68.4219 127.922 68.4219C128.427 68.4219 128.857 68.4792 129.211 68.5938C129.565 68.7083 129.852 68.8776 130.07 69.1016C130.289 69.3203 130.448 69.5938 130.547 69.9219C130.646 70.25 130.695 70.6328 130.695 71.0703V75.8125ZM129.414 72.6016H128.312C127.958 72.6016 127.651 72.6328 127.391 72.6953C127.13 72.7526 126.914 72.8411 126.742 72.9609C126.57 73.0755 126.443 73.2161 126.359 73.3828C126.281 73.5443 126.242 73.7318 126.242 73.9453C126.242 74.3099 126.357 74.6016 126.586 74.8203C126.82 75.0339 127.146 75.1406 127.562 75.1406C127.901 75.1406 128.214 75.0547 128.5 74.8828C128.792 74.7109 129.096 74.4479 129.414 74.0938V72.6016Z" fill="#FF7F00" fill-opacity="0.84"/>
<path d="M139.07 71.9844C139.07 72.1875 139.018 72.3333 138.914 72.4219C138.815 72.5052 138.701 72.5469 138.57 72.5469H133.961C133.961 72.9375 134 73.2891 134.078 73.6016C134.156 73.9141 134.286 74.1823 134.469 74.4062C134.651 74.6302 134.888 74.8021 135.18 74.9219C135.471 75.0417 135.828 75.1016 136.25 75.1016C136.583 75.1016 136.88 75.0755 137.141 75.0234C137.401 74.9661 137.625 74.9036 137.812 74.8359C138.005 74.7682 138.161 74.7083 138.281 74.6562C138.406 74.599 138.5 74.5703 138.562 74.5703C138.599 74.5703 138.63 74.5807 138.656 74.6016C138.688 74.6172 138.711 74.6432 138.727 74.6797C138.742 74.7161 138.753 74.7682 138.758 74.8359C138.768 74.8984 138.773 74.9766 138.773 75.0703C138.773 75.138 138.771 75.1979 138.766 75.25C138.76 75.2969 138.753 75.3411 138.742 75.3828C138.737 75.4193 138.724 75.4531 138.703 75.4844C138.688 75.5156 138.664 75.5469 138.633 75.5781C138.607 75.6042 138.523 75.651 138.383 75.7188C138.242 75.7812 138.06 75.8438 137.836 75.9062C137.612 75.9688 137.352 76.0234 137.055 76.0703C136.763 76.1224 136.451 76.1484 136.117 76.1484C135.539 76.1484 135.031 76.0677 134.594 75.9062C134.161 75.7448 133.797 75.5052 133.5 75.1875C133.203 74.8698 132.979 74.4714 132.828 73.9922C132.677 73.513 132.602 72.9557 132.602 72.3203C132.602 71.7161 132.68 71.1745 132.836 70.6953C132.992 70.2109 133.216 69.8021 133.508 69.4688C133.805 69.1302 134.161 68.8724 134.578 68.6953C134.995 68.513 135.461 68.4219 135.977 68.4219C136.529 68.4219 136.997 68.5104 137.383 68.6875C137.773 68.8646 138.094 69.1042 138.344 69.4062C138.594 69.7031 138.776 70.0547 138.891 70.4609C139.01 70.862 139.07 71.2917 139.07 71.75V71.9844ZM137.773 71.6016C137.789 70.9245 137.638 70.3932 137.32 70.0078C137.008 69.6224 136.542 69.4297 135.922 69.4297C135.604 69.4297 135.326 69.4896 135.086 69.6094C134.846 69.7292 134.646 69.888 134.484 70.0859C134.323 70.2839 134.198 70.5156 134.109 70.7812C134.021 71.0417 133.971 71.3151 133.961 71.6016H137.773Z" fill="#FF7F00" fill-opacity="0.84"/>
<path d="M145.898 69.1562C145.898 69.2604 145.893 69.349 145.883 69.4219C145.872 69.4948 145.854 69.5547 145.828 69.6016C145.807 69.6484 145.781 69.6849 145.75 69.7109C145.719 69.7318 145.68 69.7422 145.633 69.7422H143.523V75.8047C143.523 75.8464 143.513 75.8828 143.492 75.9141C143.471 75.9401 143.438 75.9635 143.391 75.9844C143.344 76.0052 143.279 76.0208 143.195 76.0312C143.112 76.0417 143.005 76.0469 142.875 76.0469C142.75 76.0469 142.646 76.0417 142.562 76.0312C142.479 76.0208 142.411 76.0052 142.359 75.9844C142.312 75.9635 142.279 75.9401 142.258 75.9141C142.242 75.8828 142.234 75.8464 142.234 75.8047V69.7422H140.125C140.083 69.7422 140.044 69.7318 140.008 69.7109C139.977 69.6849 139.951 69.6484 139.93 69.6016C139.909 69.5547 139.891 69.4948 139.875 69.4219C139.865 69.3438 139.859 69.2526 139.859 69.1484C139.859 69.0547 139.865 68.9714 139.875 68.8984C139.891 68.8255 139.909 68.7656 139.93 68.7188C139.956 68.6667 139.984 68.6302 140.016 68.6094C140.047 68.5833 140.083 68.5703 140.125 68.5703H145.633C145.674 68.5703 145.711 68.5833 145.742 68.6094C145.779 68.6302 145.807 68.6667 145.828 68.7188C145.849 68.7656 145.865 68.8281 145.875 68.9062C145.891 68.9792 145.898 69.0625 145.898 69.1562Z" fill="#FF7F00" fill-opacity="0.84"/>
<path d="M153.039 71.9844C153.039 72.1875 152.987 72.3333 152.883 72.4219C152.784 72.5052 152.669 72.5469 152.539 72.5469H147.93C147.93 72.9375 147.969 73.2891 148.047 73.6016C148.125 73.9141 148.255 74.1823 148.438 74.4062C148.62 74.6302 148.857 74.8021 149.148 74.9219C149.44 75.0417 149.797 75.1016 150.219 75.1016C150.552 75.1016 150.849 75.0755 151.109 75.0234C151.37 74.9661 151.594 74.9036 151.781 74.8359C151.974 74.7682 152.13 74.7083 152.25 74.6562C152.375 74.599 152.469 74.5703 152.531 74.5703C152.568 74.5703 152.599 74.5807 152.625 74.6016C152.656 74.6172 152.68 74.6432 152.695 74.6797C152.711 74.7161 152.721 74.7682 152.727 74.8359C152.737 74.8984 152.742 74.9766 152.742 75.0703C152.742 75.138 152.74 75.1979 152.734 75.25C152.729 75.2969 152.721 75.3411 152.711 75.3828C152.706 75.4193 152.693 75.4531 152.672 75.4844C152.656 75.5156 152.633 75.5469 152.602 75.5781C152.576 75.6042 152.492 75.651 152.352 75.7188C152.211 75.7812 152.029 75.8438 151.805 75.9062C151.581 75.9688 151.32 76.0234 151.023 76.0703C150.732 76.1224 150.419 76.1484 150.086 76.1484C149.508 76.1484 149 76.0677 148.562 75.9062C148.13 75.7448 147.766 75.5052 147.469 75.1875C147.172 74.8698 146.948 74.4714 146.797 73.9922C146.646 73.513 146.57 72.9557 146.57 72.3203C146.57 71.7161 146.648 71.1745 146.805 70.6953C146.961 70.2109 147.185 69.8021 147.477 69.4688C147.773 69.1302 148.13 68.8724 148.547 68.6953C148.964 68.513 149.43 68.4219 149.945 68.4219C150.497 68.4219 150.966 68.5104 151.352 68.6875C151.742 68.8646 152.062 69.1042 152.312 69.4062C152.562 69.7031 152.745 70.0547 152.859 70.4609C152.979 70.862 153.039 71.2917 153.039 71.75V71.9844ZM151.742 71.6016C151.758 70.9245 151.607 70.3932 151.289 70.0078C150.977 69.6224 150.51 69.4297 149.891 69.4297C149.573 69.4297 149.294 69.4896 149.055 69.6094C148.815 69.7292 148.615 69.888 148.453 70.0859C148.292 70.2839 148.167 70.5156 148.078 70.7812C147.99 71.0417 147.94 71.3151 147.93 71.6016H151.742Z" fill="#FF7F00" fill-opacity="0.84"/>
<path d="M5.61659 50.4337H0V0H26.8935V5.17446H5.61659V23.6645H25.605V28.8045H5.61659V50.4337Z" fill="black"/>
<path d="M35.6137 28.9921V50.4337H31.488V28.9921H35.6137ZM33.5694 20.8229C34.2137 20.8229 34.765 21.0105 35.2234 21.3856C35.6942 21.7478 35.9296 22.3687 35.9296 23.2484C35.9296 24.1151 35.6942 24.7361 35.2234 25.1112C34.765 25.4864 34.2137 25.6739 33.5694 25.6739C32.9128 25.6739 32.3552 25.4864 31.8968 25.1112C31.4508 24.7361 31.2278 24.1151 31.2278 23.2484C31.2278 22.3687 31.4508 21.7478 31.8968 21.3856C32.3552 21.0105 32.9128 20.8229 33.5694 20.8229Z" fill="black"/>
<path d="M48.8643 50.8218C46.3988 50.8218 44.4226 49.8904 42.9359 48.0276C41.4492 46.1648 40.7058 43.4159 40.7058 39.7808C40.7058 36.094 41.4616 33.3127 42.9731 31.437C44.4846 29.5483 46.4793 28.604 48.9572 28.604C50.0103 28.604 50.9272 28.7527 51.7077 29.0503C52.4882 29.3349 53.1635 29.7229 53.7334 30.2145C54.3033 30.7061 54.7865 31.2624 55.183 31.8833H55.3874C55.3254 31.4693 55.2573 30.8937 55.183 30.1563C55.121 29.406 55.09 28.7269 55.09 28.1189V20.2408H59.2157V50.4337H55.9821L55.2573 47.4843H55.09C54.7183 48.1052 54.2475 48.6679 53.6776 49.1724C53.1077 49.6769 52.4263 50.078 51.6334 50.3755C50.8528 50.673 49.9298 50.8218 48.8643 50.8218ZM49.9608 47.329C51.8935 47.329 53.2564 46.7469 54.0493 45.5827C54.8422 44.4184 55.2449 42.685 55.2573 40.3823V39.7808C55.2573 37.31 54.8732 35.4213 54.1051 34.1148C53.3493 32.7953 51.9555 32.1355 49.9236 32.1355C48.2882 32.1355 47.043 32.8147 46.1882 34.173C45.3457 35.5313 44.9244 37.4264 44.9244 39.8584C44.9244 42.2645 45.3457 44.1144 46.1882 45.408C47.043 46.6887 48.3006 47.329 49.9608 47.329Z" fill="black"/>
<path d="M69.6229 28.9921V50.4337H65.4972V28.9921H69.6229ZM67.5787 20.8229C68.2229 20.8229 68.7743 21.0105 69.2327 21.3856C69.7035 21.7478 69.9389 22.3687 69.9389 23.2484C69.9389 24.1151 69.7035 24.7361 69.2327 25.1112C68.7743 25.4864 68.2229 25.6739 67.5787 25.6739C66.922 25.6739 66.3645 25.4864 65.9061 25.1112C65.4601 24.7361 65.2371 24.1151 65.2371 23.2484C65.2371 22.3687 65.4601 21.7478 65.9061 21.3856C66.3645 21.0105 66.922 20.8229 67.5787 20.8229Z" fill="black"/>
<path d="M94.0055 39.6838C94.0055 41.456 93.7825 43.0342 93.3365 44.4184C92.8905 45.7896 92.24 46.9539 91.3852 47.9112C90.5427 48.8555 89.5205 49.5799 88.3187 50.0844C87.1293 50.576 85.7851 50.8218 84.2859 50.8218C82.8859 50.8218 81.5974 50.576 80.4204 50.0844C79.2558 49.5799 78.2461 48.8555 77.3912 47.9112C76.5487 46.9539 75.8921 45.7896 75.4212 44.4184C74.9504 43.0342 74.715 41.456 74.715 39.6838C74.715 37.3165 75.1053 35.3114 75.8859 33.6685C76.6664 32.0126 77.7815 30.7578 79.231 29.9041C80.6806 29.0373 82.4089 28.604 84.416 28.604C86.3116 28.604 87.978 29.0373 89.4152 29.9041C90.8524 30.7708 91.9737 32.0321 92.779 33.6879C93.5967 35.3308 94.0055 37.3294 94.0055 39.6838ZM78.9523 39.6838C78.9523 41.2749 79.1381 42.6397 79.5098 43.7781C79.8939 44.9165 80.4824 45.7896 81.2753 46.3976C82.0806 47.0056 83.1089 47.3096 84.3603 47.3096C85.6116 47.3096 86.6338 47.0056 87.4267 46.3976C88.2196 45.7896 88.8019 44.9165 89.1736 43.7781C89.5577 42.6397 89.7497 41.2749 89.7497 39.6838C89.7497 38.0926 89.5577 36.7343 89.1736 35.6089C88.8019 34.4834 88.2196 33.6232 87.4267 33.0281C86.6338 32.4331 85.6054 32.1355 84.3417 32.1355C82.4709 32.1355 81.1018 32.7888 80.2346 34.0954C79.3797 35.4019 78.9523 37.2647 78.9523 39.6838Z" fill="black"/>
<path d="M98.4658 48.1052C98.4658 47.0833 98.7198 46.3588 99.2277 45.9319C99.7357 45.505 100.349 45.2916 101.068 45.2916C101.811 45.2916 102.437 45.505 102.945 45.9319C103.465 46.3588 103.725 47.0833 103.725 48.1052C103.725 49.1142 103.465 49.8451 102.945 50.2979C102.437 50.7507 101.811 50.977 101.068 50.977C100.349 50.977 99.7357 50.7507 99.2277 50.2979C98.7198 49.8451 98.4658 49.1142 98.4658 48.1052Z" fill="black"/>
<path d="M113.556 20.2408V27.5755C113.556 28.4293 113.531 29.2637 113.482 30.0787C113.445 30.8807 113.408 31.5017 113.37 31.9415H113.556C114.114 31.0101 114.894 30.221 115.898 29.5742C116.901 28.9274 118.196 28.604 119.782 28.604C122.247 28.604 124.224 29.5418 125.71 31.4176C127.197 33.2804 127.94 36.0358 127.94 39.6838C127.94 42.1158 127.6 44.1597 126.918 45.8155C126.237 47.4713 125.277 48.7197 124.038 49.5605C122.799 50.4014 121.343 50.8218 119.67 50.8218C118.097 50.8218 116.821 50.5243 115.842 49.9292C114.876 49.3212 114.12 48.6033 113.575 47.7753H113.259L112.497 50.4337H109.43V20.2408H113.556ZM118.741 32.1355C117.465 32.1355 116.449 32.4007 115.693 32.9311C114.938 33.4615 114.393 34.2635 114.058 35.3372C113.736 36.398 113.569 37.7434 113.556 39.3733V39.7226C113.556 42.1805 113.928 44.0562 114.671 45.3498C115.427 46.6434 116.796 47.2902 118.778 47.2902C120.377 47.2902 121.597 46.6305 122.439 45.311C123.282 43.9915 123.703 42.1028 123.703 39.645C123.703 37.1483 123.282 35.2726 122.439 34.0177C121.609 32.7629 120.377 32.1355 118.741 32.1355Z" fill="black"/>
<path d="M129.91 28.9921H134.389L138.664 41.2749C138.862 41.87 139.041 42.4456 139.203 43.0019C139.376 43.5582 139.525 44.1079 139.649 44.6513C139.785 45.1816 139.89 45.712 139.964 46.2424H140.095C140.218 45.5697 140.404 44.8 140.652 43.9333C140.9 43.0536 141.172 42.1675 141.47 41.2749L145.558 28.9921H150L141.172 53.422C140.677 54.8061 140.07 55.9898 139.351 56.9729C138.633 57.9561 137.784 58.7064 136.805 59.2238C135.826 59.7413 134.693 60 133.404 60C132.797 60 132.264 59.9612 131.806 59.8836C131.348 59.8189 130.957 59.7413 130.635 59.6507V56.2162C130.895 56.2809 131.224 56.3391 131.62 56.3908C132.017 56.4426 132.425 56.4684 132.847 56.4684C133.627 56.4684 134.296 56.3067 134.854 55.9833C135.424 55.6599 135.907 55.2071 136.303 54.625C136.712 54.0429 137.047 53.3702 137.307 52.607L138.106 50.3949L129.91 28.9921Z" fill="black"/>
<path d="M6.50635 88.5562C6.50635 88.8735 6.45557 89.1803 6.354 89.4766C6.25667 89.7686 6.09587 90.0267 5.87158 90.251C5.65153 90.4753 5.35742 90.6572 4.98926 90.7969C4.62109 90.9323 4.11963 91 3.48486 91H1.50439C1.40283 91 1.30973 90.9683 1.2251 90.9048C1.14046 90.8371 1.09814 90.7186 1.09814 90.5493V83.2305C1.09814 83.0654 1.14046 82.9512 1.2251 82.8877C1.30973 82.82 1.40072 82.7861 1.49805 82.7861H5.75732C5.79541 82.7861 5.82926 82.7946 5.85889 82.8115C5.88851 82.8285 5.91178 82.856 5.92871 82.894C5.94987 82.9321 5.96468 82.9808 5.97314 83.04C5.98161 83.0951 5.98584 83.1649 5.98584 83.2495C5.98584 83.3257 5.98161 83.3934 5.97314 83.4526C5.96468 83.5119 5.94987 83.5605 5.92871 83.5986C5.91178 83.6325 5.88851 83.66 5.85889 83.6812C5.8335 83.6981 5.80176 83.7065 5.76367 83.7065H2.18359V86.2773H3.68799C4.20426 86.2773 4.62956 86.3302 4.96387 86.436C5.29818 86.5418 5.57959 86.6942 5.80811 86.8931C6.03662 87.092 6.21012 87.3332 6.32861 87.6167C6.4471 87.896 6.50635 88.2091 6.50635 88.5562ZM5.37646 88.6323C5.37646 88.4038 5.33838 88.1986 5.26221 88.0166C5.19027 87.8346 5.08447 87.6802 4.94482 87.5532C4.80518 87.4263 4.62744 87.3289 4.41162 87.2612C4.1958 87.1893 3.91016 87.1533 3.55469 87.1533H2.18359V90.1113H3.58643C3.92497 90.1113 4.20215 90.0775 4.41797 90.0098C4.63379 89.9421 4.80941 89.8447 4.94482 89.7178C5.08447 89.5866 5.19027 89.43 5.26221 89.248C5.33838 89.0661 5.37646 88.8608 5.37646 88.6323Z" fill="black"/>
<path d="M12.8413 87.7373C12.8413 87.9023 12.799 88.0208 12.7144 88.0928C12.634 88.1605 12.5409 88.1943 12.4351 88.1943H8.68994C8.68994 88.5117 8.72168 88.7974 8.78516 89.0513C8.84863 89.3052 8.95443 89.5231 9.10254 89.7051C9.25065 89.887 9.4432 90.0267 9.68018 90.124C9.91715 90.2214 10.207 90.27 10.5498 90.27C10.8206 90.27 11.0618 90.2489 11.2734 90.2065C11.485 90.16 11.667 90.1092 11.8193 90.0542C11.9759 89.9992 12.1029 89.9505 12.2002 89.9082C12.3018 89.8617 12.3779 89.8384 12.4287 89.8384C12.4583 89.8384 12.4837 89.8468 12.5049 89.8638C12.5303 89.8765 12.5493 89.8976 12.562 89.9272C12.5747 89.9569 12.5832 89.9992 12.5874 90.0542C12.5959 90.105 12.6001 90.1685 12.6001 90.2446C12.6001 90.2996 12.598 90.3483 12.5938 90.3906C12.5895 90.4287 12.5832 90.4647 12.5747 90.4985C12.5705 90.5282 12.5599 90.5557 12.543 90.5811C12.5303 90.6064 12.5112 90.6318 12.4858 90.6572C12.4647 90.6784 12.397 90.7165 12.2827 90.7715C12.1685 90.8223 12.0203 90.873 11.8384 90.9238C11.6564 90.9746 11.4448 91.019 11.2036 91.0571C10.9666 91.0994 10.7127 91.1206 10.4419 91.1206C9.97217 91.1206 9.55957 91.055 9.2041 90.9238C8.85286 90.7926 8.55664 90.598 8.31543 90.3398C8.07422 90.0817 7.89225 89.758 7.76953 89.3687C7.64681 88.9793 7.58545 88.5265 7.58545 88.0103C7.58545 87.5194 7.64893 87.0793 7.77588 86.6899C7.90283 86.2964 8.0848 85.9642 8.32178 85.6934C8.56299 85.4183 8.85286 85.2088 9.19141 85.0649C9.52995 84.9168 9.90869 84.8428 10.3276 84.8428C10.7762 84.8428 11.1571 84.9147 11.4702 85.0586C11.7876 85.2025 12.0479 85.3971 12.251 85.6426C12.4541 85.8838 12.6022 86.1694 12.6953 86.4995C12.7926 86.8254 12.8413 87.1745 12.8413 87.5469V87.7373ZM11.7876 87.4263C11.8003 86.8761 11.6776 86.4445 11.4194 86.1313C11.1655 85.8182 10.7868 85.6616 10.2832 85.6616C10.0251 85.6616 9.79867 85.7103 9.604 85.8076C9.40934 85.9049 9.24642 86.034 9.11523 86.1948C8.98405 86.3556 8.88249 86.5439 8.81055 86.7598C8.73861 86.9714 8.6984 87.1935 8.68994 87.4263H11.7876Z" fill="black"/>
<path d="M18.3955 89.2607C18.3955 89.5485 18.3384 89.8066 18.2241 90.0352C18.1099 90.2637 17.9448 90.4604 17.729 90.6255C17.5174 90.7863 17.2572 90.909 16.9482 90.9937C16.6393 91.0783 16.2881 91.1206 15.8945 91.1206C15.6745 91.1206 15.4671 91.1037 15.2725 91.0698C15.082 91.0402 14.9064 91.0021 14.7456 90.9556C14.589 90.9048 14.4557 90.8519 14.3457 90.7969C14.2399 90.7376 14.1637 90.689 14.1172 90.6509C14.0749 90.6128 14.0431 90.5789 14.022 90.5493C14.0008 90.5155 13.986 90.4795 13.9775 90.4414C13.9691 90.4033 13.9606 90.3568 13.9521 90.3018C13.9479 90.2467 13.9458 90.1812 13.9458 90.105C13.9458 90.0373 13.95 89.9801 13.9585 89.9336C13.967 89.887 13.9775 89.849 13.9902 89.8193C14.0029 89.7897 14.0177 89.7686 14.0347 89.7559C14.0516 89.7389 14.0749 89.7305 14.1045 89.7305C14.151 89.7305 14.2145 89.7601 14.2949 89.8193C14.3796 89.8743 14.4917 89.9378 14.6313 90.0098C14.771 90.0775 14.9424 90.141 15.1455 90.2002C15.3529 90.2594 15.6068 90.2891 15.9072 90.2891C16.1188 90.2891 16.3092 90.2679 16.4785 90.2256C16.6478 90.179 16.7917 90.1134 16.9102 90.0288C17.0286 89.9399 17.1196 89.8299 17.1831 89.6987C17.2508 89.5675 17.2847 89.4152 17.2847 89.2417C17.2847 89.0936 17.2529 88.9603 17.1895 88.8418C17.126 88.7233 17.0265 88.6239 16.8911 88.5435C16.7557 88.4588 16.5822 88.3932 16.3706 88.3467C16.159 88.3001 15.903 88.2769 15.6025 88.2769H14.9678C14.9255 88.2769 14.8916 88.2705 14.8662 88.2578C14.8408 88.2409 14.8175 88.2176 14.7964 88.188C14.7795 88.1541 14.7668 88.1118 14.7583 88.061C14.7541 88.006 14.752 87.9425 14.752 87.8706C14.752 87.8029 14.7562 87.7437 14.7646 87.6929C14.7731 87.6421 14.7858 87.6019 14.8027 87.5723C14.8197 87.5426 14.8408 87.5215 14.8662 87.5088C14.8916 87.4919 14.9233 87.4834 14.9614 87.4834H15.5771C15.8438 87.4834 16.0723 87.4622 16.2627 87.4199C16.4574 87.3776 16.6182 87.3162 16.7451 87.2358C16.8763 87.1512 16.9715 87.0496 17.0308 86.9312C17.0942 86.8084 17.126 86.6688 17.126 86.5122C17.126 86.3726 17.0964 86.2498 17.0371 86.144C16.9779 86.0382 16.8975 85.9515 16.7959 85.8838C16.6986 85.8118 16.578 85.759 16.4341 85.7251C16.2902 85.687 16.1357 85.668 15.9707 85.668C15.7126 85.668 15.4819 85.6976 15.2788 85.7568C15.0799 85.8161 14.9064 85.8817 14.7583 85.9536C14.6144 86.0213 14.4959 86.0848 14.4028 86.144C14.3097 86.1991 14.2441 86.2266 14.2061 86.2266C14.1849 86.2266 14.1637 86.2223 14.1426 86.2139C14.1257 86.2012 14.1087 86.1821 14.0918 86.1567C14.0791 86.1271 14.0685 86.089 14.0601 86.0425C14.0558 85.9917 14.0537 85.9325 14.0537 85.8647C14.0537 85.742 14.0622 85.6447 14.0791 85.5728C14.1003 85.5008 14.1362 85.4395 14.187 85.3887C14.2378 85.3379 14.3267 85.2786 14.4536 85.2109C14.5806 85.1432 14.7287 85.084 14.8979 85.0332C15.0715 84.9782 15.2576 84.9338 15.4565 84.8999C15.6597 84.8618 15.867 84.8428 16.0786 84.8428C16.3875 84.8428 16.6711 84.8766 16.9292 84.9443C17.1873 85.0078 17.4074 85.1073 17.5894 85.2427C17.7756 85.3739 17.9194 85.5389 18.021 85.7378C18.1226 85.9325 18.1733 86.161 18.1733 86.4233C18.1733 86.5799 18.1479 86.7301 18.0972 86.874C18.0464 87.0137 17.9723 87.1427 17.875 87.2612C17.7819 87.3797 17.6655 87.4855 17.5259 87.5786C17.3862 87.6717 17.2318 87.7437 17.0625 87.7944L17.0498 87.8008C17.2148 87.8177 17.3778 87.8664 17.5386 87.9468C17.6994 88.0229 17.8433 88.1245 17.9702 88.2515C18.0972 88.3742 18.1987 88.5223 18.2749 88.6958C18.3553 88.8651 18.3955 89.0534 18.3955 89.2607Z" fill="black"/>
<path d="M27.5742 89.1973C27.5742 89.4977 27.5171 89.7664 27.4028 90.0034C27.2886 90.2362 27.1193 90.4329 26.895 90.5938C26.6707 90.7503 26.3914 90.8709 26.0571 90.9556C25.7228 91.036 25.3335 91.0762 24.8892 91.0762C24.7495 91.0762 24.6141 91.0741 24.4829 91.0698C24.3517 91.0698 24.2248 91.0656 24.1021 91.0571C23.9793 91.0529 23.8566 91.0465 23.7339 91.0381C23.6154 91.0296 23.4969 91.019 23.3784 91.0063C23.2091 90.9852 23.0843 90.9302 23.0039 90.8413C22.9235 90.7482 22.8833 90.6128 22.8833 90.4351V85.5156C22.8833 85.3421 22.9214 85.2088 22.9976 85.1157C23.078 85.0226 23.1986 84.9676 23.3594 84.9507C23.4694 84.938 23.5858 84.9274 23.7085 84.9189C23.8354 84.9105 23.9645 84.9041 24.0957 84.8999C24.2269 84.8914 24.3623 84.8851 24.502 84.8809C24.6416 84.8766 24.7834 84.8745 24.9272 84.8745C25.3377 84.8745 25.6932 84.9084 25.9937 84.9761C26.2941 85.0438 26.5438 85.1432 26.7427 85.2744C26.9416 85.4056 27.0876 85.5664 27.1807 85.7568C27.278 85.9473 27.3267 86.1652 27.3267 86.4106C27.3267 86.7323 27.2399 87.0073 27.0664 87.2358C26.8971 87.4644 26.6453 87.6273 26.311 87.7246C26.73 87.8135 27.0452 87.9849 27.2568 88.2388C27.4684 88.4927 27.5742 88.8122 27.5742 89.1973ZM26.311 86.5439C26.311 86.4043 26.2856 86.2795 26.2349 86.1694C26.1841 86.0594 26.0994 85.9663 25.981 85.8901C25.8667 85.814 25.7165 85.7568 25.5303 85.7188C25.3483 85.6807 25.1261 85.6616 24.8638 85.6616C24.6649 85.6616 24.4829 85.668 24.3179 85.6807C24.1528 85.6891 24.0132 85.6997 23.8989 85.7124V87.4897H24.9653C25.4012 87.4897 25.7334 87.4093 25.9619 87.2485C26.1947 87.0835 26.311 86.8486 26.311 86.5439ZM26.5015 89.2163C26.5015 89.047 26.4718 88.8989 26.4126 88.772C26.3534 88.6408 26.2581 88.5329 26.127 88.4482C26 88.3636 25.835 88.3001 25.6318 88.2578C25.4329 88.2155 25.196 88.1943 24.9209 88.1943H23.8989V90.2192C23.9793 90.2319 24.0618 90.2425 24.1465 90.251C24.2354 90.2552 24.3242 90.2616 24.4131 90.27C24.5062 90.2743 24.5972 90.2785 24.686 90.2827C24.7791 90.2869 24.8638 90.2891 24.9399 90.2891C25.215 90.2891 25.4499 90.2658 25.6445 90.2192C25.8392 90.1685 26 90.0965 26.127 90.0034C26.2581 89.9103 26.3534 89.7982 26.4126 89.667C26.4718 89.5316 26.5015 89.3813 26.5015 89.2163Z" fill="black"/>
<path d="M35.8325 90.8413C35.8325 90.8752 35.8241 90.9048 35.8071 90.9302C35.7902 90.9513 35.7627 90.9704 35.7246 90.9873C35.6865 91.0042 35.6336 91.0169 35.5659 91.0254C35.4982 91.0339 35.4115 91.0381 35.3057 91.0381C35.2041 91.0381 35.1195 91.0339 35.0518 91.0254C34.984 91.0169 34.929 91.0042 34.8867 90.9873C34.8486 90.9704 34.8211 90.9513 34.8042 90.9302C34.7915 90.9048 34.7852 90.8752 34.7852 90.8413V85.1284C34.7852 85.0946 34.7915 85.0671 34.8042 85.0459C34.8211 85.0205 34.8486 84.9993 34.8867 84.9824C34.929 84.9613 34.984 84.9486 35.0518 84.9443C35.1195 84.9359 35.2041 84.9316 35.3057 84.9316C35.4115 84.9316 35.4982 84.9359 35.5659 84.9443C35.6336 84.9486 35.6865 84.9613 35.7246 84.9824C35.7627 84.9993 35.7902 85.0205 35.8071 85.0459C35.8241 85.0671 35.8325 85.0946 35.8325 85.1284V90.8413ZM30.1641 87.1406C30.3206 87.1279 30.4772 87.1195 30.6338 87.1152C30.7946 87.1068 30.9681 87.1025 31.1543 87.1025C31.6071 87.1025 31.9943 87.1491 32.3159 87.2422C32.6375 87.3311 32.902 87.4601 33.1094 87.6294C33.321 87.7987 33.4754 88.0018 33.5728 88.2388C33.6701 88.4715 33.7188 88.7339 33.7188 89.0259C33.7188 89.3179 33.6659 89.5908 33.5601 89.8447C33.4585 90.0986 33.2956 90.3187 33.0713 90.5049C32.8512 90.6911 32.5677 90.8392 32.2207 90.9492C31.8737 91.055 31.4569 91.1079 30.9702 91.1079C30.856 91.1079 30.7417 91.1058 30.6274 91.1016C30.5132 91.1016 30.401 91.0973 30.291 91.0889C30.181 91.0846 30.071 91.0783 29.9609 91.0698C29.8551 91.0614 29.7472 91.0508 29.6372 91.0381C29.4595 91.0169 29.3283 90.9598 29.2437 90.8667C29.159 90.7736 29.1167 90.6318 29.1167 90.4414V85.1284C29.1167 85.0946 29.123 85.0671 29.1357 85.0459C29.1527 85.0205 29.1802 84.9993 29.2183 84.9824C29.2606 84.9613 29.3135 84.9486 29.377 84.9443C29.4447 84.9359 29.5272 84.9316 29.6245 84.9316C29.8276 84.9316 29.9673 84.9486 30.0435 84.9824C30.1239 85.012 30.1641 85.0607 30.1641 85.1284V87.1406ZM32.627 89.0957C32.627 88.9222 32.5994 88.7656 32.5444 88.626C32.4937 88.4821 32.4069 88.3615 32.2842 88.2642C32.1657 88.1626 32.007 88.0864 31.8081 88.0356C31.6092 87.9806 31.3659 87.9531 31.0781 87.9531C30.9046 87.9531 30.7438 87.9574 30.5957 87.9658C30.4476 87.9743 30.3037 87.9849 30.1641 87.9976V90.1938C30.3122 90.2108 30.4582 90.2256 30.6021 90.2383C30.7459 90.251 30.9215 90.2573 31.1289 90.2573C31.6452 90.2573 32.0239 90.1558 32.2651 89.9526C32.5063 89.7453 32.627 89.4596 32.627 89.0957Z" fill="black"/>
<path d="M42.104 90.7207C42.1379 90.7799 42.1548 90.8307 42.1548 90.873C42.1548 90.9111 42.1336 90.9429 42.0913 90.9683C42.0532 90.9937 41.9919 91.0106 41.9072 91.019C41.8268 91.0317 41.721 91.0381 41.5898 91.0381C41.4629 91.0381 41.3613 91.0339 41.2852 91.0254C41.2132 91.0212 41.154 91.0127 41.1074 91C41.0651 90.9831 41.0312 90.964 41.0059 90.9429C40.9847 90.9175 40.9657 90.89 40.9487 90.8604L39.5776 88.5942L38.2129 90.8604C38.196 90.89 38.1748 90.9175 38.1494 90.9429C38.1283 90.964 38.0944 90.9831 38.0479 91C38.0055 91.0127 37.9484 91.0212 37.8765 91.0254C37.8045 91.0339 37.7093 91.0381 37.5908 91.0381C37.4681 91.0381 37.3665 91.0317 37.2861 91.019C37.21 91.0106 37.1528 90.9937 37.1147 90.9683C37.0809 90.9429 37.064 90.9111 37.064 90.873C37.0682 90.8307 37.0894 90.7799 37.1274 90.7207L38.9048 87.9341L37.2227 85.249C37.1888 85.1898 37.1698 85.1411 37.1655 85.103C37.1655 85.0607 37.1846 85.0269 37.2227 85.0015C37.265 84.9718 37.3263 84.9528 37.4067 84.9443C37.4914 84.9359 37.6014 84.9316 37.7368 84.9316C37.8595 84.9316 37.9569 84.9359 38.0288 84.9443C38.105 84.9486 38.1642 84.957 38.2065 84.9697C38.2489 84.9824 38.2806 84.9993 38.3018 85.0205C38.3229 85.0417 38.342 85.0671 38.3589 85.0967L39.6602 87.2231L40.9805 85.0967C40.9974 85.0713 41.0164 85.048 41.0376 85.0269C41.0588 85.0057 41.0863 84.9888 41.1201 84.9761C41.1582 84.9591 41.209 84.9486 41.2725 84.9443C41.3402 84.9359 41.4312 84.9316 41.5454 84.9316C41.6681 84.9316 41.7676 84.9359 41.8438 84.9443C41.9242 84.9528 41.9834 84.9697 42.0215 84.9951C42.0596 85.0163 42.0765 85.048 42.0723 85.0903C42.068 85.1326 42.0469 85.1855 42.0088 85.249L40.3394 87.9023L42.104 90.7207Z" fill="black"/>
<path d="M48.5215 87.9214C48.5215 88.3869 48.4601 88.8164 48.3374 89.21C48.2147 89.5993 48.0306 89.9357 47.7852 90.2192C47.5439 90.5028 47.2393 90.7249 46.8711 90.8857C46.5072 91.0423 46.084 91.1206 45.6016 91.1206C45.1318 91.1206 44.7214 91.0508 44.3701 90.9111C44.0231 90.7715 43.7332 90.5684 43.5005 90.3018C43.2677 90.0352 43.0942 89.7114 42.98 89.3306C42.8657 88.9497 42.8086 88.5181 42.8086 88.0356C42.8086 87.5701 42.8678 87.1427 42.9863 86.7534C43.109 86.3599 43.291 86.0213 43.5322 85.7378C43.7777 85.4543 44.0824 85.2342 44.4463 85.0776C44.8102 84.9211 45.2355 84.8428 45.7222 84.8428C46.1919 84.8428 46.6003 84.9126 46.9473 85.0522C47.2985 85.1919 47.5905 85.395 47.8232 85.6616C48.056 85.9282 48.2295 86.252 48.3438 86.6328C48.4622 87.0137 48.5215 87.4432 48.5215 87.9214ZM47.417 87.9912C47.417 87.6823 47.3874 87.3903 47.3281 87.1152C47.2731 86.8402 47.18 86.599 47.0488 86.3916C46.9176 86.1842 46.7399 86.0213 46.5156 85.9028C46.2913 85.7801 46.012 85.7188 45.6777 85.7188C45.3688 85.7188 45.1022 85.7738 44.8779 85.8838C44.6579 85.9938 44.4759 86.1504 44.332 86.3535C44.1882 86.5524 44.0802 86.7894 44.0083 87.0645C43.9406 87.3395 43.9067 87.64 43.9067 87.9658C43.9067 88.279 43.9342 88.5731 43.9893 88.8481C44.0485 89.1232 44.1437 89.3644 44.2749 89.5718C44.4103 89.7749 44.5902 89.9378 44.8145 90.0605C45.0387 90.179 45.318 90.2383 45.6523 90.2383C45.957 90.2383 46.2215 90.1833 46.4458 90.0732C46.6701 89.9632 46.8542 89.8088 46.998 89.6099C47.1419 89.411 47.2477 89.174 47.3154 88.8989C47.3831 88.6239 47.417 88.3213 47.417 87.9912Z" fill="black"/>
<path d="M49.7593 92.917C49.7593 92.9466 49.7529 92.9699 49.7402 92.9868C49.7275 93.008 49.7021 93.0249 49.6641 93.0376C49.6302 93.0503 49.5858 93.0609 49.5308 93.0693C49.4757 93.0778 49.408 93.082 49.3276 93.082C49.2388 93.082 49.1647 93.0778 49.1055 93.0693C49.0505 93.0609 49.0039 93.0503 48.9658 93.0376C48.932 93.0249 48.9066 93.008 48.8896 92.9868C48.877 92.9699 48.8706 92.9466 48.8706 92.917V90.3716C48.8706 90.2658 48.8875 90.196 48.9214 90.1621C48.9552 90.1283 49.0208 90.1113 49.1182 90.1113H49.5244C49.681 89.9209 49.827 89.703 49.9624 89.4575C50.0978 89.2121 50.2227 88.9053 50.3369 88.5371C50.4554 88.1647 50.5633 87.7183 50.6606 87.1978C50.758 86.6772 50.8468 86.0552 50.9272 85.3315C50.9357 85.2723 50.9463 85.2194 50.959 85.1729C50.9759 85.1221 50.9971 85.084 51.0225 85.0586C51.0521 85.029 51.0859 85.0057 51.124 84.9888C51.1621 84.9718 51.2065 84.9634 51.2573 84.9634H54.4312C54.5327 84.9634 54.611 84.9951 54.666 85.0586C54.7253 85.1178 54.7549 85.2109 54.7549 85.3379V90.1113H55.5483C55.6372 90.1113 55.7007 90.1283 55.7388 90.1621C55.7769 90.196 55.7959 90.2658 55.7959 90.3716V92.917C55.7959 92.9466 55.7896 92.9699 55.7769 92.9868C55.7642 93.008 55.7388 93.0249 55.7007 93.0376C55.6668 93.0503 55.6203 93.0609 55.561 93.0693C55.5018 93.0778 55.432 93.082 55.3516 93.082C55.2669 93.082 55.1971 93.0778 55.1421 93.0693C55.0871 93.0609 55.0405 93.0503 55.0024 93.0376C54.9686 93.0249 54.9432 93.008 54.9263 92.9868C54.9136 92.9699 54.9072 92.9466 54.9072 92.917V91H49.7593V92.917ZM53.7012 85.8267H51.8921C51.8032 86.5164 51.7101 87.0983 51.6128 87.5723C51.5197 88.0462 51.4181 88.4461 51.3081 88.772C51.2023 89.0978 51.0902 89.3644 50.9717 89.5718C50.8532 89.7749 50.7305 89.9548 50.6035 90.1113H53.7012V85.8267Z" fill="black"/>
<path d="M61.9658 90.8413C61.9658 90.8752 61.9574 90.9048 61.9404 90.9302C61.9235 90.9513 61.896 90.9704 61.8579 90.9873C61.8198 91.0042 61.7669 91.0169 61.6992 91.0254C61.6315 91.0339 61.5469 91.0381 61.4453 91.0381C61.3395 91.0381 61.2528 91.0339 61.1851 91.0254C61.1174 91.0169 61.0645 91.0042 61.0264 90.9873C60.9883 90.9704 60.9608 90.9513 60.9438 90.9302C60.9269 90.9048 60.9185 90.8752 60.9185 90.8413V88.334H58.0049V90.8413C58.0049 90.8752 57.9964 90.9048 57.9795 90.9302C57.9626 90.9513 57.9351 90.9704 57.897 90.9873C57.8589 91.0042 57.806 91.0169 57.7383 91.0254C57.6706 91.0339 57.5838 91.0381 57.478 91.0381C57.3765 91.0381 57.2918 91.0339 57.2241 91.0254C57.1564 91.0169 57.1014 91.0042 57.0591 90.9873C57.021 90.9704 56.9935 90.9513 56.9766 90.9302C56.9639 90.9048 56.9575 90.8752 56.9575 90.8413V85.1284C56.9575 85.0946 56.9639 85.0671 56.9766 85.0459C56.9935 85.0205 57.021 84.9993 57.0591 84.9824C57.1014 84.9613 57.1564 84.9486 57.2241 84.9443C57.2918 84.9359 57.3765 84.9316 57.478 84.9316C57.5838 84.9316 57.6706 84.9359 57.7383 84.9443C57.806 84.9486 57.8589 84.9613 57.897 84.9824C57.9351 84.9993 57.9626 85.0205 57.9795 85.0459C57.9964 85.0671 58.0049 85.0946 58.0049 85.1284V87.4517H60.9185V85.1284C60.9185 85.0946 60.9269 85.0671 60.9438 85.0459C60.9608 85.0205 60.9883 84.9993 61.0264 84.9824C61.0645 84.9613 61.1174 84.9486 61.1851 84.9443C61.2528 84.9359 61.3395 84.9316 61.4453 84.9316C61.5469 84.9316 61.6315 84.9359 61.6992 84.9443C61.7669 84.9486 61.8198 84.9613 61.8579 84.9824C61.896 84.9993 61.9235 85.0205 61.9404 85.0459C61.9574 85.0671 61.9658 85.0946 61.9658 85.1284V90.8413Z" fill="black"/>
<path d="M70.6304 90.8413C70.6304 90.8752 70.6219 90.9048 70.605 90.9302C70.5881 90.9513 70.5605 90.9704 70.5225 90.9873C70.4844 91.0042 70.4315 91.0169 70.3638 91.0254C70.2961 91.0339 70.2093 91.0381 70.1035 91.0381C70.002 91.0381 69.9173 91.0339 69.8496 91.0254C69.7819 91.0169 69.7269 91.0042 69.6846 90.9873C69.6465 90.9704 69.619 90.9513 69.6021 90.9302C69.5894 90.9048 69.583 90.8752 69.583 90.8413V85.1284C69.583 85.0946 69.5894 85.0671 69.6021 85.0459C69.619 85.0205 69.6465 84.9993 69.6846 84.9824C69.7269 84.9613 69.7819 84.9486 69.8496 84.9443C69.9173 84.9359 70.002 84.9316 70.1035 84.9316C70.2093 84.9316 70.2961 84.9359 70.3638 84.9443C70.4315 84.9486 70.4844 84.9613 70.5225 84.9824C70.5605 84.9993 70.5881 85.0205 70.605 85.0459C70.6219 85.0671 70.6304 85.0946 70.6304 85.1284V90.8413ZM64.9619 87.1406C65.1185 87.1279 65.2751 87.1195 65.4316 87.1152C65.5924 87.1068 65.766 87.1025 65.9521 87.1025C66.4049 87.1025 66.7922 87.1491 67.1138 87.2422C67.4354 87.3311 67.6999 87.4601 67.9072 87.6294C68.1188 87.7987 68.2733 88.0018 68.3706 88.2388C68.4679 88.4715 68.5166 88.7339 68.5166 89.0259C68.5166 89.3179 68.4637 89.5908 68.3579 89.8447C68.2563 90.0986 68.0934 90.3187 67.8691 90.5049C67.6491 90.6911 67.3656 90.8392 67.0186 90.9492C66.6715 91.055 66.2547 91.1079 65.7681 91.1079C65.6538 91.1079 65.5396 91.1058 65.4253 91.1016C65.311 91.1016 65.1989 91.0973 65.0889 91.0889C64.9788 91.0846 64.8688 91.0783 64.7588 91.0698C64.653 91.0614 64.5451 91.0508 64.4351 91.0381C64.2573 91.0169 64.1261 90.9598 64.0415 90.8667C63.9569 90.7736 63.9146 90.6318 63.9146 90.4414V85.1284C63.9146 85.0946 63.9209 85.0671 63.9336 85.0459C63.9505 85.0205 63.978 84.9993 64.0161 84.9824C64.0584 84.9613 64.1113 84.9486 64.1748 84.9443C64.2425 84.9359 64.325 84.9316 64.4224 84.9316C64.6255 84.9316 64.7651 84.9486 64.8413 84.9824C64.9217 85.012 64.9619 85.0607 64.9619 85.1284V87.1406ZM67.4248 89.0957C67.4248 88.9222 67.3973 88.7656 67.3423 88.626C67.2915 88.4821 67.2048 88.3615 67.082 88.2642C66.9635 88.1626 66.8049 88.0864 66.606 88.0356C66.4071 87.9806 66.1637 87.9531 65.876 87.9531C65.7025 87.9531 65.5417 87.9574 65.3936 87.9658C65.2454 87.9743 65.1016 87.9849 64.9619 87.9976V90.1938C65.11 90.2108 65.256 90.2256 65.3999 90.2383C65.5438 90.251 65.7194 90.2573 65.9268 90.2573C66.443 90.2573 66.8218 90.1558 67.063 89.9526C67.3042 89.7453 67.4248 89.4596 67.4248 89.0957Z" fill="black"/>
<path d="M76.9019 90.7207C76.9357 90.7799 76.9526 90.8307 76.9526 90.873C76.9526 90.9111 76.9315 90.9429 76.8892 90.9683C76.8511 90.9937 76.7897 91.0106 76.7051 91.019C76.6247 91.0317 76.5189 91.0381 76.3877 91.0381C76.2607 91.0381 76.1592 91.0339 76.083 91.0254C76.0111 91.0212 75.9518 91.0127 75.9053 91C75.863 90.9831 75.8291 90.964 75.8037 90.9429C75.7826 90.9175 75.7635 90.89 75.7466 90.8604L74.3755 88.5942L73.0107 90.8604C72.9938 90.89 72.9727 90.9175 72.9473 90.9429C72.9261 90.964 72.8923 90.9831 72.8457 91C72.8034 91.0127 72.7463 91.0212 72.6743 91.0254C72.6024 91.0339 72.5072 91.0381 72.3887 91.0381C72.266 91.0381 72.1644 91.0317 72.084 91.019C72.0078 91.0106 71.9507 90.9937 71.9126 90.9683C71.8787 90.9429 71.8618 90.9111 71.8618 90.873C71.866 90.8307 71.8872 90.7799 71.9253 90.7207L73.7026 87.9341L72.0205 85.249C71.9867 85.1898 71.9676 85.1411 71.9634 85.103C71.9634 85.0607 71.9824 85.0269 72.0205 85.0015C72.0628 84.9718 72.1242 84.9528 72.2046 84.9443C72.2892 84.9359 72.3993 84.9316 72.5347 84.9316C72.6574 84.9316 72.7547 84.9359 72.8267 84.9443C72.9028 84.9486 72.9621 84.957 73.0044 84.9697C73.0467 84.9824 73.0785 84.9993 73.0996 85.0205C73.1208 85.0417 73.1398 85.0671 73.1567 85.0967L74.458 87.2231L75.7783 85.0967C75.7952 85.0713 75.8143 85.048 75.8354 85.0269C75.8566 85.0057 75.8841 84.9888 75.918 84.9761C75.9561 84.9591 76.0068 84.9486 76.0703 84.9443C76.138 84.9359 76.229 84.9316 76.3433 84.9316C76.466 84.9316 76.5654 84.9359 76.6416 84.9443C76.722 84.9528 76.7812 84.9697 76.8193 84.9951C76.8574 85.0163 76.8743 85.048 76.8701 85.0903C76.8659 85.1326 76.8447 85.1855 76.8066 85.249L75.1372 87.9023L76.9019 90.7207Z" fill="black"/>
<path d="M86.2393 90.8477C86.2393 90.8773 86.2308 90.9048 86.2139 90.9302C86.1969 90.9556 86.1694 90.9767 86.1313 90.9937C86.0933 91.0063 86.0404 91.0169 85.9727 91.0254C85.9049 91.0339 85.8203 91.0381 85.7188 91.0381C85.6172 91.0381 85.5326 91.0339 85.4648 91.0254C85.3971 91.0169 85.3421 91.0063 85.2998 90.9937C85.2575 90.9767 85.2279 90.9556 85.2109 90.9302C85.194 90.9048 85.1855 90.8773 85.1855 90.8477V87.5596C85.1855 87.3945 85.1898 87.2274 85.1982 87.0581C85.2067 86.8846 85.2173 86.7153 85.23 86.5503C85.1326 86.7196 85.0247 86.8867 84.9062 87.0518C84.792 87.2126 84.6756 87.3734 84.5571 87.5342L82.1323 90.8477C82.1027 90.8815 82.0752 90.9111 82.0498 90.9365C82.0286 90.9619 81.999 90.9831 81.9609 91C81.9271 91.0127 81.8826 91.0212 81.8276 91.0254C81.7726 91.0339 81.7049 91.0381 81.6245 91.0381C81.5314 91.0381 81.4552 91.0339 81.396 91.0254C81.3368 91.0169 81.2881 91.0063 81.25 90.9937C81.2161 90.9767 81.1908 90.9556 81.1738 90.9302C81.1611 90.9048 81.1548 90.8773 81.1548 90.8477V85.1221C81.1548 85.0924 81.1611 85.0649 81.1738 85.0396C81.1908 85.0142 81.2183 84.993 81.2563 84.9761C81.2987 84.9591 81.3537 84.9486 81.4214 84.9443C81.4891 84.9359 81.5716 84.9316 81.6689 84.9316C81.8721 84.9316 82.0117 84.9486 82.0879 84.9824C82.1641 85.012 82.2021 85.0586 82.2021 85.1221V88.4292C82.2021 88.5942 82.1979 88.7593 82.1895 88.9243C82.181 89.0851 82.1704 89.2459 82.1577 89.4067C82.255 89.2459 82.3524 89.0894 82.4497 88.937C82.5513 88.7804 82.6592 88.6281 82.7734 88.48L85.23 85.1221C85.2554 85.0882 85.2808 85.0586 85.3062 85.0332C85.3358 85.0078 85.3696 84.9888 85.4077 84.9761C85.45 84.9591 85.4987 84.9486 85.5537 84.9443C85.6087 84.9359 85.6807 84.9316 85.7695 84.9316C85.8584 84.9316 85.9325 84.9359 85.9917 84.9443C86.0552 84.9486 86.1038 84.9591 86.1377 84.9761C86.1758 84.993 86.2012 85.0142 86.2139 85.0396C86.2308 85.0649 86.2393 85.0946 86.2393 85.1284V90.8477Z" fill="black"/>
<path d="M95.9575 90.8413C95.9575 90.8752 95.9491 90.9048 95.9321 90.9302C95.9152 90.9513 95.8877 90.9704 95.8496 90.9873C95.8115 91.0042 95.7586 91.0169 95.6909 91.0254C95.6232 91.0339 95.5386 91.0381 95.437 91.0381C95.3312 91.0381 95.2445 91.0339 95.1768 91.0254C95.109 91.0169 95.054 91.0042 95.0117 90.9873C94.9736 90.9704 94.9461 90.9513 94.9292 90.9302C94.9123 90.9048 94.9038 90.8752 94.9038 90.8413V85.8521H92.1807V90.8413C92.1807 90.8752 92.1722 90.9048 92.1553 90.9302C92.1383 90.9513 92.1087 90.9704 92.0664 90.9873C92.0283 91.0042 91.9754 91.0169 91.9077 91.0254C91.84 91.0339 91.7554 91.0381 91.6538 91.0381C91.5522 91.0381 91.4676 91.0339 91.3999 91.0254C91.3322 91.0169 91.2772 91.0042 91.2349 90.9873C91.1968 90.9704 91.1693 90.9513 91.1523 90.9302C91.1396 90.9048 91.1333 90.8752 91.1333 90.8413V85.3379C91.1333 85.2109 91.1608 85.1178 91.2158 85.0586C91.2751 84.9951 91.3555 84.9634 91.457 84.9634H95.6401C95.7417 84.9634 95.82 84.9951 95.875 85.0586C95.93 85.1178 95.9575 85.2109 95.9575 85.3379V90.8413Z" fill="black"/>
<path d="M102.775 87.7373C102.775 87.9023 102.733 88.0208 102.648 88.0928C102.568 88.1605 102.474 88.1943 102.369 88.1943H98.6235C98.6235 88.5117 98.6553 88.7974 98.7188 89.0513C98.7822 89.3052 98.888 89.5231 99.0361 89.7051C99.1842 89.887 99.3768 90.0267 99.6138 90.124C99.8507 90.2214 100.141 90.27 100.483 90.27C100.754 90.27 100.995 90.2489 101.207 90.2065C101.419 90.16 101.601 90.1092 101.753 90.0542C101.91 89.9992 102.036 89.9505 102.134 89.9082C102.235 89.8617 102.312 89.8384 102.362 89.8384C102.392 89.8384 102.417 89.8468 102.438 89.8638C102.464 89.8765 102.483 89.8976 102.496 89.9272C102.508 89.9569 102.517 89.9992 102.521 90.0542C102.529 90.105 102.534 90.1685 102.534 90.2446C102.534 90.2996 102.532 90.3483 102.527 90.3906C102.523 90.4287 102.517 90.4647 102.508 90.4985C102.504 90.5282 102.493 90.5557 102.477 90.5811C102.464 90.6064 102.445 90.6318 102.419 90.6572C102.398 90.6784 102.331 90.7165 102.216 90.7715C102.102 90.8223 101.954 90.873 101.772 90.9238C101.59 90.9746 101.378 91.019 101.137 91.0571C100.9 91.0994 100.646 91.1206 100.375 91.1206C99.9058 91.1206 99.4932 91.055 99.1377 90.9238C98.7865 90.7926 98.4902 90.598 98.249 90.3398C98.0078 90.0817 97.8258 89.758 97.7031 89.3687C97.5804 88.9793 97.519 88.5265 97.519 88.0103C97.519 87.5194 97.5825 87.0793 97.7095 86.6899C97.8364 86.2964 98.0184 85.9642 98.2554 85.6934C98.4966 85.4183 98.7865 85.2088 99.125 85.0649C99.4635 84.9168 99.8423 84.8428 100.261 84.8428C100.71 84.8428 101.091 84.9147 101.404 85.0586C101.721 85.2025 101.981 85.3971 102.185 85.6426C102.388 85.8838 102.536 86.1694 102.629 86.4995C102.726 86.8254 102.775 87.1745 102.775 87.5469V87.7373ZM101.721 87.4263C101.734 86.8761 101.611 86.4445 101.353 86.1313C101.099 85.8182 100.72 85.6616 100.217 85.6616C99.9587 85.6616 99.7323 85.7103 99.5376 85.8076C99.3429 85.9049 99.18 86.034 99.0488 86.1948C98.9176 86.3556 98.8161 86.5439 98.7441 86.7598C98.6722 86.9714 98.632 87.1935 98.6235 87.4263H101.721Z" fill="black"/>
<path d="M109.63 87.896C109.63 88.3953 109.575 88.8439 109.465 89.2417C109.36 89.6395 109.201 89.978 108.989 90.2573C108.782 90.5324 108.524 90.7461 108.215 90.8984C107.906 91.0465 107.553 91.1206 107.155 91.1206C106.986 91.1206 106.829 91.1037 106.685 91.0698C106.541 91.036 106.399 90.9831 106.26 90.9111C106.124 90.8392 105.989 90.7482 105.854 90.6382C105.718 90.5282 105.574 90.3991 105.422 90.251V93.1074C105.422 93.1413 105.413 93.1709 105.396 93.1963C105.38 93.2217 105.352 93.2428 105.314 93.2598C105.276 93.2767 105.223 93.2894 105.155 93.2979C105.088 93.3063 105.001 93.3105 104.895 93.3105C104.793 93.3105 104.709 93.3063 104.641 93.2979C104.573 93.2894 104.518 93.2767 104.476 93.2598C104.438 93.2428 104.41 93.2217 104.394 93.1963C104.381 93.1709 104.375 93.1413 104.375 93.1074V85.1284C104.375 85.0903 104.381 85.0607 104.394 85.0396C104.406 85.0142 104.432 84.993 104.47 84.9761C104.508 84.9591 104.556 84.9486 104.616 84.9443C104.675 84.9359 104.747 84.9316 104.832 84.9316C104.92 84.9316 104.992 84.9359 105.047 84.9443C105.107 84.9486 105.155 84.9591 105.193 84.9761C105.231 84.993 105.257 85.0142 105.27 85.0396C105.286 85.0607 105.295 85.0903 105.295 85.1284V85.8965C105.468 85.7188 105.636 85.5643 105.796 85.4331C105.957 85.3019 106.118 85.194 106.279 85.1094C106.444 85.0205 106.611 84.9549 106.78 84.9126C106.954 84.866 107.136 84.8428 107.326 84.8428C107.741 84.8428 108.094 84.9232 108.386 85.084C108.678 85.2448 108.915 85.4648 109.097 85.7441C109.283 86.0234 109.419 86.3493 109.503 86.7217C109.588 87.0898 109.63 87.4813 109.63 87.896ZM108.526 88.0166C108.526 87.7246 108.503 87.4432 108.456 87.1724C108.414 86.8973 108.338 86.654 108.228 86.4424C108.122 86.2308 107.978 86.0615 107.796 85.9346C107.614 85.8076 107.388 85.7441 107.117 85.7441C106.981 85.7441 106.848 85.7653 106.717 85.8076C106.586 85.8457 106.452 85.9092 106.317 85.998C106.181 86.0827 106.04 86.1969 105.892 86.3408C105.743 86.4805 105.587 86.654 105.422 86.8613V89.1338C105.71 89.485 105.983 89.7537 106.241 89.9399C106.499 90.1261 106.77 90.2192 107.053 90.2192C107.316 90.2192 107.54 90.1558 107.726 90.0288C107.917 89.9019 108.069 89.7326 108.183 89.521C108.302 89.3094 108.388 89.0724 108.443 88.8101C108.498 88.5477 108.526 88.2832 108.526 88.0166Z" fill="black"/>
<path d="M116.08 87.7373C116.08 87.9023 116.037 88.0208 115.953 88.0928C115.872 88.1605 115.779 88.1943 115.673 88.1943H111.928C111.928 88.5117 111.96 88.7974 112.023 89.0513C112.087 89.3052 112.193 89.5231 112.341 89.7051C112.489 89.887 112.681 90.0267 112.918 90.124C113.155 90.2214 113.445 90.27 113.788 90.27C114.059 90.27 114.3 90.2489 114.512 90.2065C114.723 90.16 114.905 90.1092 115.058 90.0542C115.214 89.9992 115.341 89.9505 115.438 89.9082C115.54 89.8617 115.616 89.8384 115.667 89.8384C115.697 89.8384 115.722 89.8468 115.743 89.8638C115.769 89.8765 115.788 89.8976 115.8 89.9272C115.813 89.9569 115.821 89.9992 115.826 90.0542C115.834 90.105 115.838 90.1685 115.838 90.2446C115.838 90.2996 115.836 90.3483 115.832 90.3906C115.828 90.4287 115.821 90.4647 115.813 90.4985C115.809 90.5282 115.798 90.5557 115.781 90.5811C115.769 90.6064 115.75 90.6318 115.724 90.6572C115.703 90.6784 115.635 90.7165 115.521 90.7715C115.407 90.8223 115.259 90.873 115.077 90.9238C114.895 90.9746 114.683 91.019 114.442 91.0571C114.205 91.0994 113.951 91.1206 113.68 91.1206C113.21 91.1206 112.798 91.055 112.442 90.9238C112.091 90.7926 111.795 90.598 111.554 90.3398C111.312 90.0817 111.131 89.758 111.008 89.3687C110.885 88.9793 110.824 88.5265 110.824 88.0103C110.824 87.5194 110.887 87.0793 111.014 86.6899C111.141 86.2964 111.323 85.9642 111.56 85.6934C111.801 85.4183 112.091 85.2088 112.43 85.0649C112.768 84.9168 113.147 84.8428 113.566 84.8428C114.014 84.8428 114.395 84.9147 114.708 85.0586C115.026 85.2025 115.286 85.3971 115.489 85.6426C115.692 85.8838 115.84 86.1694 115.934 86.4995C116.031 86.8254 116.08 87.1745 116.08 87.5469V87.7373ZM115.026 87.4263C115.039 86.8761 114.916 86.4445 114.658 86.1313C114.404 85.8182 114.025 85.6616 113.521 85.6616C113.263 85.6616 113.037 85.7103 112.842 85.8076C112.648 85.9049 112.485 86.034 112.354 86.1948C112.222 86.3556 112.121 86.5439 112.049 86.7598C111.977 86.9714 111.937 87.1935 111.928 87.4263H115.026Z" fill="black"/>
<path d="M122.935 87.896C122.935 88.3953 122.88 88.8439 122.77 89.2417C122.664 89.6395 122.506 89.978 122.294 90.2573C122.087 90.5324 121.828 90.7461 121.52 90.8984C121.211 91.0465 120.857 91.1206 120.459 91.1206C120.29 91.1206 120.134 91.1037 119.99 91.0698C119.846 91.036 119.704 90.9831 119.564 90.9111C119.429 90.8392 119.294 90.7482 119.158 90.6382C119.023 90.5282 118.879 90.3991 118.727 90.251V93.1074C118.727 93.1413 118.718 93.1709 118.701 93.1963C118.684 93.2217 118.657 93.2428 118.619 93.2598C118.581 93.2767 118.528 93.2894 118.46 93.2979C118.392 93.3063 118.306 93.3105 118.2 93.3105C118.098 93.3105 118.014 93.3063 117.946 93.2979C117.878 93.2894 117.823 93.2767 117.781 93.2598C117.743 93.2428 117.715 93.2217 117.698 93.1963C117.686 93.1709 117.679 93.1413 117.679 93.1074V85.1284C117.679 85.0903 117.686 85.0607 117.698 85.0396C117.711 85.0142 117.736 84.993 117.774 84.9761C117.812 84.9591 117.861 84.9486 117.92 84.9443C117.98 84.9359 118.052 84.9316 118.136 84.9316C118.225 84.9316 118.297 84.9359 118.352 84.9443C118.411 84.9486 118.46 84.9591 118.498 84.9761C118.536 84.993 118.562 85.0142 118.574 85.0396C118.591 85.0607 118.6 85.0903 118.6 85.1284V85.8965C118.773 85.7188 118.94 85.5643 119.101 85.4331C119.262 85.3019 119.423 85.194 119.583 85.1094C119.749 85.0205 119.916 84.9549 120.085 84.9126C120.258 84.866 120.44 84.8428 120.631 84.8428C121.046 84.8428 121.399 84.9232 121.691 85.084C121.983 85.2448 122.22 85.4648 122.402 85.7441C122.588 86.0234 122.723 86.3493 122.808 86.7217C122.893 87.0898 122.935 87.4813 122.935 87.896ZM121.831 88.0166C121.831 87.7246 121.807 87.4432 121.761 87.1724C121.718 86.8973 121.642 86.654 121.532 86.4424C121.426 86.2308 121.283 86.0615 121.101 85.9346C120.919 85.8076 120.692 85.7441 120.421 85.7441C120.286 85.7441 120.153 85.7653 120.021 85.8076C119.89 85.8457 119.757 85.9092 119.622 85.998C119.486 86.0827 119.344 86.1969 119.196 86.3408C119.048 86.4805 118.892 86.654 118.727 86.8613V89.1338C119.014 89.485 119.287 89.7537 119.545 89.9399C119.804 90.1261 120.074 90.2192 120.358 90.2192C120.62 90.2192 120.845 90.1558 121.031 90.0288C121.221 89.9019 121.374 89.7326 121.488 89.521C121.606 89.3094 121.693 89.0724 121.748 88.8101C121.803 88.5477 121.831 88.2832 121.831 88.0166Z" fill="black"/>
<path d="M131.225 90.8413C131.225 90.8752 131.217 90.9048 131.2 90.9302C131.183 90.9513 131.155 90.9704 131.117 90.9873C131.079 91.0042 131.026 91.0169 130.958 91.0254C130.891 91.0339 130.804 91.0381 130.698 91.0381C130.597 91.0381 130.512 91.0339 130.444 91.0254C130.377 91.0169 130.322 91.0042 130.279 90.9873C130.241 90.9704 130.214 90.9513 130.197 90.9302C130.184 90.9048 130.178 90.8752 130.178 90.8413V85.1284C130.178 85.0946 130.184 85.0671 130.197 85.0459C130.214 85.0205 130.241 84.9993 130.279 84.9824C130.322 84.9613 130.377 84.9486 130.444 84.9443C130.512 84.9359 130.597 84.9316 130.698 84.9316C130.804 84.9316 130.891 84.9359 130.958 84.9443C131.026 84.9486 131.079 84.9613 131.117 84.9824C131.155 84.9993 131.183 85.0205 131.2 85.0459C131.217 85.0671 131.225 85.0946 131.225 85.1284V90.8413ZM125.557 87.1406C125.713 87.1279 125.87 87.1195 126.026 87.1152C126.187 87.1068 126.361 87.1025 126.547 87.1025C127 87.1025 127.387 87.1491 127.708 87.2422C128.03 87.3311 128.295 87.4601 128.502 87.6294C128.714 87.7987 128.868 88.0018 128.965 88.2388C129.063 88.4715 129.111 88.7339 129.111 89.0259C129.111 89.3179 129.058 89.5908 128.953 89.8447C128.851 90.0986 128.688 90.3187 128.464 90.5049C128.244 90.6911 127.96 90.8392 127.613 90.9492C127.266 91.055 126.849 91.1079 126.363 91.1079C126.249 91.1079 126.134 91.1058 126.02 91.1016C125.906 91.1016 125.794 91.0973 125.684 91.0889C125.574 91.0846 125.464 91.0783 125.354 91.0698C125.248 91.0614 125.14 91.0508 125.03 91.0381C124.852 91.0169 124.721 90.9598 124.636 90.8667C124.552 90.7736 124.509 90.6318 124.509 90.4414V85.1284C124.509 85.0946 124.516 85.0671 124.528 85.0459C124.545 85.0205 124.573 84.9993 124.611 84.9824C124.653 84.9613 124.706 84.9486 124.77 84.9443C124.837 84.9359 124.92 84.9316 125.017 84.9316C125.22 84.9316 125.36 84.9486 125.436 84.9824C125.516 85.012 125.557 85.0607 125.557 85.1284V87.1406ZM128.02 89.0957C128.02 88.9222 127.992 88.7656 127.937 88.626C127.886 88.4821 127.799 88.3615 127.677 88.2642C127.558 88.1626 127.4 88.0864 127.201 88.0356C127.002 87.9806 126.758 87.9531 126.471 87.9531C126.297 87.9531 126.136 87.9574 125.988 87.9658C125.84 87.9743 125.696 87.9849 125.557 87.9976V90.1938C125.705 90.2108 125.851 90.2256 125.995 90.2383C126.139 90.251 126.314 90.2573 126.521 90.2573C127.038 90.2573 127.417 90.1558 127.658 89.9526C127.899 89.7453 128.02 89.4596 128.02 89.0957Z" fill="black"/>
<path d="M137.858 89.1973C137.858 89.4977 137.801 89.7664 137.687 90.0034C137.573 90.2362 137.403 90.4329 137.179 90.5938C136.955 90.7503 136.676 90.8709 136.341 90.9556C136.007 91.036 135.618 91.0762 135.173 91.0762C135.034 91.0762 134.898 91.0741 134.767 91.0698C134.636 91.0698 134.509 91.0656 134.386 91.0571C134.264 91.0529 134.141 91.0465 134.018 91.0381C133.9 91.0296 133.781 91.019 133.663 91.0063C133.493 90.9852 133.368 90.9302 133.288 90.8413C133.208 90.7482 133.167 90.6128 133.167 90.4351V85.5156C133.167 85.3421 133.206 85.2088 133.282 85.1157C133.362 85.0226 133.483 84.9676 133.644 84.9507C133.754 84.938 133.87 84.9274 133.993 84.9189C134.12 84.9105 134.249 84.9041 134.38 84.8999C134.511 84.8914 134.646 84.8851 134.786 84.8809C134.926 84.8766 135.068 84.8745 135.211 84.8745C135.622 84.8745 135.977 84.9084 136.278 84.9761C136.578 85.0438 136.828 85.1432 137.027 85.2744C137.226 85.4056 137.372 85.5664 137.465 85.7568C137.562 85.9473 137.611 86.1652 137.611 86.4106C137.611 86.7323 137.524 87.0073 137.351 87.2358C137.181 87.4644 136.93 87.6273 136.595 87.7246C137.014 87.8135 137.329 87.9849 137.541 88.2388C137.753 88.4927 137.858 88.8122 137.858 89.1973ZM136.595 86.5439C136.595 86.4043 136.57 86.2795 136.519 86.1694C136.468 86.0594 136.384 85.9663 136.265 85.8901C136.151 85.814 136.001 85.7568 135.814 85.7188C135.632 85.6807 135.41 85.6616 135.148 85.6616C134.949 85.6616 134.767 85.668 134.602 85.6807C134.437 85.6891 134.297 85.6997 134.183 85.7124V87.4897H135.25C135.685 87.4897 136.018 87.4093 136.246 87.2485C136.479 87.0835 136.595 86.8486 136.595 86.5439ZM136.786 89.2163C136.786 89.047 136.756 88.8989 136.697 88.772C136.638 88.6408 136.542 88.5329 136.411 88.4482C136.284 88.3636 136.119 88.3001 135.916 88.2578C135.717 88.2155 135.48 88.1943 135.205 88.1943H134.183V90.2192C134.264 90.2319 134.346 90.2425 134.431 90.251C134.52 90.2552 134.608 90.2616 134.697 90.27C134.79 90.2743 134.881 90.2785 134.97 90.2827C135.063 90.2869 135.148 90.2891 135.224 90.2891C135.499 90.2891 135.734 90.2658 135.929 90.2192C136.123 90.1685 136.284 90.0965 136.411 90.0034C136.542 89.9103 136.638 89.7982 136.697 89.667C136.756 89.5316 136.786 89.3813 136.786 89.2163Z" fill="black"/>
<path d="M144.714 87.9214C144.714 88.3869 144.653 88.8164 144.53 89.21C144.407 89.5993 144.223 89.9357 143.978 90.2192C143.736 90.5028 143.432 90.7249 143.063 90.8857C142.7 91.0423 142.276 91.1206 141.794 91.1206C141.324 91.1206 140.914 91.0508 140.562 90.9111C140.215 90.7715 139.926 90.5684 139.693 90.3018C139.46 90.0352 139.287 89.7114 139.172 89.3306C139.058 88.9497 139.001 88.5181 139.001 88.0356C139.001 87.5701 139.06 87.1427 139.179 86.7534C139.301 86.3599 139.483 86.0213 139.725 85.7378C139.97 85.4543 140.275 85.2342 140.639 85.0776C141.003 84.9211 141.428 84.8428 141.915 84.8428C142.384 84.8428 142.793 84.9126 143.14 85.0522C143.491 85.1919 143.783 85.395 144.016 85.6616C144.248 85.9282 144.422 86.252 144.536 86.6328C144.655 87.0137 144.714 87.4432 144.714 87.9214ZM143.609 87.9912C143.609 87.6823 143.58 87.3903 143.521 87.1152C143.465 86.8402 143.372 86.599 143.241 86.3916C143.11 86.1842 142.932 86.0213 142.708 85.9028C142.484 85.7801 142.204 85.7188 141.87 85.7188C141.561 85.7188 141.295 85.7738 141.07 85.8838C140.85 85.9938 140.668 86.1504 140.524 86.3535C140.381 86.5524 140.273 86.7894 140.201 87.0645C140.133 87.3395 140.099 87.64 140.099 87.9658C140.099 88.279 140.127 88.5731 140.182 88.8481C140.241 89.1232 140.336 89.3644 140.467 89.5718C140.603 89.7749 140.783 89.9378 141.007 90.0605C141.231 90.179 141.51 90.2383 141.845 90.2383C142.149 90.2383 142.414 90.1833 142.638 90.0732C142.862 89.9632 143.047 89.8088 143.19 89.6099C143.334 89.411 143.44 89.174 143.508 88.8989C143.576 88.6239 143.609 88.3213 143.609 87.9912Z" fill="black"/>
<path d="M150.947 89.1973C150.947 89.4977 150.89 89.7664 150.776 90.0034C150.662 90.2362 150.492 90.4329 150.268 90.5938C150.044 90.7503 149.764 90.8709 149.43 90.9556C149.096 91.036 148.707 91.0762 148.262 91.0762C148.123 91.0762 147.987 91.0741 147.856 91.0698C147.725 91.0698 147.598 91.0656 147.475 91.0571C147.352 91.0529 147.23 91.0465 147.107 91.0381C146.988 91.0296 146.87 91.019 146.751 91.0063C146.582 90.9852 146.457 90.9302 146.377 90.8413C146.297 90.7482 146.256 90.6128 146.256 90.4351V85.5156C146.256 85.3421 146.294 85.2088 146.371 85.1157C146.451 85.0226 146.572 84.9676 146.732 84.9507C146.842 84.938 146.959 84.9274 147.082 84.9189C147.208 84.9105 147.338 84.9041 147.469 84.8999C147.6 84.8914 147.735 84.8851 147.875 84.8809C148.015 84.8766 148.156 84.8745 148.3 84.8745C148.711 84.8745 149.066 84.9084 149.367 84.9761C149.667 85.0438 149.917 85.1432 150.116 85.2744C150.315 85.4056 150.461 85.5664 150.554 85.7568C150.651 85.9473 150.7 86.1652 150.7 86.4106C150.7 86.7323 150.613 87.0073 150.439 87.2358C150.27 87.4644 150.018 87.6273 149.684 87.7246C150.103 87.8135 150.418 87.9849 150.63 88.2388C150.841 88.4927 150.947 88.8122 150.947 89.1973ZM149.684 86.5439C149.684 86.4043 149.659 86.2795 149.608 86.1694C149.557 86.0594 149.472 85.9663 149.354 85.8901C149.24 85.814 149.09 85.7568 148.903 85.7188C148.721 85.6807 148.499 85.6616 148.237 85.6616C148.038 85.6616 147.856 85.668 147.691 85.6807C147.526 85.6891 147.386 85.6997 147.272 85.7124V87.4897H148.338C148.774 87.4897 149.106 87.4093 149.335 87.2485C149.568 87.0835 149.684 86.8486 149.684 86.5439ZM149.875 89.2163C149.875 89.047 149.845 88.8989 149.786 88.772C149.726 88.6408 149.631 88.5329 149.5 88.4482C149.373 88.3636 149.208 88.3001 149.005 88.2578C148.806 88.2155 148.569 88.1943 148.294 88.1943H147.272V90.2192C147.352 90.2319 147.435 90.2425 147.52 90.251C147.608 90.2552 147.697 90.2616 147.786 90.27C147.879 90.2743 147.97 90.2785 148.059 90.2827C148.152 90.2869 148.237 90.2891 148.313 90.2891C148.588 90.2891 148.823 90.2658 149.018 90.2192C149.212 90.1685 149.373 90.0965 149.5 90.0034C149.631 89.9103 149.726 89.7982 149.786 89.667C149.845 89.5316 149.875 89.3813 149.875 89.2163Z" fill="black"/>
</svg>
