<svg width="150" height="60" viewBox="0 0 150 60" fill="none" xmlns="http://www.w3.org/2000/svg">
<path d="M5.61659 50.4337H0V0H26.8935V5.17446H5.61659V23.6645H25.605V28.8045H5.61659V50.4337Z" fill="black"/>
<path d="M35.6137 28.9921V50.4337H31.488V28.9921H35.6137ZM33.5694 20.8229C34.2137 20.8229 34.765 21.0105 35.2234 21.3856C35.6942 21.7478 35.9296 22.3687 35.9296 23.2484C35.9296 24.1151 35.6942 24.7361 35.2234 25.1112C34.765 25.4864 34.2137 25.6739 33.5694 25.6739C32.9128 25.6739 32.3553 25.4864 31.8968 25.1112C31.4508 24.7361 31.2278 24.1151 31.2278 23.2484C31.2278 22.3687 31.4508 21.7478 31.8968 21.3856C32.3553 21.0105 32.9128 20.8229 33.5694 20.8229Z" fill="black"/>
<path d="M48.8643 50.8218C46.3988 50.8218 44.4226 49.8904 42.9359 48.0276C41.4492 46.1648 40.7058 43.4159 40.7058 39.7808C40.7058 36.094 41.4616 33.3127 42.9731 31.437C44.4846 29.5483 46.4793 28.604 48.9572 28.604C50.0103 28.604 50.9272 28.7527 51.7077 29.0503C52.4882 29.3349 53.1635 29.7229 53.7334 30.2145C54.3033 30.7061 54.7865 31.2624 55.183 31.8833H55.3874C55.3254 31.4693 55.2573 30.8937 55.183 30.1563C55.121 29.406 55.09 28.7269 55.09 28.1189V20.2408H59.2157V50.4337H55.9821L55.2573 47.4843H55.09C54.7183 48.1052 54.2475 48.6679 53.6776 49.1724C53.1077 49.6769 52.4263 50.078 51.6334 50.3755C50.8528 50.673 49.9298 50.8218 48.8643 50.8218ZM49.9608 47.329C51.8935 47.329 53.2564 46.7469 54.0493 45.5827C54.8422 44.4184 55.2449 42.685 55.2573 40.3823V39.7808C55.2573 37.31 54.8732 35.4213 54.1051 34.1148C53.3493 32.7953 51.9555 32.1355 49.9236 32.1355C48.2882 32.1355 47.043 32.8147 46.1882 34.173C45.3457 35.5313 44.9244 37.4264 44.9244 39.8584C44.9244 42.2645 45.3457 44.1144 46.1882 45.408C47.043 46.6887 48.3006 47.329 49.9608 47.329Z" fill="black"/>
<path d="M69.6229 28.9921V50.4337H65.4972V28.9921H69.6229ZM67.5787 20.8229C68.2229 20.8229 68.7743 21.0105 69.2327 21.3856C69.7035 21.7478 69.9389 22.3687 69.9389 23.2484C69.9389 24.1151 69.7035 24.7361 69.2327 25.1112C68.7743 25.4864 68.2229 25.6739 67.5787 25.6739C66.922 25.6739 66.3645 25.4864 65.9061 25.1112C65.4601 24.7361 65.2371 24.1151 65.2371 23.2484C65.2371 22.3687 65.4601 21.7478 65.9061 21.3856C66.3645 21.0105 66.922 20.8229 67.5787 20.8229Z" fill="black"/>
<path d="M94.0055 39.6838C94.0055 41.456 93.7825 43.0342 93.3365 44.4184C92.8905 45.7896 92.24 46.9539 91.3852 47.9112C90.5427 48.8555 89.5205 49.5799 88.3187 50.0844C87.1293 50.576 85.7851 50.8218 84.2859 50.8218C82.8859 50.8218 81.5974 50.576 80.4204 50.0844C79.2558 49.5799 78.2461 48.8555 77.3912 47.9112C76.5487 46.9539 75.8921 45.7896 75.4212 44.4184C74.9504 43.0342 74.715 41.456 74.715 39.6838C74.715 37.3165 75.1053 35.3114 75.8859 33.6685C76.6664 32.0126 77.7814 30.7578 79.231 29.9041C80.6806 29.0373 82.4089 28.604 84.416 28.604C86.3116 28.604 87.978 29.0373 89.4152 29.9041C90.8524 30.7708 91.9737 32.0321 92.779 33.6879C93.5967 35.3308 94.0055 37.3294 94.0055 39.6838ZM78.9523 39.6838C78.9523 41.2749 79.1381 42.6397 79.5098 43.7781C79.8939 44.9165 80.4824 45.7896 81.2753 46.3976C82.0806 47.0056 83.1089 47.3096 84.3603 47.3096C85.6116 47.3096 86.6338 47.0056 87.4267 46.3976C88.2196 45.7896 88.8019 44.9165 89.1736 43.7781C89.5577 42.6397 89.7497 41.2749 89.7497 39.6838C89.7497 38.0926 89.5577 36.7343 89.1736 35.6089C88.8019 34.4834 88.2196 33.6232 87.4267 33.0281C86.6338 32.4331 85.6054 32.1355 84.3417 32.1355C82.4709 32.1355 81.1018 32.7888 80.2346 34.0954C79.3797 35.4019 78.9523 37.2647 78.9523 39.6838Z" fill="black"/>
<path d="M98.4658 48.1052C98.4658 47.0833 98.7197 46.3588 99.2277 45.9319C99.7357 45.505 100.349 45.2916 101.068 45.2916C101.811 45.2916 102.437 45.505 102.945 45.9319C103.465 46.3588 103.725 47.0833 103.725 48.1052C103.725 49.1142 103.465 49.8451 102.945 50.2979C102.437 50.7507 101.811 50.977 101.068 50.977C100.349 50.977 99.7357 50.7507 99.2277 50.2979C98.7197 49.8451 98.4658 49.1142 98.4658 48.1052Z" fill="black"/>
<path d="M113.556 20.2408V27.5755C113.556 28.4293 113.531 29.2637 113.482 30.0787C113.445 30.8807 113.408 31.5017 113.37 31.9415H113.556C114.114 31.0101 114.894 30.221 115.898 29.5742C116.901 28.9274 118.196 28.604 119.782 28.604C122.247 28.604 124.224 29.5418 125.71 31.4176C127.197 33.2804 127.94 36.0358 127.94 39.6838C127.94 42.1158 127.6 44.1597 126.918 45.8155C126.237 47.4713 125.277 48.7197 124.038 49.5605C122.799 50.4014 121.343 50.8218 119.67 50.8218C118.097 50.8218 116.821 50.5243 115.842 49.9292C114.876 49.3212 114.12 48.6032 113.575 47.7753H113.259L112.497 50.4337H109.43V20.2408H113.556ZM118.741 32.1355C117.465 32.1355 116.449 32.4007 115.693 32.9311C114.938 33.4615 114.393 34.2635 114.058 35.3372C113.736 36.398 113.569 37.7434 113.556 39.3733V39.7226C113.556 42.1805 113.928 44.0562 114.671 45.3498C115.427 46.6434 116.796 47.2902 118.778 47.2902C120.377 47.2902 121.597 46.6305 122.439 45.311C123.282 43.9915 123.703 42.1028 123.703 39.645C123.703 37.1483 123.282 35.2726 122.439 34.0177C121.609 32.7629 120.377 32.1355 118.741 32.1355Z" fill="black"/>
<path d="M129.91 28.9921H134.389L138.664 41.2749C138.862 41.87 139.041 42.4456 139.203 43.0019C139.376 43.5582 139.525 44.1079 139.649 44.6513C139.785 45.1816 139.89 45.712 139.964 46.2424H140.095C140.218 45.5697 140.404 44.8 140.652 43.9333C140.9 43.0536 141.172 42.1675 141.47 41.2749L145.558 28.9921H150L141.172 53.422C140.677 54.8061 140.07 55.9898 139.351 56.9729C138.633 57.9561 137.784 58.7064 136.805 59.2238C135.826 59.7413 134.693 60 133.404 60C132.797 60 132.264 59.9612 131.806 59.8836C131.348 59.8189 130.957 59.7413 130.635 59.6507V56.2162C130.895 56.2809 131.224 56.3391 131.62 56.3908C132.017 56.4426 132.425 56.4684 132.847 56.4684C133.627 56.4684 134.296 56.3067 134.854 55.9833C135.424 55.6599 135.907 55.2071 136.303 54.625C136.712 54.0429 137.047 53.3702 137.307 52.607L138.106 50.3949L129.91 28.9921Z" fill="black"/>
</svg>
