<?xml version="1.0" encoding="UTF-8"?>
<!DOCTYPE svg PUBLIC "-//W3C//DTD SVG 1.1//EN" "http://www.w3.org/Graphics/SVG/1.1/DTD/svg11.dtd">
<!-- Creator: CorelDRAW -->
<svg xmlns="http://www.w3.org/2000/svg" xml:space="preserve" width="210mm" height="297mm" version="1.1" style="shape-rendering:geometricPrecision; text-rendering:geometricPrecision; image-rendering:optimizeQuality; fill-rule:evenodd; clip-rule:evenodd"
viewBox="0 0 21000 29700"
 xmlns:xlink="http://www.w3.org/1999/xlink"
 xmlns:xodm="http://www.corel.com/coreldraw/odm/2003">
 <defs>
  <style type="text/css">
   <![CDATA[
    .fil0 {fill:black}
    .fil1 {fill:white}
   ]]>
  </style>
 </defs>
 <g id="Слой_x0020_1">
  <metadata id="CorelCorpID_0Corel-Layer"/>
  <g id="_2080464319776">
   <path class="fil0" d="M11732.17 13310.98c-46.27,-73.59 -61.29,-49.11 -96.42,-136.55 -118.93,-296.12 -68.25,-336.98 42.92,-543.64 221.2,0.1 938.13,-17.53 1044.01,12.23 270.36,75.98 629.89,39.11 912.39,38.68 -69.61,272.98 -462.31,342.89 -701.64,405.61l-937.95 171.36c-281.9,15.96 -122.08,11.31 -263.31,52.31zm1901.18 -1738.84c-28.04,79.56 -75.41,124.69 -133.63,179.38 -137.54,129.2 -120.13,105.77 -287.14,159.79l-218.96 70.15c-51.59,11.23 -57.37,6.11 -112.18,21.69l-508.89 98.87c-120.25,27.74 -9.46,33.38 -218.55,42.39l-384.79 69.04c-223.83,62.49 -118.77,13.35 -374.91,78.31 -135.31,34.32 -184.89,-157.54 -229.07,-313.51 -27.11,-95.73 -19.93,-178.42 4.02,-256.65 21.93,-71.68 43.61,-160.94 85.08,-205.03 86,-91.43 368.9,-52.69 529.41,-52.22 338.93,1.02 172.59,-9.19 380.12,42.89l651.62 10.58c597.05,-2.04 358.62,48.99 817.87,54.32zm-3886.65 731.59c-87.46,-78.23 -159.61,-150.19 -236.13,-231.18 0.35,-113.92 -12.32,-206.53 22.38,-293.93 102.06,-257.04 184.59,-309.83 310.97,-508.4 82.45,-129.53 387.4,-426.77 510.14,-495.51l511.29 -361.47c94.68,-57.72 157.3,-119.7 267.16,-155.63 122.47,-40.06 250.47,-127.16 370.23,-158.24 104.35,-27.08 166.88,-35.73 253.27,-64.84 57.29,-19.31 79.61,-31.78 117.41,-40.53 153.33,-35.51 282.25,-41.59 437.02,-92.52 128.92,-42.41 727.01,-49.19 865.69,-13.69 91.78,23.49 -6.52,27.81 142.64,42.27l425.02 77.54 1038.87 468.44c104.16,64.33 -41.28,-34.65 31.99,21.04l516 514.91 419.91 955.16c20.78,236.26 170.18,496.61 100.2,867.9l-467.37 1170.13c-2.98,5.04 -6.16,12.23 -9.17,17.28 -2.99,5.03 -6.43,12.07 -9.52,17.02l-115.92 175.71c-102.08,148.45 -294.09,297.18 -421.09,425.02 -31.1,31.32 -44.78,49.08 -83.41,75.53l-369.45 240.63c-56.24,30.97 -6.89,1.34 -49.54,30.71l-644.67 273.97c-444.07,94.24 -365.45,47.24 -786.13,62.51l-163.13 317.73c-15.99,31.92 -19.11,39.01 -35.31,71.16l-151.36 243.76c-226.48,321.89 -525.32,652.85 -847.2,871.95 -20.46,13.92 -47.56,41.25 -74.77,59.98 -32.08,22.08 -39.72,23 -84.8,43.48 -57.25,26 -120.68,56.94 -160.89,76.61l-119.74 61.42c-5.12,2.68 -11.64,6.71 -16.87,9.32 -5.3,2.65 -11.78,6.63 -17.26,9.13 -125.63,57.32 -333.37,27.79 -490.26,26 3.84,-106.55 48.7,-105.92 102.28,-169.12 3.62,-4.27 8.75,-10.1 12.19,-14.59l163.21 -261.17c6.8,-14.67 23.86,-54.24 24.58,-55.73l159.88 -261.76c5.08,-10.68 40.44,-91.75 40.6,-92.2 72.33,-199.96 164.44,-417.31 215.4,-628.24 39.07,-161.75 138.77,-897.37 31.18,-1008.34 -102.11,-105.32 -636.08,-54.21 -796.25,1.4l-179.36 56.72c-6.81,1.95 -14.03,3.37 -20.87,5.35 -6.91,2 -14.2,3.38 -21.07,5.47 -47.18,14.33 -21.48,4.61 -59.79,20.45l-279.31 144.83c-35,18.04 -44.86,23.57 -87.4,45.53l-264.26 159.9c-104.18,60.06 -71.09,27.97 -123.69,140.89 -113.74,244.18 -334.96,531.19 -509.22,734.18 -152.98,178.19 -77.21,132.41 -330.71,383.66 -767.64,760.8 -422.92,449.74 -1042.38,888.26 -18.59,13.17 -51.31,41.26 -75.97,56.1 -409.17,246.08 -505.96,211.08 -670.72,45.76 -151.78,-152.3 -281.71,-320.67 -269.98,-558.42 8.75,-177.08 336.71,-482.91 499.3,-588.28 106.55,-69.06 188.68,-192.7 288.2,-267.72l1719.86 -1216.6c67.07,-55.87 111.32,-188.77 152.8,-271.75l179.17 -404.51c49,-142.42 52.72,-580.63 -11.13,-706.21 -48.63,-95.63 -44.85,-65.14 -94.67,-137.28 -107.29,-7.34 -213.07,-6.19 -320.66,-6.5 -40.16,-0.11 -121.04,-1.95 -157.29,3.25l-328.2 147.96c-21.73,10.67 -52.22,25.89 -52.86,26.21l-35.43 17.54c-5.35,2.78 -12.35,6.07 -17.62,8.94l-280.83 196.14c-118.74,119.35 -297.96,265.5 -395.47,398.6 -47.73,65.16 -16.39,45.09 -69.71,115.63l-213.35 263.01c-112.37,158.46 -196.21,355.41 -306.3,514.67 -246.4,356.43 -699.65,-298.39 -702.13,-366.17 26.58,-99.74 123.71,-156.49 179.09,-211.33l174.1 -223.34c3.24,-4.4 8.47,-10.14 11.75,-14.51 38.74,-51.82 10.06,-5.16 44.18,-61.65l285.15 -615.43c2.24,-6.22 4.68,-13.27 7.05,-19.33l59.73 -124.12c2.48,-5.9 5.36,-12.81 7.69,-18.88 2.38,-6.2 4.75,-13.24 6.99,-19.61l226.91 -832.17c16.94,-125.88 50.61,-45.66 50.14,-240.58 -0.43,-210.42 47.71,-786.47 -23.13,-929.85 -58.3,-30.97 -174.42,-39.97 -259.24,-14.45 -131.97,39.7 -229.65,161.19 -324.62,258.66l-302.86 491.77c-2.72,5.35 -6.16,12.19 -8.88,17.54l-26.59 52.51c-2.68,5.33 -6.29,12.04 -8.93,17.4l-114.8 281.97c-23.17,46.6 -22.26,46.01 -44.12,114.84 -2.14,6.75 -3.89,13.93 -6.05,20.67 -2.12,6.63 -4.26,13.63 -6.43,20.2l-160.61 581.65c-1.84,6.67 -4.47,13.23 -6.47,19.69 -1.95,6.28 -5.26,12.58 -7.27,18.77 -33.08,101.81 -11.33,175.38 -37.21,280.73 -36.79,149.72 -97.39,311.4 -95.86,488.29 0.33,38.14 1.92,90.11 -4.95,126.54 -41.76,221.3 -51.38,91.1 -49.89,428.2 1.3,294.42 -35.82,1335.56 15.14,1495.63 53.12,166.84 77.93,454.49 126.14,588.53l239.68 561.34c-32.68,60.36 -55.8,77.77 -97.52,119.76 -186.72,187.98 -467.33,31.65 -618.81,-122.59 -59.41,-60.49 -126.43,-114.9 -165.64,-176.7l-71.97 -114.05c-78.88,-105.89 -140.77,-260.21 -184.88,-394.92l-67.08 -250.01c-27.7,-110.69 8.43,-193.24 -30.84,-314.05 -22.6,-69.53 -28,-19.28 -33.57,-147.88 -9.23,-213.45 -26.49,-483.63 0.86,-687.86 22.14,-165.29 52.64,-77.42 48.43,-373.43l27.74 -183.18c46.78,-129.65 10.6,-173.44 64.86,-358.53l230.28 -906.62c2.12,-6.56 4.18,-13.65 6.32,-20.19 2.1,-6.44 4.45,-13.35 6.58,-19.75l513.97 -1151.41c171.84,-295.51 284.19,-506.05 527.59,-769.01 131.28,-141.84 259.64,-248.91 419.97,-346.34l282.36 -141.1c88.46,-44.15 -19.51,-54.5 275.8,-43.87 181.01,6.51 314.95,109.37 397.41,261.21l77.02 160.43c2.39,5.94 5.06,12.91 7.32,18.99l54.44 157.29c52.42,170.36 15.9,672.47 16.06,883.17 0.15,124.37 -26.37,-31.43 -50.08,134.2 -10.12,70.73 3.77,130.65 -11.64,201.73 -36.8,169.75 -40.32,132.22 -41.27,346.98 59.49,-25.55 215.46,-64.26 454.01,-174.07l299.46 -97.9c98.59,-26.78 92.21,-40.86 197.4,-39.91 150.26,3.24 74.49,17.27 125.54,33.18l228.93 36.57c4.64,1.48 60.84,28.89 70.93,34.01 5.27,2.68 11.92,6.41 17.19,9.11l414.42 378.19c55.96,87.9 69.81,84.38 101.77,189.52 2.01,6.62 3.9,13.69 5.91,20.27l30.71 99.36c6.56,28.16 5.77,40.28 12.14,67.79 23.39,101.03 47.61,127.25 50.5,241.35 6.65,262.32 -92.01,316.9 -50.62,680.37 100.3,-1.19 144.33,-15.79 219.01,-34.83 144.25,-36.79 93.97,-30.78 210.11,-80.36 142.04,-60.65 536.62,-140.35 705.39,-139.43 439.82,2.38 532.78,-61.42 756.2,380.76 207.86,411.37 -71.22,1302.3 -225.04,1675.89 142.7,-85.65 300.06,-201.59 423.01,-309.01 153.66,-134.24 198.18,-276.08 304.21,-440.57l256.67 -483.18c24.07,-47.08 28.79,-60.59 51.93,-133.9 21.66,-68.63 22.51,-66.53 43.76,-136.76 24.46,-80.86 4.35,-73.84 57.49,-130.88 123.98,-133.1 191.36,88.62 907.77,-283.24 458.48,-237.97 803.13,-662.76 966.25,-1149.96l39.58 -226.14c51.89,-246.42 43.8,-314.95 45.8,-590.02 1.09,-151.3 -28.51,-274.5 -58.27,-419.1 -36.51,-177.38 -219.6,-525.68 -345.12,-661.61 -283.73,-307.26 -637.97,-604.75 -1057.42,-692.65 -411.89,-86.32 -460.09,-110.55 -922.52,-110.48 -184.23,0.03 -333.33,25.01 -508.08,77.58 -8.29,2.5 -30.02,11.17 -38.4,13.56l-393.52 139.87c-57.11,21.64 -148.64,62.5 -200.24,89.83 -152.22,80.64 -295.93,207.84 -441.74,298.52 -171.41,106.6 -415.77,326 -523.82,506.71 -60.03,100.4 -73.04,100.85 -138.27,179.6l-480.79 703.78zm-288.65 -5045.99c-73.4,42.96 -59.4,19.18 -161.23,22.84 -141.26,5.08 -83.47,7.43 -177.88,36.16 -126.24,38.41 -210.93,65.33 -351.08,69.51l-198.76 40.81c-6.27,2.18 -13.28,4.47 -19.6,6.6l-717.29 235.1c-28.35,10.63 -118.16,56.74 -142.63,69.25 -190.62,97.42 -383.76,136.42 -561.85,260.01 -12.11,8.41 -56.18,44.08 -59.21,46.16l-31.82 20.23c-6.79,3.95 -27.4,14.16 -34.55,17.8 -264.27,134.62 -491.79,321.05 -738.52,480.22l-1044.63 1045.97c-47.3,56.96 -36.08,55.58 -74.16,111.85 -39.29,58.05 -56.92,66.05 -94.37,115.99l-288.35 427.32c-14.34,22.03 -27.75,38.5 -43.14,62.02l-253.1 435.21c-2.72,5.43 -6.05,12.31 -8.78,17.74 -12.06,23.99 -20.1,39.37 -35.98,70.07l-310.37 747.79c-2.16,6.67 -3.97,13.85 -6.12,20.52l-46.63 138.47c-7.41,22.65 -15.14,46.14 -19.7,59.74 -27.25,81.36 -5.65,-5.83 -25.44,79.91l-219.75 1237.13c1.6,156.37 -50.45,173.42 -55.98,340.34 -8.12,244.69 -36.25,601.31 37.15,814.44 48.54,140.95 -14.08,325.4 30.53,471.54 28.51,93.43 5.29,-24.09 30.38,75.67 17.83,70.92 1.38,127.36 12.11,198.94l368.14 1272.28c40.62,131.42 107,206.09 147.4,328.91l100.23 245.06c64.79,127.59 11.16,29.71 83.52,126.83 81.95,110 144.1,275.88 222.22,386.9 32.52,46.21 10.35,19.6 39.78,66.47l483.09 655.3c133.49,141.76 683.21,720.79 835.5,831.37l611.19 420.83c4.74,3.09 11.28,7.31 15.94,10.48l92.71 65.45c32.8,19.16 101.93,48.59 140.88,72.12 4.92,2.98 11.5,7.05 16.27,10.15 4.71,3.07 11.02,7.55 15.59,10.73 155.49,108.33 438.53,254.28 725.47,359.45l222.28 96.63c6.42,2.07 13.49,4.25 19.87,6.35l973.82 269.13c6.37,2.02 12.39,5.89 18.66,8.07 6.31,2.2 12.25,6.24 18.63,8.39l263.85 53.14c147.85,53.13 248.43,-11.51 386.36,40.06 101.39,37.9 225.89,37.52 362.54,35.7l847.06 1.32c255.16,2.86 161.96,-53.19 368.48,-57.72 66.26,-1.46 113.11,11.94 181.4,-4.71 152.22,-37.13 -49,-36.74 163.9,-47.88 108.13,-5.66 88.51,15.24 193.85,-18.89 6.38,-2.07 12.47,-5.82 18.75,-7.92 6.27,-2.09 12.53,-5.55 18.86,-7.52l759.04 -217.4c37.88,-13.54 110.03,-39.79 138.96,-49.41l580.74 -240.47c5.38,-2.67 12.23,-6.05 17.58,-8.74l388.72 -219.47c26.68,-18.23 80.49,-43.92 121.99,-64.12 149.72,-72.89 295.48,-185.64 430.78,-282.98 6.32,-4.55 23.9,-18.28 30.51,-22.58l280.72 -195.96c187.97,-109.3 354.24,-333.66 525.17,-506.18 136.16,-137.42 313.96,-270.93 411.8,-436.74l801.84 -1235.09c16.02,-31.75 18.69,-37 35.33,-70.31 2.69,-5.38 6.24,-12.11 8.9,-17.53 2.67,-5.42 6.3,-12.05 8.91,-17.54l433.38 -1286.5c14.42,-47.48 4.55,16.87 25.87,-78.6l99.22 -509.27c15.21,-51.58 11.69,-30.63 15.32,-91.04 4.01,-66.99 -5.97,-148.55 -3.45,-215.2 5.88,-155.1 18.06,-95.78 35.97,-148.87 38.9,-115.3 37.7,-918.04 11.04,-1032.57 -42.25,-181.46 -46.62,0.85 -43.75,-378.48 1.26,-167.44 -56.24,-348.93 -95.96,-512.23l-43.96 -246.91c-16.2,-52.07 -7.7,-25.56 -20.22,-85.8l-100.21 -323.36c-9.13,-27.81 -18.7,-59.05 -25.76,-80.18l-72.9 -217.83c-21.73,-64.15 -39.95,-118.98 -52.98,-158.42 -99.6,-301.44 -261.51,-558.22 -400.58,-843.23l-227 -354.91c-3.08,-4.78 -6.86,-11.6 -9.87,-16.46 -41.15,-66.51 -46.63,-71.39 -85.25,-126.71l-307.1 -407.64c-215.7,-271.04 -493.86,-581.52 -778.11,-784l-1343.43 -905.77c-50.53,-25.28 -101.38,-49.39 -148.03,-64.68l-1934.36 -550.38c-312.62,-92.7 -1746.38,-48.06 -1814.36,-8.27z"/>
   <path class="fil1" d="M9458.05 7257.74c67.98,-39.79 1501.74,-84.43 1814.36,8.27l1934.36 550.38c46.65,15.29 97.5,39.4 148.03,64.68l1343.43 905.77c284.25,202.48 562.41,512.96 778.11,784l307.1 407.64c38.62,55.32 44.1,60.2 85.25,126.71 3.01,4.86 6.79,11.68 9.87,16.46l227 354.91c139.07,285.01 300.98,541.79 400.58,843.23 13.03,39.44 31.25,94.27 52.98,158.42l72.9 217.83c7.06,21.13 16.63,52.37 25.76,80.18l100.21 323.36c12.52,60.24 4.02,33.73 20.22,85.8l43.96 246.91c39.72,163.3 97.22,344.79 95.96,512.23 -2.87,379.33 1.5,197.02 43.75,378.48 26.66,114.53 27.86,917.27 -11.04,1032.57 -17.91,53.09 -30.09,-6.23 -35.97,148.87 -2.52,66.65 7.46,148.21 3.45,215.2 -3.63,60.41 -0.11,39.46 -15.32,91.04l-99.22 509.27c-21.32,95.47 -11.45,31.12 -25.87,78.6l-433.38 1286.5c-2.61,5.49 -6.24,12.12 -8.91,17.54 -2.66,5.42 -6.21,12.15 -8.9,17.53 -16.64,33.31 -19.31,38.56 -35.33,70.31l-801.84 1235.09c-97.84,165.81 -275.64,299.32 -411.8,436.74 -170.93,172.52 -337.2,396.88 -525.17,506.18l-280.72 195.96c-6.61,4.3 -24.19,18.03 -30.51,22.58 -135.3,97.34 -281.06,210.09 -430.78,282.98 -41.5,20.2 -95.31,45.89 -121.99,64.12l-388.72 219.47c-5.35,2.69 -12.2,6.07 -17.58,8.74l-580.74 240.47c-28.93,9.62 -101.08,35.87 -138.96,49.41l-759.04 217.4c-6.33,1.97 -12.59,5.43 -18.86,7.52 -6.28,2.1 -12.37,5.85 -18.75,7.92 -105.34,34.13 -85.72,13.23 -193.85,18.89 -212.9,11.14 -11.68,10.75 -163.9,47.88 -68.29,16.65 -115.14,3.25 -181.4,4.71 -206.52,4.53 -113.32,60.58 -368.48,57.72l-847.06 -1.32c-136.65,1.82 -261.15,2.2 -362.54,-35.7 -137.93,-51.57 -238.51,13.07 -386.36,-40.06l-263.85 -53.14c-6.38,-2.15 -12.32,-6.19 -18.63,-8.39 -6.27,-2.18 -12.29,-6.05 -18.66,-8.07l-973.82 -269.13c-6.38,-2.1 -13.45,-4.28 -19.87,-6.35l-222.28 -96.63c-286.94,-105.17 -569.98,-251.12 -725.47,-359.45 -4.57,-3.18 -10.88,-7.66 -15.59,-10.73 -4.77,-3.1 -11.35,-7.17 -16.27,-10.15 -38.95,-23.53 -108.08,-52.96 -140.88,-72.12l-92.71 -65.45c-4.66,-3.17 -11.2,-7.39 -15.94,-10.48l-611.19 -420.83c-152.29,-110.58 -702.01,-689.61 -835.5,-831.37l-483.09 -655.3c-29.43,-46.87 -7.26,-20.26 -39.78,-66.47 -78.12,-111.02 -140.27,-276.9 -222.22,-386.9 -72.36,-97.12 -18.73,0.76 -83.52,-126.83l-100.23 -245.06c-40.4,-122.82 -106.78,-197.49 -147.4,-328.91l-368.14 -1272.28c-10.73,-71.58 5.72,-128.02 -12.11,-198.94 -25.09,-99.76 -1.87,17.76 -30.38,-75.67 -44.61,-146.14 18.01,-330.59 -30.53,-471.54 -73.4,-213.13 -45.27,-569.75 -37.15,-814.44 5.53,-166.92 57.58,-183.97 55.98,-340.34l219.75 -1237.13c19.79,-85.74 -1.81,1.45 25.44,-79.91 4.56,-13.6 12.29,-37.09 19.7,-59.74l46.63 -138.47c2.15,-6.67 3.96,-13.85 6.12,-20.52l310.37 -747.79c15.88,-30.7 23.92,-46.08 35.98,-70.07 2.73,-5.43 6.06,-12.31 8.78,-17.74l253.1 -435.21c15.39,-23.52 28.8,-39.99 43.14,-62.02l288.35 -427.32c37.45,-49.94 55.08,-57.94 94.37,-115.99 38.08,-56.27 26.86,-54.89 74.16,-111.85l1044.63 -1045.97c246.73,-159.17 474.25,-345.6 738.52,-480.22 7.15,-3.64 27.76,-13.85 34.55,-17.8l31.82 -20.23c3.03,-2.08 47.1,-37.75 59.21,-46.16 178.09,-123.59 371.23,-162.59 561.85,-260.01 24.47,-12.51 114.28,-58.62 142.63,-69.25l717.29 -235.1c6.32,-2.13 13.33,-4.42 19.6,-6.6l198.76 -40.81c140.15,-4.18 224.84,-31.1 351.08,-69.51 94.41,-28.73 36.62,-31.08 177.88,-36.16 101.83,-3.66 87.83,20.12 161.23,-22.84zm-6507.5 6190.47c-1.22,937.06 -11.99,1618.19 285.17,2494.22 169.97,501.07 196.96,573.28 405.82,1021.59l158.21 316.98c310.14,563.22 383.6,650 749.76,1153.9 252.92,348.06 601.12,668.51 912.81,964.72 313.1,297.55 728.87,599.34 1098.62,805.16 306.41,170.57 607.47,357.77 948.82,477.14 117.76,41.18 222.13,88.07 347.65,127.09 244.5,76.01 475.93,174.63 723.13,228.51l796.12 151.86c79.03,4.6 154.19,-8.57 235.56,5.4 72.96,12.53 98.49,41.28 187.66,48.11 333.54,25.54 696.25,-6.3 1032.22,-1.05 211.3,3.3 219.17,-39.85 369.56,-51.74 387.32,-30.6 719.82,-80.53 1088.19,-202.05l981.33 -338.28c207.87,-75.26 377.82,-183.42 585.06,-288.95l1050.14 -695.27 454.91 -416.22c195.9,-210.54 563.36,-529.77 726.31,-754.19l876.84 -1318.73 399.86 -897.01c16.8,-40.09 43.95,-130.45 59.7,-178.77l144.66 -490.31c2.52,-8.31 11.7,-29.79 14.17,-38.12l128.22 -693.52c21.14,-146.73 49.8,37.83 50.3,-451.63 0.14,-140.72 52.69,-122.2 53.02,-264.55 0.41,-173.88 37.13,-655.87 -16.38,-830.09 -44.39,-144.54 -18.83,-262.36 -52.84,-370.35 -43.89,-139.37 -16.07,-246.69 -41.61,-382.6 -19.42,-103.37 -17.93,-16.61 -46.75,-163.58l-598.61 -1782.49c-2.71,-5.33 -6.2,-12.12 -8.9,-17.45l-724.2 -1180.78 -1256.37 -1335.72c-40.61,-39.88 -61.61,-63.6 -112.68,-98.27l-1795.49 -1061.26c-5.93,-2.43 -12.83,-5.18 -18.95,-7.43l-504.8 -183.64c-6.5,-2.1 -13.5,-4.26 -19.96,-6.38 -6.38,-2.09 -13.24,-4.6 -19.58,-6.72l-216.99 -73.8c-6.57,-2.22 -13.63,-4.35 -20.22,-6.54l-647.31 -145.69c-52.27,-15.48 -30.95,-7.62 -87.52,-18.82 -113.07,-22.37 -56.35,-34.58 -186.4,-50.72 -107.6,-13.37 -199.85,1.07 -288.88,-29.51 -188.79,-64.86 -480.13,-25.35 -688.94,-25.48 -216.39,0.51 -710.75,-38.08 -882.41,17.59 -129.04,41.85 -271.73,21.61 -389.43,59.7l-191.22 47.62c-6.35,1.97 -12.68,5.25 -18.94,7.28 -136.83,44.49 121.74,-28.05 -37.89,14.45l-299.58 44.69c-6.14,2.16 -12.87,5.05 -19.05,7.19l-100.11 32.14c-25.99,8.69 -19.6,9.86 -58.61,20.46l-212.45 52.51c-6.34,2.15 -13.29,4.51 -19.64,6.66l-927.68 368.78c-5.42,2.71 -12.25,6.13 -17.67,8.82 -5.42,2.69 -12.25,6.09 -17.67,8.76 -5.4,2.67 -12.25,6.04 -17.66,8.69l-317.85 159.05c-52.46,27.09 -25.67,13.65 -88.21,43.33l-529.35 317.22c-29.31,17.47 -17.62,9.1 -48.53,30.78 -134.43,94.32 -270.95,153.69 -385.41,276.14l-147.52 117.06c-5,3.05 -11.97,6.6 -16.83,9.75 -6.62,4.28 -25.17,16.91 -31.27,21.64l-251.5 198.42c-149.33,105.86 -543.23,519.2 -636.48,632.3 -58.28,70.68 30.31,-46.68 -22.99,29.87 -179.15,257.27 -446,551.95 -570.03,752.81l-463.21 780.05c-2.7,5.33 -6.1,12.2 -8.82,17.51 -2.72,5.29 -6.19,12.13 -8.93,17.39l-631.91 1723.28c-23.69,85.12 -5.88,-13.87 -27.2,77.54 -11.91,51.11 -5.71,46.43 -10.53,95.13 -17.34,175.39 -27.25,75.92 -48.07,189.92 -12.15,66.53 2.3,139.7 -4.51,207.18 -23.16,229.33 -50.34,-61.56 -51.28,661.32z"/>
   <path class="fil1" d="M10143.37 13579.38c-2.89,-114.1 -27.11,-140.32 -50.5,-241.35 -6.37,-27.51 -5.58,-39.63 -12.14,-67.79l-30.71 -99.36c-2.01,-6.58 -3.9,-13.65 -5.91,-20.27 -31.96,-105.14 -45.81,-101.62 -101.77,-189.52l-414.42 -378.19c-5.27,-2.7 -11.92,-6.43 -17.19,-9.11 -10.09,-5.12 -66.29,-32.53 -70.93,-34.01l-228.93 -36.57c-51.05,-15.91 24.72,-29.94 -125.54,-33.18 -105.19,-0.95 -98.81,13.13 -197.4,39.91l-299.46 97.9c-238.55,109.81 -394.52,148.52 -454.01,174.07 0.95,-214.76 4.47,-177.23 41.27,-346.98 15.41,-71.08 1.52,-131 11.64,-201.73 23.71,-165.63 50.23,-9.83 50.08,-134.2 -0.16,-210.7 36.36,-712.81 -16.06,-883.17l-54.44 -157.29c-2.26,-6.08 -4.93,-13.05 -7.32,-18.99l-77.02 -160.43c-82.46,-151.84 -216.4,-254.7 -397.41,-261.21 -295.31,-10.63 -187.34,-0.28 -275.8,43.87l-282.36 141.1c-160.33,97.43 -288.69,204.5 -419.97,346.34 -243.4,262.96 -355.75,473.5 -527.59,769.01l-513.97 1151.41c-2.13,6.4 -4.48,13.31 -6.58,19.75 -2.14,6.54 -4.2,13.63 -6.32,20.19l-230.28 906.62c-54.26,185.09 -18.08,228.88 -64.86,358.53l-27.74 183.18c4.21,296.01 -26.29,208.14 -48.43,373.43 -27.35,204.23 -10.09,474.41 -0.86,687.86 5.57,128.6 10.97,78.35 33.57,147.88 39.27,120.81 3.14,203.36 30.84,314.05l67.08 250.01c44.11,134.71 106,289.03 184.88,394.92l71.97 114.05c39.21,61.8 106.23,116.21 165.64,176.7 151.48,154.24 432.09,310.57 618.81,122.59 41.72,-41.99 64.84,-59.4 97.52,-119.76l-239.68 -561.34c-48.21,-134.04 -73.02,-421.69 -126.14,-588.53 -50.96,-160.07 -13.84,-1201.21 -15.14,-1495.63 -1.49,-337.1 8.13,-206.9 49.89,-428.2 6.87,-36.43 5.28,-88.4 4.95,-126.54 -1.53,-176.89 59.07,-338.57 95.86,-488.29 25.88,-105.35 4.13,-178.92 37.21,-280.73 2.01,-6.19 5.32,-12.49 7.27,-18.77 2,-6.46 4.63,-13.02 6.47,-19.69l160.61 -581.65c2.17,-6.57 4.31,-13.57 6.43,-20.2 2.16,-6.74 3.91,-13.92 6.05,-20.67 21.86,-68.83 20.95,-68.24 44.12,-114.84l114.8 -281.97c2.64,-5.36 6.25,-12.07 8.93,-17.4l26.59 -52.51c2.72,-5.35 6.16,-12.19 8.88,-17.54l302.86 -491.77c94.97,-97.47 192.65,-218.96 324.62,-258.66 84.82,-25.52 200.94,-16.52 259.24,14.45 70.84,143.38 22.7,719.43 23.13,929.85 0.47,194.92 -33.2,114.7 -50.14,240.58l-226.91 832.17c-2.24,6.37 -4.61,13.41 -6.99,19.61 -2.33,6.07 -5.21,12.98 -7.69,18.88l-59.73 124.12c-2.37,6.06 -4.81,13.11 -7.05,19.33l-285.15 615.43c-34.12,56.49 -5.44,9.83 -44.18,61.65 -3.28,4.37 -8.51,10.11 -11.75,14.51l-174.1 223.34c-55.38,54.84 -152.51,111.59 -179.09,211.33 2.48,67.78 455.73,722.6 702.13,366.17 110.09,-159.26 193.93,-356.21 306.3,-514.67l213.35 -263.01c53.32,-70.54 21.98,-50.47 69.71,-115.63 97.51,-133.1 276.73,-279.25 395.47,-398.6l280.83 -196.14c5.27,-2.87 12.27,-6.16 17.62,-8.94l35.43 -17.54c0.64,-0.32 31.13,-15.54 52.86,-26.21l328.2 -147.96c36.25,-5.2 117.13,-3.36 157.29,-3.25 107.59,0.31 213.37,-0.84 320.66,6.5 49.82,72.14 46.04,41.65 94.67,137.28 63.85,125.58 60.13,563.79 11.13,706.21l-179.17 404.51c-41.48,82.98 -85.73,215.88 -152.8,271.75l-1719.86 1216.6c-99.52,75.02 -181.65,198.66 -288.2,267.72 -162.59,105.37 -490.55,411.2 -499.3,588.28 -11.73,237.75 118.2,406.12 269.98,558.42 164.76,165.32 261.55,200.32 670.72,-45.76 24.66,-14.84 57.38,-42.93 75.97,-56.1 619.46,-438.52 274.74,-127.46 1042.38,-888.26 253.5,-251.25 177.73,-205.47 330.71,-383.66 174.26,-202.99 395.48,-490 509.22,-734.18 52.6,-112.92 19.51,-80.83 123.69,-140.89l264.26 -159.9c42.54,-21.96 52.4,-27.49 87.4,-45.53l279.31 -144.83c38.31,-15.84 12.61,-6.12 59.79,-20.45 6.87,-2.09 14.16,-3.47 21.07,-5.47 6.84,-1.98 14.06,-3.4 20.87,-5.35l179.36 -56.72c160.17,-55.61 694.14,-106.72 796.25,-1.4 107.59,110.97 7.89,846.59 -31.18,1008.34 -50.96,210.93 -143.07,428.28 -215.4,628.24 -0.16,0.45 -35.52,81.52 -40.6,92.2l-159.88 261.76c-0.72,1.49 -17.78,41.06 -24.58,55.73l-163.21 261.17c-3.44,4.49 -8.57,10.32 -12.19,14.59 -53.58,63.2 -98.44,62.57 -102.28,169.12 156.89,1.79 364.63,31.32 490.26,-26 5.48,-2.5 11.96,-6.48 17.26,-9.13 5.23,-2.61 11.75,-6.64 16.87,-9.32l119.74 -61.42c40.21,-19.67 103.64,-50.61 160.89,-76.61 45.08,-20.48 52.72,-21.4 84.8,-43.48 27.21,-18.73 54.31,-46.06 74.77,-59.98 321.88,-219.1 620.72,-550.06 847.2,-871.95l151.36 -243.76c16.2,-32.15 19.32,-39.24 35.31,-71.16l163.13 -317.73c420.68,-15.27 342.06,31.73 786.13,-62.51l644.67 -273.97c42.65,-29.37 -6.7,0.26 49.54,-30.71l369.45 -240.63c38.63,-26.45 52.31,-44.21 83.41,-75.53 127,-127.84 319.01,-276.57 421.09,-425.02l115.92 -175.71c3.09,-4.95 6.53,-11.99 9.52,-17.02 3.01,-5.05 6.19,-12.24 9.17,-17.28l467.37 -1170.13c69.98,-371.29 -79.42,-631.64 -100.2,-867.9l-419.91 -955.16 -516 -514.91c-73.27,-55.69 72.17,43.29 -31.99,-21.04l-1038.87 -468.44 -425.02 -77.54c-149.16,-14.46 -50.86,-18.78 -142.64,-42.27 -138.68,-35.5 -736.77,-28.72 -865.69,13.69 -154.77,50.93 -283.69,57.01 -437.02,92.52 -37.8,8.75 -60.12,21.22 -117.41,40.53 -86.39,29.11 -148.92,37.76 -253.27,64.84 -119.76,31.08 -247.76,118.18 -370.23,158.24 -109.86,35.93 -172.48,97.91 -267.16,155.63l-511.29 361.47c-122.74,68.74 -427.69,365.98 -510.14,495.51 -126.38,198.57 -208.91,251.36 -310.97,508.4 -34.7,87.4 -22.03,180.01 -22.38,293.93 76.52,80.99 148.67,152.95 236.13,231.18l480.79 -703.78c65.23,-78.75 78.24,-79.2 138.27,-179.6 108.05,-180.71 352.41,-400.11 523.82,-506.71 145.81,-90.68 289.52,-217.88 441.74,-298.52 51.6,-27.33 143.13,-68.19 200.24,-89.83l393.52 -139.87c8.38,-2.39 30.11,-11.06 38.4,-13.56 174.75,-52.57 323.85,-77.55 508.08,-77.58 462.43,-0.07 510.63,24.16 922.52,110.48 419.45,87.9 773.69,385.39 1057.42,692.65 125.52,135.93 308.61,484.23 345.12,661.61 29.76,144.6 59.36,267.8 58.27,419.1 -2,275.07 6.09,343.6 -45.8,590.02l-39.58 226.14c-163.12,487.2 -507.77,911.99 -966.25,1149.96 -716.41,371.86 -783.79,150.14 -907.77,283.24 -53.14,57.04 -33.03,50.02 -57.49,130.88 -21.25,70.23 -22.1,68.13 -43.76,136.76 -23.14,73.31 -27.86,86.82 -51.93,133.9l-256.67 483.18c-106.03,164.49 -150.55,306.33 -304.21,440.57 -122.95,107.42 -280.31,223.36 -423.01,309.01 153.82,-373.59 432.9,-1264.52 225.04,-1675.89 -223.42,-442.18 -316.38,-378.38 -756.2,-380.76 -168.77,-0.92 -563.35,78.78 -705.39,139.43 -116.14,49.58 -65.86,43.57 -210.11,80.36 -74.68,19.04 -118.71,33.64 -219.01,34.83 -41.39,-363.47 57.27,-418.05 50.62,-680.37z"/>
   <path class="fil1" d="M13633.35 11572.14c-459.25,-5.33 -220.82,-56.36 -817.87,-54.32l-651.62 -10.58c-207.53,-52.08 -41.19,-41.87 -380.12,-42.89 -160.51,-0.47 -443.41,-39.21 -529.41,52.22 -41.47,44.09 -63.15,133.35 -85.08,205.03 -23.95,78.23 -31.13,160.92 -4.02,256.65 44.18,155.97 93.76,347.83 229.07,313.51 256.14,-64.96 151.08,-15.82 374.91,-78.31l384.79 -69.04c209.09,-9.01 98.3,-14.65 218.55,-42.39l508.89 -98.87c54.81,-15.58 60.59,-10.46 112.18,-21.69l218.96 -70.15c167.01,-54.02 149.6,-30.59 287.14,-159.79 58.22,-54.69 105.59,-99.82 133.63,-179.38z"/>
   <path class="fil1" d="M11732.17 13310.98c141.23,-41 -18.59,-36.35 263.31,-52.31l937.95 -171.36c239.33,-62.72 632.03,-132.63 701.64,-405.61 -282.5,0.43 -642.03,37.3 -912.39,-38.68 -105.88,-29.76 -822.81,-12.13 -1044.01,-12.23 -111.17,206.66 -161.85,247.52 -42.92,543.64 35.13,87.44 50.15,62.96 96.42,136.55z"/>
   <path class="fil1" d="M1916.02 22390l1356.26 0c-41.26,-52.99 -500.88,-364.12 -751.29,-605.38 -128.1,-123.42 -207.54,-223.34 -311.17,-349.66 -93.47,-113.92 -189.19,-300.33 -293.8,-390.14l0 1345.18z"/>
   <path class="fil1" d="M1916.02 6808.21l62.37 -122.6c64.33,-120.15 56.25,-83.11 124.58,-166.54l73.04 -112.19c60.47,-87.76 245.96,-256.15 338.33,-349.82l432.77 -387.76c181.31,-129.31 -12.61,-36.54 300.25,-201.29 3.67,-1.93 11.87,-5.63 17.35,-9.21l-1348.69 0 0 1349.41z"/>
   <path class="fil1" d="M18847.22 6754.61l0 -1295.81 -1296.81 0c69.55,82.58 91.5,70.83 181.9,135.44l95.86 63.5c43.41,28.47 50.81,37.1 88.5,70.16 202.44,177.51 445.41,327.82 657.06,639.79l273.49 386.92z"/>
   <path class="fil1" d="M17539.67 22390l1307.55 0 0 -1298.05 -268.12 395.31c-50.27,78.33 -541.34,570.17 -654.61,640.88l-384.82 261.86z"/>
  </g>
 </g>
</svg>
